<svg viewBox="0 0 587.83 318.55"><defs><style>.cls-2{fill:#c4e9f7}.cls-3,.cls-7{fill:#fff}.cls-24,.cls-3,.cls-8{stroke:#0074bc}.cls-13,.cls-14,.cls-24,.cls-28,.cls-3,.cls-8{stroke-linecap:round;stroke-linejoin:round;stroke-width:2.16px}.cls-11,.cls-5{fill:#8c99a1}.cls-6{fill:#faa21b}.cls-13,.cls-28,.cls-8{fill:none}.cls-11,.cls-9{opacity:.5;mix-blend-mode:multiply}.cls-13,.cls-14{stroke:#0576bc}.cls-14{fill:#0576bc}.cls-15{fill:#0074bc}.cls-24{fill:#69747a}.cls-28{stroke:#fff}</style></defs><g style="isolation:isolate"><g id="Layer_1" data-name="Layer 1"><path d="M269.55 251.71c8.65 0 16.4-6.22 17.44-14.82a16.93 16.93 0 00-16.8-19h-124c-8.92 0-16.9-6.41-18-15.26A17.45 17.45 0 01145.53 183h460.88a17.11 17.11 0 0117.12 17.12 17.11 17.11 0 01-17.12 17.12h-52a9.83 9.83 0 01-9.83 9.83h-22c-7.46 0-14.32 5-15.78 12.32a15.54 15.54 0 0015.2 18.73h149.75c9.07 0 17.2 6.51 18.3 15.53a17.76 17.76 0 01-17.6 20l-99.49.11a15.36 15.36 0 00-15.34 15.36 15.35 15.35 0 0015.38 15.3h49.79c10.54 0 20 7.57 21.23 18a20.61 20.61 0 01-20.45 23.19h-13.95a24.79 24.79 0 00-24.78 24.79v15.13h55.82a15.1 15.1 0 0115.11 15.11v.39a15.58 15.58 0 01-15.56 15.65h-55.37v26.86H219.38v-20.9H176.7a15.11 15.11 0 01-15.11-15.11v-.39a15.57 15.57 0 0115.55-15.65h56.66v-58.6H117.47a15.1 15.1 0 01-15.11-15.11v-.39a15.58 15.58 0 0115.56-15.65h101.83a14.08 14.08 0 0013.76-17c-1.33-6.63-7.56-11.16-14.33-11.14h-28.77a20.36 20.36 0 01-20.36-20.36v-.53a21 21 0 0121-21.09z" class="cls-2" transform="translate(-102.36 -146.54)"/><rect width="59.78" height="41.69" x="208.01" y="309.39" class="cls-3" rx="2.81" transform="rotate(90 259.99 205.79)"/><rect style="fill:#57c1e9" width="14.09" height="33.85" x="230.84" y="294.43" rx="1.75" transform="rotate(90 259.97 186.91)"/><path d="M227.37 325.36a3.22 3.22 0 11-3.22-3.21 3.22 3.22 0 013.22 3.21M236.53 325.36a3.22 3.22 0 11-3.21-3.21 3.22 3.22 0 013.21 3.21M245.7 325.36a3.22 3.22 0 11-3.22-3.21 3.22 3.22 0 013.22 3.21" class="cls-5" transform="translate(-102.36 -146.54)"/><path d="M254.86 325.36a3.22 3.22 0 11-3.21-3.21 3.22 3.22 0 013.21 3.21" class="cls-6" transform="translate(-102.36 -146.54)"/><path d="M227.37 334.53a3.22 3.22 0 11-3.22-3.22 3.22 3.22 0 013.22 3.22M236.53 334.53a3.22 3.22 0 11-3.21-3.22 3.21 3.21 0 013.21 3.22M245.7 334.53a3.22 3.22 0 11-3.22-3.22 3.22 3.22 0 013.22 3.22" class="cls-5" transform="translate(-102.36 -146.54)"/><path d="M254.86 334.53a3.22 3.22 0 11-3.21-3.22 3.21 3.21 0 013.21 3.22" class="cls-6" transform="translate(-102.36 -146.54)"/><path d="M227.37 343.69a3.22 3.22 0 11-3.22-3.21 3.21 3.21 0 013.22 3.21M236.53 343.69a3.22 3.22 0 11-3.21-3.21 3.21 3.21 0 013.21 3.21M245.7 343.69a3.22 3.22 0 11-3.22-3.21 3.21 3.21 0 013.22 3.21" class="cls-5" transform="translate(-102.36 -146.54)"/><path d="M254.86 343.69a3.22 3.22 0 11-3.21-3.21 3.21 3.21 0 013.21 3.21" class="cls-6" transform="translate(-102.36 -146.54)"/><path d="M227.37 352.86a3.22 3.22 0 11-3.22-3.22 3.22 3.22 0 013.22 3.22M236.53 352.86a3.22 3.22 0 11-3.21-3.22 3.21 3.21 0 013.21 3.22M245.7 352.86a3.22 3.22 0 11-3.22-3.22 3.22 3.22 0 013.22 3.22" class="cls-5" transform="translate(-102.36 -146.54)"/><path d="M254.86 352.86a3.22 3.22 0 11-3.21-3.22 3.21 3.21 0 013.21 3.22" class="cls-6" transform="translate(-102.36 -146.54)"/><path d="M184.42 397.43H160a15.67 15.67 0 01-15.65-15.65v-1.06a15.66 15.66 0 0115.22-15.64 21.69 21.69 0 0130.57-12.25 29.23 29.23 0 0156-3.48 19.74 19.74 0 014.09-.43 20.38 20.38 0 0120 16.15h2A15.67 15.67 0 01288 380.72v1.06a15.67 15.67 0 01-15.65 15.65h-87.93z" class="cls-2" transform="translate(-102.36 -146.54)"/><path d="M161.83 369.34h.55a20.35 20.35 0 0130.31-11.15 27.76 27.76 0 0153.72-3.91 19.54 19.54 0 014.93-.66 18.89 18.89 0 0118.75 15.72h3.09a14.09 14.09 0 0114.19 13.92v1a14.09 14.09 0 01-14.19 13.92H161.83a14.1 14.1 0 01-14.19-13.92v-1a14.1 14.1 0 0114.19-13.92z" class="cls-7" transform="translate(-102.36 -146.54)"/><path d="M252.24 397.43h20.06a15.67 15.67 0 0015.7-15.65v-1.06a15.67 15.67 0 00-15.65-15.65h-2a20.38 20.38 0 00-20-16.15 19.74 19.74 0 00-4.09.43 29.23 29.23 0 00-56 3.48 21.69 21.69 0 00-30.57 12.25 15.66 15.66 0 00-15.22 15.64v1.06A15.67 15.67 0 00160 397.43h52.33M232.94 358.94c3.91-7 9-9 14.49-9.8M223.74 339.26c-7.74-.39-14.27 2.83-19.64 8.2" class="cls-8" transform="translate(-102.36 -146.54)"/><g class="cls-9"><path d="M280.89 355H266.2a18.05 18.05 0 00-6.9-5.26v51.64h21.59z" class="cls-5" transform="translate(-102.36 -146.54)"/></g><path d="M505.28 344.57h-24.4a15.68 15.68 0 01-15.65-15.66v-1.05a15.67 15.67 0 0115.22-15.65 21.83 21.83 0 0120.55-14.7 21.58 21.58 0 0110 2.49 29.22 29.22 0 0156-3.49 20.39 20.39 0 0124.11 15.72h2a15.68 15.68 0 0115.66 15.66v1.05a15.68 15.68 0 01-15.66 15.66h-87.83z" class="cls-2" transform="translate(-102.36 -146.54)"/><path d="M482.69 316.47h.55a20.35 20.35 0 0130.31-11.15 27.76 27.76 0 0153.72-3.91 19.62 19.62 0 014.94-.65A18.88 18.88 0 01591 316.47h3a14.1 14.1 0 0114.19 13.92v1A14.1 14.1 0 01594 345.34H482.69a14.11 14.11 0 01-14.19-13.92v-1a14.11 14.11 0 0114.19-13.95z" class="cls-7" transform="translate(-102.36 -146.54)"/><path d="M578.87 344.57h14.29a15.68 15.68 0 0015.66-15.66v-1.05a15.68 15.68 0 00-15.66-15.66h-2a20.39 20.39 0 00-24.11-15.72A29.22 29.22 0 00511 300a21.58 21.58 0 00-10-2.46 21.83 21.83 0 00-20.55 14.7 15.67 15.67 0 00-15.22 15.65v1.05a15.68 15.68 0 0015.65 15.66h52.33M553.8 306.08c3.91-7 9-9 14.49-9.8M544.6 286.39c-7.74-.39-14.27 2.83-19.64 8.2" class="cls-8" transform="translate(-102.36 -146.54)"/><path d="M261.75 241.06h-24.4a15.67 15.67 0 01-15.65-15.65v-1.06a15.67 15.67 0 0115.22-15.64 21.69 21.69 0 0130.57-12.25 29.23 29.23 0 0156-3.48 19.72 19.72 0 014.08-.43 20.39 20.39 0 0120 16.15h2a15.68 15.68 0 0115.66 15.65v1.06a15.68 15.68 0 01-15.66 15.65h-87.82z" class="cls-2" transform="translate(-102.36 -146.54)"/><path d="M239.16 213h.56a20.15 20.15 0 0119.4-14.3 20.4 20.4 0 0110.9 3.14 27.76 27.76 0 0153.72-3.9 19.18 19.18 0 014.94-.66A18.88 18.88 0 01347.42 213h3.1a14.09 14.09 0 0114.18 13.92v1a14.09 14.09 0 01-14.18 13.92H239.16A14.09 14.09 0 01225 227.91v-1A14.09 14.09 0 01239.16 213z" class="cls-7" transform="translate(-102.36 -146.54)"/><path d="M320.18 241.06h29.45a15.68 15.68 0 0015.66-15.65v-1.06a15.68 15.68 0 00-15.66-15.65h-2a20.39 20.39 0 00-20-16.15 19.72 19.72 0 00-4.08.43 29.23 29.23 0 00-56 3.48 21.69 21.69 0 00-30.57 12.25 15.67 15.67 0 00-15.22 15.64v1.06a15.67 15.67 0 0015.65 15.65h29.3M310.28 202.57c3.91-7 9-9 14.48-9.8M301.07 182.88c-7.74-.38-14.27 2.84-19.64 8.21" class="cls-8" transform="translate(-102.36 -146.54)"/><path d="M241.46 281.48h77.36v35.57h-77.36z" class="cls-7"/><rect width="232.54" height="160.59" x="163.79" y="120.86" class="cls-8" rx="12.05"/><path d="M498.69 279.45a12.08 12.08 0 00-12.05-12.05H278.2a12.08 12.08 0 00-12.05 12.05v116.93h232.54z" class="cls-8" transform="translate(-102.36 -146.54)"/><path style="stroke:#0576bc;fill:#8f979c;stroke-width:2.16px;stroke-linecap:round;stroke-linejoin:round" d="M498.69 279.45a12.08 12.08 0 00-12.05-12.05H278.2a12.08 12.08 0 00-12.05 12.05v116.93h232.54z" transform="translate(-102.36 -146.54)"/><path d="M278.2 428h208.44a12.09 12.09 0 0012.05-12.05v-19.57H266.15v19.56A12.09 12.09 0 00278.2 428z" class="cls-3" transform="translate(-102.36 -146.54)"/><path d="M175.51 133.59h209.04V238.6H175.51z" class="cls-7"/><path d="M241.46 281.46h77.36v14.82h-77.36z" class="cls-11"/><path d="M241.46 281.46h77.36v35.73h-77.36z" style="stroke-width:2.38px;fill:none;stroke-linecap:round;stroke-linejoin:round;stroke:#0074bc"/><path d="M225.17 309.69h109.95v7.62H225.17z" class="cls-3"/><path d="M22.73 164.87h33.88M66.71 164.87h10.3" class="cls-13"/><path d="M87.74 164.77h13.68M94.58 171.61v-13.67M496.29 61.76h13.67M503.12 68.6V54.93M561.25 226.81h13.68M568.09 233.65v-13.68M77.64 86.75l9.67-9.67M87.31 86.75l-9.67-9.67" class="cls-14"/><path d="M455.09 96.59h-81.07M363.92 96.59h-10.3" class="cls-13"/><path d="M342.89 96.68h-13.68M336.05 89.85v13.67" class="cls-14"/><path d="M554.91 161.6h-40.68" class="cls-13"/><path d="M683.77 279.38a5.62 5.62 0 11-5.61-5.61 5.62 5.62 0 015.61 5.61zM529.35 168.3a4.19 4.19 0 11-4.18-4.18 4.18 4.18 0 014.18 4.18zM137 352.87a5.62 5.62 0 11-5.62-5.61 5.62 5.62 0 015.62 5.61zM235.33 183.55a4.19 4.19 0 11-4.19-4.18 4.18 4.18 0 014.19 4.18z" class="cls-15" transform="translate(-102.36 -146.54)"/><path d="M233.72 21.74h92.32M284.19 5.87h146.36M333.25 21.74h15.97" class="cls-13"/><path d="M442.93 10.75l9.67-9.67M452.6 10.75l-9.67-9.67" class="cls-14"/><path style="fill:#bfd730;stroke-width:2.16px;stroke-linecap:round;stroke-linejoin:round;stroke:#0074bc" d="M316 225.13h-4.14a19.26 19.26 0 00-2.48-6l2.93-2.94a2.67 2.67 0 000-3.79l-2.2-2.19a2.67 2.67 0 00-3.79 0l-2.94 2.93a19.2 19.2 0 00-6-2.48v-4.14a2.69 2.69 0 00-2.69-2.69h-3.1a2.69 2.69 0 00-2.68 2.69v4.14a19.24 19.24 0 00-5.89 2.43l-2.92-3a2.67 2.67 0 00-3.79 0l-2.21 2.19a2.68 2.68 0 000 3.79L277 219a19.19 19.19 0 00-2.5 6h-4.15a2.66 2.66 0 00-2.68 2.68v3.1a2.68 2.68 0 002.67 2.69h4.14a18.73 18.73 0 002.46 6l-3 2.94a2.68 2.68 0 000 3.79l2.18 2.2a2.67 2.67 0 003.79 0l2.95-2.92a19.34 19.34 0 006 2.5v4.14a2.67 2.67 0 002.67 2.69h3.11a2.68 2.68 0 002.69-2.67V248a19 19 0 006-2.47l2.93 2.95a2.72 2.72 0 003.81 0l2.18-2.19a2.66 2.66 0 000-3.79l-2.92-2.94a19 19 0 002.49-6h4.14a2.68 2.68 0 002.69-2.68v-3.08a2.67 2.67 0 00-2.65-2.67zm-22.82 12.7a8.51 8.51 0 118.51-8.52 8.51 8.51 0 01-8.55 8.52z" transform="translate(-102.36 -146.54)"/><rect style="fill:#fef1dd;stroke-width:2.16px;stroke-linecap:round;stroke-linejoin:round;stroke:#0074bc" width="100.65" height="23.9" x="165.4" y="293.52" rx="3.65"/><path d="M174.83 308.19v-14.18M185.05 301.1v-7.09M195.28 304.32v-10.31M205.5 301.1v-7.09M215.72 308.19v-14.18M225.95 301.1v-7.09M236.17 304.32v-10.31M246.4 301.1v-7.09M256.62 308.19v-14.18" class="cls-14"/><rect width="117.81" height="85.39" x="79.15" y="233.16" class="cls-11" rx="6.6"/><rect width="115.65" height="83.23" x="74.46" y="234.24" class="cls-3" rx="5.52"/><path style="stroke-miterlimit:10;fill:none;stroke-width:2.16px;stroke:#0074bc" d="M288.56 422.44a4 4 0 11-4.05-4.05 4 4 0 014.05 4.05" transform="translate(-102.36 -146.54)"/><path d="M89.99 241.36h84.58v68.99H89.99z" class="cls-15"/><path d="M82.71 283.69v-15.6M63.61 317.37h467.26M540.14 317.37h17.44M20.96 317.33h34.76" class="cls-8"/><text style="font-size:33.81px;font-family:Gotham-Medium,Gotham;font-weight:500;fill:#fff" transform="translate(102.01 287.23)">&lt;/&gt;</text><path d="M383.72 402.79a9.9 9.9 0 00-9.9 9.9 11.17 11.17 0 00.1 1.42l3.05-3.05a1.7 1.7 0 012.38 0l2.53 2.55 3.22-3.22-1.23-.46a.47.47 0 010-.88l6.05-1.75a.49.49 0 01.45.11.51.51 0 01.13.47l-1.72 6.12a.5.5 0 01-.44.37.51.51 0 01-.45-.34l-.46-1.27-4.38 4.38a1.6 1.6 0 01-1.17.48 1.64 1.64 0 01-1.19-.48l-2.54-2.55-3 3a9.9 9.9 0 108.6-14.8z" class="cls-15" transform="translate(-102.36 -146.54)"/><path d="M414.85 332.53a45.09 45.09 0 01-31.85 43.3 45.32 45.32 0 01-31.85-43.3v-25.79a11.77 11.77 0 009.94-9.94h43.81a11.77 11.77 0 009.94 9.94z" class="cls-8" transform="translate(-102.36 -146.54)"/><path style="stroke-width:2.47px;fill:#bfd730;stroke-linecap:round;stroke-linejoin:round;stroke:#0074bc" d="M408.14 332.53A38.18 38.18 0 01383 368.75a38.18 38.18 0 01-25.14-36.22v-21a18.43 18.43 0 008-8h34.24a18.43 18.43 0 008 8z" transform="translate(-102.36 -146.54)"/><path d="M383 314.75A18.25 18.25 0 10401.26 333 18.27 18.27 0 00383 314.75z" class="cls-7" transform="translate(-102.36 -146.54)"/><path style="fill:#bfd730" d="M393.33 325.22a2.45 2.45 0 00-3.47 0l-10.53 10.53-3.18-3.17a2.45 2.45 0 10-3.47 3.47l4.91 4.91a2.45 2.45 0 003.47 0l12.27-12.27a2.45 2.45 0 000-3.47z" transform="translate(-102.36 -146.54)"/><g class="cls-9"><path d="M499.85 369.2H464.7a4.85 4.85 0 00-4.85 4.85v54.36a5.21 5.21 0 00.1.69h39.9z" class="cls-5" transform="translate(-102.36 -146.54)"/></g><path d="M360.21 285.71h135.06v11.75H360.21z" style="fill:#e2e5e7;stroke-width:2.16px;stroke-linecap:round;stroke-linejoin:round;stroke:#0074bc"/><path style="stroke-miterlimit:10;stroke-width:2.16px;stroke:#0074bc;fill:#fff" d="M368.11 223.82h94.3a3.76 3.76 0 013.76 3.76v54.37a3.76 3.76 0 01-3.76 3.76h-94.3a3.77 3.77 0 01-3.77-3.77v-54.36a3.76 3.76 0 013.77-3.76z"/><path d="M470.22 449.37A16.78 16.78 0 01487 432.63h32.88a16.79 16.79 0 0116.74 16.74" class="cls-8" transform="translate(-102.36 -146.54)"/><path d="M614.57 421.14l-8.19-24.37a4.63 4.63 0 00-4.11-2.95h-25.93v38.59a18.3 18.3 0 0116.19 16h22z" class="cls-3" transform="translate(-102.36 -146.54)"/><path d="M574.36 462.9a12.28 12.28 0 1112.27-12.28 12.3 12.3 0 01-12.27 12.28z" class="cls-7" transform="translate(-102.36 -146.54)"/><path d="M574.36 462.9a12.28 12.28 0 1112.27-12.28 12.3 12.3 0 01-12.27 12.28zm0-19.3a7 7 0 107 7 7 7 0 00-7-7z" class="cls-24" transform="translate(-102.36 -146.54)"/><path d="M577.78 450.62a3.43 3.43 0 11-3.43-3.43 3.43 3.43 0 013.43 3.43z" class="cls-15" transform="translate(-102.36 -146.54)"/><path d="M518.64 462.9a12.28 12.28 0 1112.28-12.28 12.3 12.3 0 01-12.28 12.28z" class="cls-7" transform="translate(-102.36 -146.54)"/><path d="M518.64 462.9a12.28 12.28 0 1112.28-12.28 12.3 12.3 0 01-12.28 12.28zm0-19.3a7 7 0 107 7 7 7 0 00-7-7z" class="cls-24" transform="translate(-102.36 -146.54)"/><path d="M522.07 450.62a3.43 3.43 0 11-3.43-3.43 3.44 3.44 0 013.43 3.43z" class="cls-15" transform="translate(-102.36 -146.54)"/><path d="M488.21 462.9a12.28 12.28 0 1112.28-12.28 12.3 12.3 0 01-12.28 12.28z" class="cls-7" transform="translate(-102.36 -146.54)"/><path d="M488.21 462.9a12.28 12.28 0 1112.28-12.28 12.3 12.3 0 01-12.28 12.28zm0-19.3a7 7 0 107 7 7 7 0 00-7-7z" class="cls-24" transform="translate(-102.36 -146.54)"/><path d="M491.64 450.62a3.43 3.43 0 11-3.43-3.43 3.44 3.44 0 013.43 3.43z" class="cls-15" transform="translate(-102.36 -146.54)"/><path d="M477.08 228.78l21.8 18.42M485.21 247.29v-11.5M502.72 297.05h10.93a1.16 1.16 0 011.16 1.16v6.24a1.16 1.16 0 01-1.16 1.16h-10.93a1.15 1.15 0 01-1.15-1.15v-6.25a1.16 1.16 0 011.15-1.16z" class="cls-3"/><path d="M606.55 449.52h8v-3.3h-8z" class="cls-15" transform="translate(-102.36 -146.54)"/><path style="fill:#57c1e9;stroke-width:2.16px;stroke-linecap:round;stroke-linejoin:round;stroke:#0074bc" d="M602.27 393.82h-19.83V415a3.18 3.18 0 003.17 3.16h28l-7.19-21.39a4.63 4.63 0 00-4.15-2.95z" transform="translate(-102.36 -146.54)"/><path d="M470.22 449.37A16.78 16.78 0 01487 432.63h32.88a16.79 16.79 0 0116.74 16.74" class="cls-8" transform="translate(-102.36 -146.54)"/><path d="M364.35 234.62h101.83v40.3H364.35z" style="stroke-width:2.21px;stroke-miterlimit:10;fill:#faa21b;stroke:#0074bc"/><path style="stroke-width:.43px;stroke:#fff;stroke-miterlimit:10;fill:#fff" d="M556.88 400a14.59 14.59 0 00-13.58-13.59h-1.95A14.6 14.6 0 00527.76 400v2a14.6 14.6 0 0013.59 13.58h1.95A14.59 14.59 0 00556.88 402v-2zm-20-10.44a15.59 15.59 0 00-2.29 4.6h-2.92a12.67 12.67 0 015.2-4.57zm-6.22 6.55h3.42a22.86 22.86 0 00-.48 3.89h-3.88a12.6 12.6 0 01.93-3.86zm-.94 5.84h3.88a23 23 0 00.48 3.89h-3.42a12.67 12.67 0 01-.95-3.84zm1.95 5.83h2.92a15.11 15.11 0 002.29 4.6 12.67 12.67 0 01-5.22-4.57zm9.69 5.72c-2-.54-3.72-2.69-4.77-5.72h4.77zm0-7.66H536a21.62 21.62 0 01-.51-3.89h5.82zm0-5.84h-5.82a21.51 21.51 0 01.51-3.89h5.31zm0-5.84h-4.77c1-3 2.77-5.18 4.77-5.71zm11.64 0h-2.92a15.35 15.35 0 00-2.29-4.6 12.73 12.73 0 015.21 4.63zm-9.69-5.71c2 .53 3.72 2.68 4.76 5.71h-4.77zm0 7.66h5.31a21.51 21.51 0 01.51 3.89h-5.83zm0 5.84h5.82a21.62 21.62 0 01-.51 3.89h-5.32zm0 11.55v-5.72h4.76c-1.07 3.06-2.77 5.22-4.77 5.75zm4.48-1.12a15.46 15.46 0 002.29-4.6H553a12.73 12.73 0 01-5.22 4.63zm6.22-6.54h-3.42a23 23 0 00.48-3.89h3.87a12.38 12.38 0 01-.94 3.92zm-2.95-5.84a22.86 22.86 0 00-.48-3.89H554a12.6 12.6 0 01.94 3.89z" transform="translate(-102.36 -146.54)"/><path d="M420.72 254.34h-14.41M400.52 254.34h-28.84M420.72 248.57h-33.47M420.72 260.11h-23.23M390.22 260.11h-5.76" class="cls-28"/><path d="M401.43 200.23a2.71 2.71 0 11-2.71-2.71 2.71 2.71 0 012.71 2.71z" class="cls-15" transform="translate(-102.36 -146.54)"/></g></g></svg>