<svg xmlns="http://www.w3.org/2000/svg" viewBox="0 0 587.83 318.55"><defs><style>.cls-1{isolation:isolate;}.cls-2{fill:#c4e9f7;}.cls-19,.cls-23,.cls-27,.cls-3,.cls-7{fill:#fff;}.cls-12,.cls-16,.cls-17,.cls-18,.cls-20,.cls-22,.cls-23,.cls-24,.cls-25,.cls-26,.cls-3,.cls-8{stroke:#0074bc;}.cls-10,.cls-12,.cls-13,.cls-14,.cls-16,.cls-17,.cls-20,.cls-22,.cls-24,.cls-25,.cls-28,.cls-3,.cls-8{stroke-linecap:round;stroke-linejoin:round;}.cls-10,.cls-13,.cls-14,.cls-16,.cls-17,.cls-18,.cls-22,.cls-23,.cls-24,.cls-25,.cls-28,.cls-3,.cls-8{stroke-width:2.16px;}.cls-25,.cls-4{fill:#57c1e9;}.cls-11,.cls-5{fill:#8c99a1;}.cls-26,.cls-6{fill:#faa21b;}.cls-12,.cls-13,.cls-18,.cls-28,.cls-8{fill:none;}.cls-11,.cls-9{opacity:0.5;mix-blend-mode:multiply;}.cls-10{fill:#8f979c;}.cls-10,.cls-13,.cls-14{stroke:#0576bc;}.cls-12{stroke-width:2.38px;}.cls-14{fill:#0576bc;}.cls-15{fill:#0074bc;}.cls-16,.cls-20,.cls-21{fill:#bfd730;}.cls-17{fill:#fef1dd;}.cls-18,.cls-23,.cls-26,.cls-27{stroke-miterlimit:10;}.cls-19{font-size:33.81px;font-family:Gotham-Medium, Gotham;font-weight:500;}.cls-20{stroke-width:2.47px;}.cls-22{fill:#e2e5e7;}.cls-24{fill:#69747a;}.cls-26{stroke-width:2.21px;}.cls-27,.cls-28{stroke:#fff;}.cls-27{stroke-width:0.43px;}</style></defs><title>all in one graphic – desktop</title><g class="cls-1"><g id="Layer_1" data-name="Layer 1"><path class="cls-2" d="M269.55,251.71c8.65,0,16.4-6.22,17.44-14.82a16.93,16.93,0,0,0-16.8-19h-124c-8.92,0-16.9-6.41-18-15.26A17.45,17.45,0,0,1,145.53,183H606.41a17.11,17.11,0,0,1,17.12,17.12h0a17.11,17.11,0,0,1-17.12,17.12h-52a9.83,9.83,0,0,1-9.83,9.83h-22c-7.46,0-14.32,5-15.78,12.32a15.54,15.54,0,0,0,15.2,18.73H671.75c9.07,0,17.2,6.51,18.3,15.53a17.76,17.76,0,0,1-17.6,20l-99.49.11a15.36,15.36,0,0,0-15.34,15.36h0A15.35,15.35,0,0,0,573,324.42h49.79c10.54,0,20,7.57,21.23,18a20.61,20.61,0,0,1-20.45,23.19H609.62a24.79,24.79,0,0,0-24.78,24.79v15.13h55.82a15.1,15.1,0,0,1,15.11,15.11v.39a15.58,15.58,0,0,1-15.56,15.65H584.84v26.86H219.38V442.64H176.7a15.11,15.11,0,0,1-15.11-15.11v-.39a15.57,15.57,0,0,1,15.55-15.65H233.8v-58.6H117.47a15.1,15.1,0,0,1-15.11-15.11v-.39a15.58,15.58,0,0,1,15.56-15.65H219.75a14.08,14.08,0,0,0,13.76-17c-1.33-6.63-7.56-11.16-14.33-11.14l-11,0-17.77,0a20.36,20.36,0,0,1-20.36-20.36v-.53a21,21,0,0,1,21-21.09Z" transform="translate(-102.36 -146.54)"/><rect class="cls-3" x="208.01" y="309.39" width="59.78" height="41.69" rx="2.81" transform="translate(465.78 -54.2) rotate(90)"/><rect class="cls-4" x="230.84" y="294.43" width="14.09" height="33.85" rx="1.75" transform="translate(446.88 -73.06) rotate(90)"/><path class="cls-5" d="M227.37,325.36a3.22,3.22,0,1,1-3.22-3.21,3.22,3.22,0,0,1,3.22,3.21" transform="translate(-102.36 -146.54)"/><path class="cls-5" d="M236.53,325.36a3.22,3.22,0,1,1-3.21-3.21,3.22,3.22,0,0,1,3.21,3.21" transform="translate(-102.36 -146.54)"/><path class="cls-5" d="M245.7,325.36a3.22,3.22,0,1,1-3.22-3.21,3.22,3.22,0,0,1,3.22,3.21" transform="translate(-102.36 -146.54)"/><path class="cls-6" d="M254.86,325.36a3.22,3.22,0,1,1-3.21-3.21,3.22,3.22,0,0,1,3.21,3.21" transform="translate(-102.36 -146.54)"/><path class="cls-5" d="M227.37,334.53a3.22,3.22,0,1,1-3.22-3.22,3.22,3.22,0,0,1,3.22,3.22" transform="translate(-102.36 -146.54)"/><path class="cls-5" d="M236.53,334.53a3.22,3.22,0,1,1-3.21-3.22,3.21,3.21,0,0,1,3.21,3.22" transform="translate(-102.36 -146.54)"/><path class="cls-5" d="M245.7,334.53a3.22,3.22,0,1,1-3.22-3.22,3.22,3.22,0,0,1,3.22,3.22" transform="translate(-102.36 -146.54)"/><path class="cls-6" d="M254.86,334.53a3.22,3.22,0,1,1-3.21-3.22,3.21,3.21,0,0,1,3.21,3.22" transform="translate(-102.36 -146.54)"/><path class="cls-5" d="M227.37,343.69a3.22,3.22,0,1,1-3.22-3.21,3.21,3.21,0,0,1,3.22,3.21" transform="translate(-102.36 -146.54)"/><path class="cls-5" d="M236.53,343.69a3.22,3.22,0,1,1-3.21-3.21,3.21,3.21,0,0,1,3.21,3.21" transform="translate(-102.36 -146.54)"/><path class="cls-5" d="M245.7,343.69a3.22,3.22,0,1,1-3.22-3.21,3.21,3.21,0,0,1,3.22,3.21" transform="translate(-102.36 -146.54)"/><path class="cls-6" d="M254.86,343.69a3.22,3.22,0,1,1-3.21-3.21,3.21,3.21,0,0,1,3.21,3.21" transform="translate(-102.36 -146.54)"/><path class="cls-5" d="M227.37,352.86a3.22,3.22,0,1,1-3.22-3.22,3.22,3.22,0,0,1,3.22,3.22" transform="translate(-102.36 -146.54)"/><path class="cls-5" d="M236.53,352.86a3.22,3.22,0,1,1-3.21-3.22,3.21,3.21,0,0,1,3.21,3.22" transform="translate(-102.36 -146.54)"/><path class="cls-5" d="M245.7,352.86a3.22,3.22,0,1,1-3.22-3.22,3.22,3.22,0,0,1,3.22,3.22" transform="translate(-102.36 -146.54)"/><path class="cls-6" d="M254.86,352.86a3.22,3.22,0,1,1-3.21-3.22,3.21,3.21,0,0,1,3.21,3.22" transform="translate(-102.36 -146.54)"/><path class="cls-2" d="M184.42,397.43H160a15.67,15.67,0,0,1-15.65-15.65v-1.06a15.66,15.66,0,0,1,15.22-15.64,21.69,21.69,0,0,1,30.57-12.25,29.23,29.23,0,0,1,56-3.48,19.74,19.74,0,0,1,4.09-.43,20.38,20.38,0,0,1,20,16.15h2A15.67,15.67,0,0,1,288,380.72v1.06a15.67,15.67,0,0,1-15.65,15.65H184.42Z" transform="translate(-102.36 -146.54)"/><path class="cls-7" d="M161.83,369.34h.55a20.35,20.35,0,0,1,30.31-11.15,27.76,27.76,0,0,1,53.72-3.91,19.54,19.54,0,0,1,4.93-.66,18.89,18.89,0,0,1,18.75,15.72h3.09a14.09,14.09,0,0,1,14.19,13.92v1a14.09,14.09,0,0,1-14.19,13.92H161.83a14.1,14.1,0,0,1-14.19-13.92v-1A14.1,14.1,0,0,1,161.83,369.34Z" transform="translate(-102.36 -146.54)"/><path class="cls-8" d="M252.24,397.43H272.3A15.67,15.67,0,0,0,288,381.78v-1.06a15.67,15.67,0,0,0-15.65-15.65h-2a20.38,20.38,0,0,0-20-16.15,19.74,19.74,0,0,0-4.09.43,29.23,29.23,0,0,0-56,3.48,21.69,21.69,0,0,0-30.57,12.25,15.66,15.66,0,0,0-15.22,15.64v1.06A15.67,15.67,0,0,0,160,397.43h52.33" transform="translate(-102.36 -146.54)"/><path class="cls-8" d="M232.94,358.94c3.91-7,9-9,14.49-9.8" transform="translate(-102.36 -146.54)"/><path class="cls-8" d="M223.74,339.26c-7.74-.39-14.27,2.83-19.64,8.2" transform="translate(-102.36 -146.54)"/><g class="cls-9"><path class="cls-5" d="M280.89,355H266.2a18.05,18.05,0,0,0-6.9-5.26v51.64h21.59Z" transform="translate(-102.36 -146.54)"/></g><path class="cls-2" d="M505.28,344.57h-24.4a15.68,15.68,0,0,1-15.65-15.66v-1.05a15.67,15.67,0,0,1,15.22-15.65A21.83,21.83,0,0,1,501,297.51,21.58,21.58,0,0,1,511,300a29.22,29.22,0,0,1,56-3.49,20.39,20.39,0,0,1,24.11,15.72h2a15.68,15.68,0,0,1,15.66,15.66v1.05a15.68,15.68,0,0,1-15.66,15.66H505.28Z" transform="translate(-102.36 -146.54)"/><path class="cls-7" d="M482.69,316.47h.55a20.35,20.35,0,0,1,30.31-11.15,27.76,27.76,0,0,1,53.72-3.91,19.62,19.62,0,0,1,4.94-.65A18.88,18.88,0,0,1,591,316.47H594a14.1,14.1,0,0,1,14.19,13.92v1A14.1,14.1,0,0,1,594,345.34H482.69a14.11,14.11,0,0,1-14.19-13.92v-1A14.11,14.11,0,0,1,482.69,316.47Z" transform="translate(-102.36 -146.54)"/><path class="cls-8" d="M578.87,344.57h14.29a15.68,15.68,0,0,0,15.66-15.66v-1.05a15.68,15.68,0,0,0-15.66-15.66h-2a20.39,20.39,0,0,0-24.11-15.72A29.22,29.22,0,0,0,511,300a21.58,21.58,0,0,0-10-2.46,21.83,21.83,0,0,0-20.55,14.7,15.67,15.67,0,0,0-15.22,15.65v1.05a15.68,15.68,0,0,0,15.65,15.66h52.33" transform="translate(-102.36 -146.54)"/><path class="cls-8" d="M553.8,306.08c3.91-7,9-9,14.49-9.8" transform="translate(-102.36 -146.54)"/><path class="cls-8" d="M544.6,286.39c-7.74-.39-14.27,2.83-19.64,8.2" transform="translate(-102.36 -146.54)"/><path class="cls-2" d="M261.75,241.06h-24.4a15.67,15.67,0,0,1-15.65-15.65v-1.06a15.67,15.67,0,0,1,15.22-15.64,21.69,21.69,0,0,1,30.57-12.25,29.23,29.23,0,0,1,56-3.48,19.72,19.72,0,0,1,4.08-.43,20.39,20.39,0,0,1,20,16.15h2a15.68,15.68,0,0,1,15.66,15.65v1.06a15.68,15.68,0,0,1-15.66,15.65H261.75Z" transform="translate(-102.36 -146.54)"/><path class="cls-7" d="M239.16,213h.56a20.15,20.15,0,0,1,19.4-14.3,20.4,20.4,0,0,1,10.9,3.14,27.76,27.76,0,0,1,53.72-3.9,19.18,19.18,0,0,1,4.94-.66A18.88,18.88,0,0,1,347.42,213h3.1a14.09,14.09,0,0,1,14.18,13.92v1a14.09,14.09,0,0,1-14.18,13.92H239.16A14.09,14.09,0,0,1,225,227.91v-1A14.09,14.09,0,0,1,239.16,213Z" transform="translate(-102.36 -146.54)"/><path class="cls-8" d="M320.18,241.06h29.45a15.68,15.68,0,0,0,15.66-15.65v-1.06a15.68,15.68,0,0,0-15.66-15.65h-2a20.39,20.39,0,0,0-20-16.15,19.72,19.72,0,0,0-4.08.43,29.23,29.23,0,0,0-56,3.48,21.69,21.69,0,0,0-30.57,12.25,15.67,15.67,0,0,0-15.22,15.64v1.06a15.67,15.67,0,0,0,15.65,15.65h29.3" transform="translate(-102.36 -146.54)"/><path class="cls-8" d="M310.28,202.57c3.91-7,9-9,14.48-9.8" transform="translate(-102.36 -146.54)"/><path class="cls-8" d="M301.07,182.88c-7.74-.38-14.27,2.84-19.64,8.21" transform="translate(-102.36 -146.54)"/><rect class="cls-7" x="241.46" y="281.48" width="77.36" height="35.57"/><rect class="cls-8" x="163.79" y="120.86" width="232.54" height="160.59" rx="12.05"/><path class="cls-8" d="M498.69,279.45a12.08,12.08,0,0,0-12.05-12.05H278.2a12.08,12.08,0,0,0-12.05,12.05V396.38H498.69Z" transform="translate(-102.36 -146.54)"/><path class="cls-10" d="M498.69,279.45a12.08,12.08,0,0,0-12.05-12.05H278.2a12.08,12.08,0,0,0-12.05,12.05V396.38H498.69Z" transform="translate(-102.36 -146.54)"/><path class="cls-3" d="M278.2,428H486.64a12.09,12.09,0,0,0,12.05-12.05V396.38H266.15v19.56A12.09,12.09,0,0,0,278.2,428Z" transform="translate(-102.36 -146.54)"/><rect class="cls-7" x="175.51" y="133.59" width="209.04" height="105.01"/><rect class="cls-11" x="241.46" y="281.46" width="77.36" height="14.82"/><rect class="cls-12" x="241.46" y="281.46" width="77.36" height="35.73"/><rect class="cls-3" x="225.17" y="309.69" width="109.95" height="7.62"/><line class="cls-13" x1="22.73" y1="164.87" x2="56.61" y2="164.87"/><line class="cls-13" x1="66.71" y1="164.87" x2="77.01" y2="164.87"/><line class="cls-14" x1="87.74" y1="164.77" x2="101.42" y2="164.77"/><line class="cls-14" x1="94.58" y1="171.61" x2="94.58" y2="157.94"/><line class="cls-14" x1="496.29" y1="61.76" x2="509.96" y2="61.76"/><line class="cls-14" x1="503.12" y1="68.6" x2="503.12" y2="54.93"/><line class="cls-14" x1="561.25" y1="226.81" x2="574.93" y2="226.81"/><line class="cls-14" x1="568.09" y1="233.65" x2="568.09" y2="219.97"/><line class="cls-14" x1="77.64" y1="86.75" x2="87.31" y2="77.08"/><line class="cls-14" x1="87.31" y1="86.75" x2="77.64" y2="77.08"/><line class="cls-13" x1="455.09" y1="96.59" x2="374.02" y2="96.59"/><line class="cls-13" x1="363.92" y1="96.59" x2="353.62" y2="96.59"/><line class="cls-14" x1="342.89" y1="96.68" x2="329.21" y2="96.68"/><line class="cls-14" x1="336.05" y1="89.85" x2="336.05" y2="103.52"/><line class="cls-13" x1="554.91" y1="161.6" x2="514.23" y2="161.6"/><path class="cls-15" d="M683.77,279.38a5.62,5.62,0,1,1-5.61-5.61A5.62,5.62,0,0,1,683.77,279.38Z" transform="translate(-102.36 -146.54)"/><path class="cls-15" d="M529.35,168.3a4.19,4.19,0,1,1-4.18-4.18A4.18,4.18,0,0,1,529.35,168.3Z" transform="translate(-102.36 -146.54)"/><path class="cls-15" d="M137,352.87a5.62,5.62,0,1,1-5.62-5.61A5.62,5.62,0,0,1,137,352.87Z" transform="translate(-102.36 -146.54)"/><path class="cls-15" d="M235.33,183.55a4.19,4.19,0,1,1-4.19-4.18A4.18,4.18,0,0,1,235.33,183.55Z" transform="translate(-102.36 -146.54)"/><line class="cls-13" x1="233.72" y1="21.74" x2="326.04" y2="21.74"/><line class="cls-13" x1="284.19" y1="5.87" x2="430.55" y2="5.87"/><line class="cls-13" x1="333.25" y1="21.74" x2="349.22" y2="21.74"/><line class="cls-14" x1="442.93" y1="10.75" x2="452.6" y2="1.08"/><line class="cls-14" x1="452.6" y1="10.75" x2="442.93" y2="1.08"/><path class="cls-2" d="M643.21,246.59" transform="translate(-102.36 -146.54)"/><path class="cls-16" d="M316,225.13l-4.14,0a19.26,19.26,0,0,0-2.48-6l2.93-2.94a2.67,2.67,0,0,0,0-3.79l-2.2-2.19a2.67,2.67,0,0,0-3.79,0l-2.94,2.93a19.2,19.2,0,0,0-6-2.48v-4.14a2.69,2.69,0,0,0-2.69-2.69h-3.1a2.69,2.69,0,0,0-2.68,2.69v4.14a19.24,19.24,0,0,0-5.89,2.43l-2.92-3a2.67,2.67,0,0,0-3.79,0l-2.21,2.19a2.68,2.68,0,0,0,0,3.79L277,219a19.19,19.19,0,0,0-2.5,6h-4.15a2.66,2.66,0,0,0-2.68,2.68l0,3.1a2.68,2.68,0,0,0,2.67,2.69l4.14,0a18.73,18.73,0,0,0,2.46,6l-3,2.94a2.68,2.68,0,0,0,0,3.79l2.18,2.2a2.67,2.67,0,0,0,3.79,0l2.95-2.92a19.34,19.34,0,0,0,6,2.5l0,4.14a2.67,2.67,0,0,0,2.67,2.69h3.11a2.68,2.68,0,0,0,2.69-2.67V248a19,19,0,0,0,6-2.47l2.93,2.95a2.72,2.72,0,0,0,3.81,0l2.18-2.19a2.66,2.66,0,0,0,0-3.79l-2.92-2.94a19,19,0,0,0,2.49-6h4.14a2.68,2.68,0,0,0,2.69-2.68V227.8A2.67,2.67,0,0,0,316,225.13Zm-22.82,12.7a8.51,8.51,0,1,1,8.51-8.52A8.51,8.51,0,0,1,293.14,237.83Z" transform="translate(-102.36 -146.54)"/><rect class="cls-17" x="165.4" y="293.52" width="100.65" height="23.9" rx="3.65"/><line class="cls-14" x1="174.83" y1="308.19" x2="174.83" y2="294.01"/><line class="cls-14" x1="185.05" y1="301.1" x2="185.05" y2="294.01"/><line class="cls-14" x1="195.28" y1="304.32" x2="195.28" y2="294.01"/><line class="cls-14" x1="205.5" y1="301.1" x2="205.5" y2="294.01"/><line class="cls-14" x1="215.72" y1="308.19" x2="215.72" y2="294.01"/><line class="cls-14" x1="225.95" y1="301.1" x2="225.95" y2="294.01"/><line class="cls-14" x1="236.17" y1="304.32" x2="236.17" y2="294.01"/><line class="cls-14" x1="246.4" y1="301.1" x2="246.4" y2="294.01"/><line class="cls-14" x1="256.62" y1="308.19" x2="256.62" y2="294.01"/><rect class="cls-11" x="79.15" y="233.16" width="117.81" height="85.39" rx="6.6"/><rect class="cls-3" x="74.46" y="234.24" width="115.65" height="83.23" rx="5.52"/><path class="cls-18" d="M288.56,422.44a4,4,0,1,1-4.05-4.05,4,4,0,0,1,4.05,4.05" transform="translate(-102.36 -146.54)"/><rect class="cls-15" x="89.99" y="241.36" width="84.58" height="68.99"/><line class="cls-8" x1="82.71" y1="283.69" x2="82.71" y2="268.09"/><line class="cls-8" x1="63.61" y1="317.37" x2="530.87" y2="317.37"/><line class="cls-8" x1="540.14" y1="317.37" x2="557.58" y2="317.37"/><line class="cls-8" x1="20.96" y1="317.33" x2="55.72" y2="317.33"/><text class="cls-19" transform="translate(102.01 287.23)">&lt;/&gt;</text><path class="cls-15" d="M383.72,402.79a9.9,9.9,0,0,0-9.9,9.9,11.17,11.17,0,0,0,.1,1.42l3.05-3.05a1.7,1.7,0,0,1,2.38,0l2.53,2.55,3.22-3.22-1.23-.46a.47.47,0,0,1,0-.88l6.05-1.75a.49.49,0,0,1,.45.11.51.51,0,0,1,.13.47L388.78,414a.5.5,0,0,1-.44.37h0a.51.51,0,0,1-.45-.34l-.46-1.27-4.38,4.38a1.6,1.6,0,0,1-1.17.48,1.64,1.64,0,0,1-1.19-.48l-2.54-2.55-3,3a9.9,9.9,0,1,0,8.6-14.8Z" transform="translate(-102.36 -146.54)"/><path class="cls-8" d="M414.85,332.53A45.09,45.09,0,0,1,383,375.83a45.32,45.32,0,0,1-31.85-43.3V306.74a11.77,11.77,0,0,0,9.94-9.94h43.81a11.77,11.77,0,0,0,9.94,9.94Z" transform="translate(-102.36 -146.54)"/><path class="cls-20" d="M408.14,332.53A38.18,38.18,0,0,1,383,368.75a38.18,38.18,0,0,1-25.14-36.22v-21a18.43,18.43,0,0,0,8-8H400.1a18.43,18.43,0,0,0,8,8Z" transform="translate(-102.36 -146.54)"/><path class="cls-7" d="M383,314.75A18.25,18.25,0,1,0,401.26,333,18.27,18.27,0,0,0,383,314.75Z" transform="translate(-102.36 -146.54)"/><path class="cls-21" d="M393.33,325.22a2.45,2.45,0,0,0-3.47,0l-10.53,10.53-3.18-3.17a2.45,2.45,0,1,0-3.47,3.47l4.91,4.91a2.45,2.45,0,0,0,3.47,0l12.27-12.27A2.45,2.45,0,0,0,393.33,325.22Z" transform="translate(-102.36 -146.54)"/><g class="cls-9"><path class="cls-5" d="M499.85,369.2H464.7a4.85,4.85,0,0,0-4.85,4.85v54.36a5.21,5.21,0,0,0,.1.69h39.9Z" transform="translate(-102.36 -146.54)"/></g><rect class="cls-22" x="360.21" y="285.71" width="135.06" height="11.75"/><path class="cls-23" d="M368.11,223.82h94.3a3.76,3.76,0,0,1,3.76,3.76v54.37a3.76,3.76,0,0,1-3.76,3.76h-94.3a3.77,3.77,0,0,1-3.77-3.77V227.58A3.76,3.76,0,0,1,368.11,223.82Z"/><path class="cls-8" d="M470.22,449.37A16.78,16.78,0,0,1,487,432.63h32.88a16.79,16.79,0,0,1,16.74,16.74" transform="translate(-102.36 -146.54)"/><path class="cls-3" d="M614.57,421.14l-8.19-24.37a4.63,4.63,0,0,0-4.11-2.95H576.34v38.59a18.3,18.3,0,0,1,16.19,16h22Z" transform="translate(-102.36 -146.54)"/><path class="cls-7" d="M574.36,462.9a12.28,12.28,0,1,1,12.27-12.28A12.3,12.3,0,0,1,574.36,462.9Z" transform="translate(-102.36 -146.54)"/><path class="cls-24" d="M574.36,462.9a12.28,12.28,0,1,1,12.27-12.28A12.3,12.3,0,0,1,574.36,462.9Zm0-19.3a7,7,0,1,0,7,7A7,7,0,0,0,574.36,443.6Z" transform="translate(-102.36 -146.54)"/><path class="cls-15" d="M577.78,450.62a3.43,3.43,0,1,1-3.43-3.43A3.43,3.43,0,0,1,577.78,450.62Z" transform="translate(-102.36 -146.54)"/><path class="cls-7" d="M518.64,462.9a12.28,12.28,0,1,1,12.28-12.28A12.3,12.3,0,0,1,518.64,462.9Z" transform="translate(-102.36 -146.54)"/><path class="cls-24" d="M518.64,462.9a12.28,12.28,0,1,1,12.28-12.28A12.3,12.3,0,0,1,518.64,462.9Zm0-19.3a7,7,0,1,0,7,7A7,7,0,0,0,518.64,443.6Z" transform="translate(-102.36 -146.54)"/><path class="cls-15" d="M522.07,450.62a3.43,3.43,0,1,1-3.43-3.43A3.44,3.44,0,0,1,522.07,450.62Z" transform="translate(-102.36 -146.54)"/><path class="cls-7" d="M488.21,462.9a12.28,12.28,0,1,1,12.28-12.28A12.3,12.3,0,0,1,488.21,462.9Z" transform="translate(-102.36 -146.54)"/><path class="cls-24" d="M488.21,462.9a12.28,12.28,0,1,1,12.28-12.28A12.3,12.3,0,0,1,488.21,462.9Zm0-19.3a7,7,0,1,0,7,7A7,7,0,0,0,488.21,443.6Z" transform="translate(-102.36 -146.54)"/><path class="cls-15" d="M491.64,450.62a3.43,3.43,0,1,1-3.43-3.43A3.44,3.44,0,0,1,491.64,450.62Z" transform="translate(-102.36 -146.54)"/><line class="cls-3" x1="477.08" y1="228.78" x2="498.88" y2="247.2"/><line class="cls-3" x1="485.21" y1="247.29" x2="485.21" y2="235.79"/><path class="cls-3" d="M502.72,297.05h10.93a1.16,1.16,0,0,1,1.16,1.16v6.24a1.16,1.16,0,0,1-1.16,1.16H502.72a1.15,1.15,0,0,1-1.15-1.15v-6.25A1.16,1.16,0,0,1,502.72,297.05Z"/><path class="cls-15" d="M606.55,449.52h8v-3.3h-8Z" transform="translate(-102.36 -146.54)"/><path class="cls-25" d="M602.27,393.82H582.44V415a3.18,3.18,0,0,0,3.17,3.16h28l-7.19-21.39A4.63,4.63,0,0,0,602.27,393.82Z" transform="translate(-102.36 -146.54)"/><path class="cls-8" d="M470.22,449.37A16.78,16.78,0,0,1,487,432.63h32.88a16.79,16.79,0,0,1,16.74,16.74" transform="translate(-102.36 -146.54)"/><rect class="cls-26" x="364.35" y="234.62" width="101.83" height="40.3"/><path class="cls-27" d="M556.88,400a14.59,14.59,0,0,0-13.58-13.59v0h-1.95v0A14.6,14.6,0,0,0,527.76,400h0v2h0a14.6,14.6,0,0,0,13.59,13.58v0h1.95v0A14.59,14.59,0,0,0,556.88,402h0v-2Zm-20-10.44a15.59,15.59,0,0,0-2.29,4.6h-2.92A12.67,12.67,0,0,1,536.87,389.59Zm-6.22,6.55h3.42a22.86,22.86,0,0,0-.48,3.89h-3.88A12.6,12.6,0,0,1,530.65,396.14Zm-.94,5.84h3.88a23,23,0,0,0,.48,3.89h-3.42A12.67,12.67,0,0,1,529.71,402Zm1.95,5.83h2.92a15.11,15.11,0,0,0,2.29,4.6A12.67,12.67,0,0,1,531.66,407.81Zm9.69,5.72c-2-.54-3.72-2.69-4.77-5.72h4.77Zm0-7.66H536a21.62,21.62,0,0,1-.51-3.89h5.82Zm0-5.84h-5.82a21.51,21.51,0,0,1,.51-3.89h5.31Zm0-5.84h-4.77c1-3,2.77-5.18,4.77-5.71Zm11.64,0h-2.92a15.35,15.35,0,0,0-2.29-4.6A12.73,12.73,0,0,1,553,394.19Zm-9.69-5.71c2,.53,3.72,2.68,4.76,5.71H543.3Zm0,7.66h5.31a21.51,21.51,0,0,1,.51,3.89H543.3Zm0,5.84h5.82a21.62,21.62,0,0,1-.51,3.89H543.3Zm0,11.55v-5.72h4.76C547,410.84,545.3,413,543.3,413.53Zm4.48-1.12a15.46,15.46,0,0,0,2.29-4.6H553A12.73,12.73,0,0,1,547.78,412.41Zm6.22-6.54h-3.42a23,23,0,0,0,.48-3.89h3.87A12.38,12.38,0,0,1,554,405.87ZM551.06,400a22.86,22.86,0,0,0-.48-3.89H554a12.6,12.6,0,0,1,.94,3.89Z" transform="translate(-102.36 -146.54)"/><line class="cls-28" x1="420.72" y1="254.34" x2="406.31" y2="254.34"/><line class="cls-28" x1="400.52" y1="254.34" x2="371.68" y2="254.34"/><line class="cls-28" x1="420.72" y1="248.57" x2="387.25" y2="248.57"/><line class="cls-28" x1="420.72" y1="260.11" x2="397.49" y2="260.11"/><line class="cls-28" x1="390.22" y1="260.11" x2="384.46" y2="260.11"/><path class="cls-15" d="M401.43,200.23a2.71,2.71,0,1,1-2.71-2.71A2.71,2.71,0,0,1,401.43,200.23Z" transform="translate(-102.36 -146.54)"/></g></g></svg>