<svg xmlns="http://www.w3.org/2000/svg" viewBox="0 0 587.83 318.46"><defs><style>.cls-1{isolation:isolate;}.cls-2{fill:#c4e9f7;}.cls-11,.cls-23,.cls-27,.cls-3,.cls-7{fill:#fff;}.cls-15,.cls-18,.cls-26,.cls-4,.cls-9{fill:none;}.cls-10,.cls-11,.cls-14,.cls-18,.cls-19,.cls-20,.cls-21,.cls-22,.cls-23,.cls-24,.cls-25,.cls-26,.cls-27,.cls-31,.cls-4,.cls-7,.cls-9{stroke:#0074bc;}.cls-10,.cls-11,.cls-14,.cls-15,.cls-16,.cls-18,.cls-19,.cls-20,.cls-21,.cls-22,.cls-24,.cls-4,.cls-6,.cls-7,.cls-9{stroke-linecap:round;stroke-linejoin:round;}.cls-10,.cls-14,.cls-15,.cls-16,.cls-19,.cls-20,.cls-21,.cls-22,.cls-23,.cls-24,.cls-25,.cls-26,.cls-4,.cls-6,.cls-7{stroke-width:2.16px;}.cls-5{fill:#d5effa;}.cls-6{fill:#8f979c;}.cls-15,.cls-16,.cls-6{stroke:#0576bc;}.cls-13,.cls-8{fill:#8c99a1;}.cls-12,.cls-8{opacity:0.5;mix-blend-mode:multiply;}.cls-9{stroke-width:2.38px;}.cls-10{fill:#f3f5f5;}.cls-11{stroke-width:1.59px;}.cls-14,.cls-29{fill:#bfd730;}.cls-16{fill:#0576bc;}.cls-17,.cls-19,.cls-25,.cls-31{fill:#0074bc;}.cls-18{stroke-width:4.33px;}.cls-20{fill:#d1d6d9;}.cls-21,.cls-28{fill:#faa21b;}.cls-22,.cls-30{fill:#57c1e9;}.cls-23,.cls-25,.cls-26,.cls-27,.cls-28,.cls-29,.cls-30,.cls-31{stroke-miterlimit:10;}.cls-24{fill:#fee8c6;}.cls-27{stroke-width:1.84px;}.cls-28{stroke:#faa21b;}.cls-28,.cls-29,.cls-30,.cls-31{stroke-width:2.26px;}.cls-29{stroke:#bfd730;}.cls-30{stroke:#57c1e9;}</style></defs><title>better together graphic - desktop</title><g class="cls-1"><g id="Layer_1" data-name="Layer 1"><path class="cls-2" d="M269.32,252.06c8.66,0,16.4-6.22,17.45-14.81A17,17,0,0,0,270,218.19H146c-8.91,0-16.89-6.41-18-15.26A17.45,17.45,0,0,1,145.3,183.3H606.19a17.13,17.13,0,0,1,17.12,17.12h0a17.12,17.12,0,0,1-17.12,17.12h-52a9.83,9.83,0,0,1-9.83,9.84h-22c-7.47,0-14.32,5-15.79,12.31a15.54,15.54,0,0,0,15.2,18.73H671.52c9.08,0,17.2,6.52,18.3,15.53a17.77,17.77,0,0,1-17.59,20l-99.5.11a15.35,15.35,0,0,0-15.33,15.35h0a15.35,15.35,0,0,0,15.35,15.35h49.78c10.54,0,20,7.57,21.24,18A20.62,20.62,0,0,1,623.31,366H609.4a24.79,24.79,0,0,0-24.79,24.79v15.13h64.48A15.1,15.1,0,0,1,664.2,421v.39a15.57,15.57,0,0,1-15.56,15.65h-64v26.87H219.15v-29.6h-60a15.1,15.1,0,0,1-15.11-15.1v-.4a15.58,15.58,0,0,1,15.55-15.65h74V353.24H117.24a15.11,15.11,0,0,1-15.11-15.1v-.39a15.58,15.58,0,0,1,15.56-15.65H219.52a14.08,14.08,0,0,0,13.76-17C232,298.47,225.72,293.94,219,294l-11,0-17.77,0a20.37,20.37,0,0,1-20.36-20.36v-.53a21,21,0,0,1,21-21.09Z" transform="translate(-102.13 -146.59)"/><path class="cls-2" d="M206.6,389.46H182.2a15.68,15.68,0,0,1-15.66-15.65v-1.06a15.67,15.67,0,0,1,15.23-15.65,21.68,21.68,0,0,1,30.56-12.24,29.23,29.23,0,0,1,56-3.49,20.44,20.44,0,0,1,24.11,15.73h2a15.67,15.67,0,0,1,15.65,15.65v1.06a15.67,15.67,0,0,1-15.65,15.65H206.6Z" transform="translate(-102.13 -146.59)"/><path class="cls-3" d="M184,361.37h.55a20.34,20.34,0,0,1,30.3-11.16,27.77,27.77,0,0,1,53.73-3.9,19.1,19.1,0,0,1,4.93-.66,18.89,18.89,0,0,1,18.75,15.72h3.09a14.09,14.09,0,0,1,14.19,13.92v1a14.09,14.09,0,0,1-14.19,13.92H184a14.1,14.1,0,0,1-14.19-13.92v-1A14.1,14.1,0,0,1,184,361.37Z" transform="translate(-102.13 -146.59)"/><path class="cls-4" d="M265,389.46h29.45a15.67,15.67,0,0,0,15.65-15.65v-1.06a15.67,15.67,0,0,0-15.65-15.65h-2a20.44,20.44,0,0,0-24.11-15.73,29.23,29.23,0,0,0-56,3.49,21.68,21.68,0,0,0-30.56,12.24,15.67,15.67,0,0,0-15.23,15.65v1.06a15.68,15.68,0,0,0,15.66,15.65h29.3" transform="translate(-102.13 -146.59)"/><path class="cls-4" d="M255.12,351c3.91-7,9-9,14.49-9.8" transform="translate(-102.13 -146.59)"/><path class="cls-4" d="M245.92,331.28c-7.74-.39-14.27,2.84-19.64,8.21" transform="translate(-102.13 -146.59)"/><rect class="cls-5" x="230.35" y="281.48" width="77.36" height="35.57"/><rect class="cls-4" x="152.68" y="120.86" width="232.54" height="160.59" rx="12.05"/><path class="cls-4" d="M487.35,279.49a12.09,12.09,0,0,0-12.05-12.05H266.86a12.09,12.09,0,0,0-12.05,12.05V396.42H487.35Z" transform="translate(-102.13 -146.59)"/><path class="cls-6" d="M487.35,279.49a12.09,12.09,0,0,0-12.05-12.05H266.86a12.09,12.09,0,0,0-12.05,12.05V396.42H487.35Z" transform="translate(-102.13 -146.59)"/><path class="cls-7" d="M266.86,428H475.3a12.08,12.08,0,0,0,12.05-12V396.42H254.81V416A12.08,12.08,0,0,0,266.86,428Z" transform="translate(-102.13 -146.59)"/><rect class="cls-3" x="164.4" y="133.59" width="209.04" height="105.01"/><rect class="cls-8" x="230.35" y="281.46" width="77.36" height="14.82"/><rect class="cls-9" x="230.35" y="281.46" width="77.36" height="35.73"/><rect class="cls-7" x="214.06" y="309.69" width="109.95" height="7.62"/><line class="cls-4" x1="63.61" y1="317.37" x2="530.87" y2="317.37"/><line class="cls-4" x1="540.14" y1="317.37" x2="557.58" y2="317.37"/><line class="cls-4" x1="20.96" y1="317.33" x2="55.72" y2="317.33"/><path class="cls-10" d="M439.34,352a7.49,7.49,0,0,0-5.08-7.1L395.2,332.5c-4.89,4.45-13.88,7.43-24.17,7.43s-19-2.9-24-7.24l-38.47,12.25a7.49,7.49,0,0,0-5.08,7.1l.15,33H439.49Z" transform="translate(-102.13 -146.59)"/><path class="cls-11" d="M371,309.71c-1,0-1.93,0-2.88.08h5.76C373,309.73,372,309.71,371,309.71Z" transform="translate(-102.13 -146.59)"/><g class="cls-12"><path class="cls-13" d="M257.93,325.8a38.12,38.12,0,0,0-10-4.05v65.52h10Z" transform="translate(-102.13 -146.59)"/></g><path class="cls-2" d="M537,239.25h24.41A15.67,15.67,0,0,0,577,223.59v-1.05a15.67,15.67,0,0,0-15.22-15.65,21.85,21.85,0,0,0-20.56-14.7,21.54,21.54,0,0,0-10,2.46,29.23,29.23,0,0,0-56-3.49,20.44,20.44,0,0,0-24.11,15.73h-2a15.67,15.67,0,0,0-15.65,15.65v1.05a15.67,15.67,0,0,0,15.65,15.66H537Z" transform="translate(-102.13 -146.59)"/><path class="cls-3" d="M559.55,211.15H559a20.17,20.17,0,0,0-19.4-14.3,20.41,20.41,0,0,0-10.9,3.15A27.76,27.76,0,0,0,475,196.1a19.18,19.18,0,0,0-4.94-.66,18.87,18.87,0,0,0-18.74,15.71h-3.1A14.1,14.1,0,0,0,434,225.07v1A14.1,14.1,0,0,0,448.19,240H559.55a14.1,14.1,0,0,0,14.18-13.92v-1A14.1,14.1,0,0,0,559.55,211.15Z" transform="translate(-102.13 -146.59)"/><path class="cls-4" d="M463.36,239.25H449.07a15.67,15.67,0,0,1-15.65-15.66v-1.05a15.67,15.67,0,0,1,15.65-15.65h2a20.44,20.44,0,0,1,24.11-15.73,29.23,29.23,0,0,1,56,3.49,21.54,21.54,0,0,1,10-2.46,21.85,21.85,0,0,1,20.56,14.7A15.67,15.67,0,0,1,577,222.54v1.05a15.67,15.67,0,0,1-15.65,15.66H509" transform="translate(-102.13 -146.59)"/><path class="cls-4" d="M488.43,200.76c-3.91-7-9-9-14.48-9.8" transform="translate(-102.13 -146.59)"/><path class="cls-4" d="M497.64,181.07c7.74-.39,14.27,2.83,19.64,8.2" transform="translate(-102.13 -146.59)"/><path class="cls-14" d="M506.45,224.84h-3.73a17.32,17.32,0,0,0-2.24-5.38l2.64-2.65a2.4,2.4,0,0,0,0-3.41l-2-2a2.43,2.43,0,0,0-3.42,0l-2.64,2.64a17.16,17.16,0,0,0-5.38-2.23v-3.73a2.42,2.42,0,0,0-2.42-2.42h-2.79a2.41,2.41,0,0,0-2.41,2.42v3.73a17.19,17.19,0,0,0-5.3,2.18l-2.63-2.65a2.4,2.4,0,0,0-3.41,0l-2,2a2.41,2.41,0,0,0,0,3.41l2.63,2.66a17.11,17.11,0,0,0-2.26,5.36h-3.73a2.41,2.41,0,0,0-2.42,2.41l0,2.79a2.43,2.43,0,0,0,2.41,2.43h3.72a17.38,17.38,0,0,0,2.22,5.38l-2.65,2.64a2.41,2.41,0,0,0,0,3.41l2,2a2.41,2.41,0,0,0,3.42,0l2.65-2.63a17.44,17.44,0,0,0,5.38,2.25v3.72a2.41,2.41,0,0,0,2.4,2.43h2.8a2.41,2.41,0,0,0,2.42-2.4v-3.74a17.53,17.53,0,0,0,5.39-2.22l2.63,2.65a2.43,2.43,0,0,0,3.42,0l2-2a2.4,2.4,0,0,0,0-3.41l-2.63-2.65a17.18,17.18,0,0,0,2.24-5.38h3.73a2.42,2.42,0,0,0,2.42-2.41v-2.8A2.4,2.4,0,0,0,506.45,224.84Zm-20.54,11.44a7.66,7.66,0,1,1,7.66-7.67A7.66,7.66,0,0,1,485.91,236.28Z" transform="translate(-102.13 -146.59)"/><line class="cls-15" x1="219.72" y1="21.74" x2="312.04" y2="21.74"/><line class="cls-15" x1="270.19" y1="5.87" x2="416.55" y2="5.87"/><line class="cls-15" x1="319.25" y1="21.74" x2="335.22" y2="21.74"/><line class="cls-16" x1="428.93" y1="10.75" x2="438.6" y2="1.08"/><line class="cls-16" x1="438.6" y1="10.75" x2="428.93" y2="1.08"/><path class="cls-2" d="M629,246.64" transform="translate(-102.13 -146.59)"/><line class="cls-16" x1="32.76" y1="158.83" x2="46.43" y2="158.83"/><line class="cls-16" x1="39.6" y1="165.67" x2="39.6" y2="151.99"/><line class="cls-16" x1="550.69" y1="185.04" x2="560.36" y2="175.37"/><line class="cls-16" x1="560.36" y1="185.04" x2="550.69" y2="175.37"/><line class="cls-15" x1="563.06" y1="129.09" x2="515.52" y2="129.09"/><line class="cls-15" x1="505.42" y1="129.09" x2="495.12" y2="129.09"/><line class="cls-16" x1="484.39" y1="129.18" x2="470.71" y2="129.18"/><line class="cls-16" x1="477.55" y1="122.34" x2="477.55" y2="136.02"/><path class="cls-17" d="M616.49,339.25a5.62,5.62,0,1,1-5.62-5.61A5.62,5.62,0,0,1,616.49,339.25Z" transform="translate(-102.13 -146.59)"/><path class="cls-17" d="M240.64,176c7.25,9.51-3.5,20.28-13,13C220.35,179.48,231.12,168.7,240.64,176Z" transform="translate(-102.13 -146.59)"/><line class="cls-16" x1="50.64" y1="53.68" x2="36.97" y2="53.68"/><line class="cls-16" x1="43.81" y1="46.84" x2="43.81" y2="60.52"/><path class="cls-17" d="M604.2,244.9a5.61,5.61,0,1,1-5.61-5.61A5.61,5.61,0,0,1,604.2,244.9Z" transform="translate(-102.13 -146.59)"/><path class="cls-17" d="M152.7,364.47a5.61,5.61,0,1,1-5.61-5.62A5.61,5.61,0,0,1,152.7,364.47Z" transform="translate(-102.13 -146.59)"/><path class="cls-17" d="M175.41,230.6a5.62,5.62,0,1,1-5.62-5.61A5.62,5.62,0,0,1,175.41,230.6Z" transform="translate(-102.13 -146.59)"/><line class="cls-16" x1="111.34" y1="131.19" x2="121.01" y2="121.52"/><line class="cls-16" x1="121.01" y1="131.19" x2="111.34" y2="121.52"/><line class="cls-15" x1="100.15" y1="126.76" x2="45.9" y2="126.76"/><line class="cls-15" x1="35.8" y1="126.76" x2="25.5" y2="126.76"/><path class="cls-4" d="M434.26,344.94l-44.45-14.16v-21H353v21l-44.45,14.16a7.49,7.49,0,0,0-5.08,7.1l.15,33H439.49l-.15-33a7.49,7.49,0,0,0-5.08-7.1" transform="translate(-102.13 -146.59)"/><line class="cls-4" x1="308.52" y1="238.51" x2="308.44" y2="227.39"/><line class="cls-4" x1="230.45" y1="238.51" x2="230.37" y2="227.39"/><path class="cls-7" d="M402.67,263.25a31,31,0,0,0-61.94,0l3,37.2a14.52,14.52,0,0,0,7.76,11.8l15,9.87h9.92l15.55-9.87a14.49,14.49,0,0,0,7.75-11.8l3-37.2" transform="translate(-102.13 -146.59)"/><polyline class="cls-4" points="312.83 129.59 312.83 147.29 308.88 152.07 282.97 152.07"/><path class="cls-18" d="M408.89,269.4v-7.47a37.67,37.67,0,0,0-75.33,0v7.47" transform="translate(-102.13 -146.59)"/><path class="cls-19" d="M400.55,289.41h0a13.3,13.3,0,1,0,2.14-26.51l-2.14,26.51" transform="translate(-102.13 -146.59)"/><ellipse class="cls-17" cx="284.32" cy="152.07" rx="4.88" ry="3.4"/><path class="cls-19" d="M342.81,289.31h0a13.3,13.3,0,1,1-2.14-26.51l2.14,26.51" transform="translate(-102.13 -146.59)"/><path class="cls-20" d="M568.84,295.8a16.37,16.37,0,0,1-21.54,20.47l-33.73,33.6a6.5,6.5,0,0,1-9.19-9.19l33.73-33.6a16.37,16.37,0,0,1,20.47-21.54l-10,10,2.17,8.09,8.09,2.17Z" transform="translate(-102.13 -146.59)"/><path class="cls-20" d="M529.25,325.83l-23.51-23.52-1.61,1.61-8.86-11.35,5.38-5.38L512,296l-1.63,1.63,23.52,23.51-4.67,4.67" transform="translate(-102.13 -146.59)"/><path class="cls-21" d="M523.18,328.32l1.48-1.49,10.27-10.26,1.48-1.48,2,2-1.48,1.48,21.16,21.16a6.18,6.18,0,0,1,0,8.72L556.51,350a6.17,6.17,0,0,1-8.72,0l-21.16-21.16-1.48,1.48Z" transform="translate(-102.13 -146.59)"/><line class="cls-14" x1="446.22" y1="193.55" x2="452.06" y2="199.39"/><line class="cls-14" x1="430.9" y1="178.23" x2="443.36" y2="190.69"/><path class="cls-8" d="M566.46,378.35V362.62a12,12,0,0,0-11.94-11.94H444.34a12,12,0,0,0-11.94,11.94v66.51H566.46Z" transform="translate(-102.13 -146.59)"/><path class="cls-7" d="M571.29,463.91V362.62a10.86,10.86,0,0,0-10.85-10.86H450.26a10.86,10.86,0,0,0-10.86,10.86V463.91Z" transform="translate(-102.13 -146.59)"/><rect class="cls-10" x="337.27" y="231.76" width="131.89" height="85.56"/><path class="cls-22" d="M560.44,351.76H450.26a10.86,10.86,0,0,0-10.86,10.86v15.73H571.29V362.62A10.86,10.86,0,0,0,560.44,351.76Z" transform="translate(-102.13 -146.59)"/><circle class="cls-2" cx="355.22" cy="219.69" r="4.45"/><circle class="cls-2" cx="372.53" cy="219.69" r="4.45"/><circle class="cls-2" cx="389.85" cy="219.69" r="4.45"/><rect class="cls-23" x="348.9" y="242.16" width="21.06" height="20.61"/><rect class="cls-23" x="377.8" y="242.16" width="21.06" height="20.61"/><rect class="cls-23" x="406.71" y="242.16" width="21.06" height="20.61"/><rect class="cls-23" x="435.53" y="242.16" width="21.06" height="20.61"/><path class="cls-14" d="M530.69,463.92v-2.39a4.21,4.21,0,0,0-4.21-4.21l-6.54,0a30.15,30.15,0,0,0-3.91-9.42l4.63-4.64a4.21,4.21,0,0,0,0-6l-3.46-3.47a4.23,4.23,0,0,0-6,0l-4.64,4.63a29.76,29.76,0,0,0-9.41-3.91V428a4.23,4.23,0,0,0-4.24-4.23h-4.89a4.23,4.23,0,0,0-4.23,4.23v6.54a30.17,30.17,0,0,0-9.29,3.82l-4.6-4.65a4.22,4.22,0,0,0-6,0l-3.48,3.44a4.23,4.23,0,0,0,0,6l4.6,4.66a29.89,29.89,0,0,0-4,9.4l-6.54,0a4.2,4.2,0,0,0-4.23,4.22l0,2.6h26.79a13.42,13.42,0,0,1,26.84,0h26.78" transform="translate(-102.13 -146.59)"/><path class="cls-8" d="M599.38,426.29a4.85,4.85,0,0,0-1.23-3.18,1.21,1.21,0,0,0-.24-.21L569,404.62a6.45,6.45,0,0,0-7.26,0L533.41,422.9a4.91,4.91,0,0,0-1.45,3.44l0,33.54a5.34,5.34,0,0,0,5.53,5.12l56.37,0a5.7,5.7,0,0,0,3.86-1.48,4.9,4.9,0,0,0,1.66-3.65Z" transform="translate(-102.13 -146.59)"/><path class="cls-7" d="M603.15,423.87a3.74,3.74,0,0,1,1,2.48l0,33.53a4.27,4.27,0,0,1-4.44,4.05l-56.37,0a4.28,4.28,0,0,1-4.45-4l0-33.54a3.85,3.85,0,0,1,1.15-2.68l28.1-18.12a5.45,5.45,0,0,1,6.08,0Z" transform="translate(-102.13 -146.59)"/><path class="cls-4" d="M603.11,423.87,575,442.08a5.31,5.31,0,0,1-6,0l-29-18.36" transform="translate(-102.13 -146.59)"/><path class="cls-4" d="M603.64,458.25l-28.77-17.73a5.63,5.63,0,0,0-6.1,0L539.09,458.4" transform="translate(-102.13 -146.59)"/><path class="cls-24" d="M575,442.06l20.45-13.23V400.41H547.7v28.14l21.35,13.51A5.31,5.31,0,0,0,575,442.06Z" transform="translate(-102.13 -146.59)"/><path class="cls-17" d="M577.21,430.82a15,15,0,0,1-6.66,1.31,11.06,11.06,0,0,1-11.36-11.47c0-7.43,5.39-13.87,13.61-13.87,6.41,0,11,4.41,11,10.52,0,5.31-3,8.66-6.91,8.66a2.85,2.85,0,0,1-3.13-2.8h-.07A5.34,5.34,0,0,1,569,426c-2.36,0-4.08-1.74-4.08-4.73a8.32,8.32,0,0,1,8.52-8.48,10.21,10.21,0,0,1,4.33.91l-1.09,6.73c-.36,2.15-.11,3.13.91,3.17,1.57,0,3.53-2,3.53-6.15,0-4.73-3.06-8.41-8.7-8.41S562,413.38,562,420.33c0,6.08,3.89,9.54,9.31,9.54a11.75,11.75,0,0,0,5.28-1.17Zm-3.24-15a4.68,4.68,0,0,0-1.13-.14c-2.4,0-4.29,2.36-4.29,5.16,0,1.39.61,2.26,1.82,2.26s2.76-1.71,3.09-3.82Z" transform="translate(-102.13 -146.59)"/><path class="cls-8" d="M292.62,287.61l23,11.52a1.86,1.86,0,0,0,.82.19,1.8,1.8,0,0,0,1.61-2.58l-11.2-23.13a40.74,40.74,0,0,0,3.49-7.27H253.68v23A41.14,41.14,0,0,0,292.62,287.61Z" transform="translate(-102.13 -146.59)"/><path class="cls-7" d="M242.93,275.56a40.24,40.24,0,1,1,62.46-6.93l11.45,23.66a.71.71,0,0,1-1,.95l-23.53-11.78A40.26,40.26,0,0,1,242.93,275.56Z" transform="translate(-102.13 -146.59)"/><path class="cls-17" d="M271.8,218.14a28.53,28.53,0,0,0-28.53,28.54,27.5,27.5,0,0,0,.3,4.08l8.8-8.8a4.84,4.84,0,0,1,6.83,0l7.32,7.35L275.8,240l-3.55-1.32a1.32,1.32,0,0,1-.87-1.31,1.34,1.34,0,0,1,1-1.24l17.43-5a1.38,1.38,0,0,1,1.31.32,1.49,1.49,0,0,1,.37,1.35l-5.07,17.55a1.42,1.42,0,0,1-1.24,1.08h0a1.48,1.48,0,0,1-1.31-1l-1.32-3.66-12.63,12.65a4.74,4.74,0,0,1-3.39,1.38,4.83,4.83,0,0,1-3.42-1.4L255.77,252,247,260.81a28.53,28.53,0,1,0,24.78-42.67Z" transform="translate(-102.13 -146.59)"/><path class="cls-8" d="M310.26,382.14a5.88,5.88,0,0,0-5.88-5.87h-9.91l-.09-5a3,3,0,0,0-3-3h-8.43a3,3,0,0,0-3,3v5h-40v-5a3,3,0,0,0-3-3h-8.43a3,3,0,0,0-3,3v5H215.17a5.88,5.88,0,0,0-5.88,5.87v47h101Z" transform="translate(-102.13 -146.59)"/><path class="cls-23" d="M204.49,459a5,5,0,0,0,5,5h89.21a5,5,0,0,0,5-5V401.74H204.49Z" transform="translate(-102.13 -146.59)"/><path class="cls-25" d="M298.66,377.19H209.45a5,5,0,0,0-5,5v19.59h99.13V382.15A5,5,0,0,0,298.66,377.19Z" transform="translate(-102.13 -146.59)"/><path class="cls-26" d="M236.81,372.24" transform="translate(-102.13 -146.59)"/><path class="cls-26" d="M219.47,372.24" transform="translate(-102.13 -146.59)"/><path class="cls-27" d="M285.63,369.17h-8.42a2.12,2.12,0,0,0-2.11,2.11v17.63h12.64V371.28A2.11,2.11,0,0,0,285.63,369.17Z" transform="translate(-102.13 -146.59)"/><path class="cls-27" d="M231.11,369.17h-8.42a2.12,2.12,0,0,0-2.11,2.11v17.63h12.64V371.28A2.11,2.11,0,0,0,231.11,369.17Z" transform="translate(-102.13 -146.59)"/><rect class="cls-28" x="114.76" y="298.9" width="10.34" height="10.34"/><rect class="cls-29" x="114.76" y="280.65" width="10.34" height="10.34"/><rect class="cls-30" x="114.76" y="262.4" width="10.34" height="10.34"/><rect class="cls-29" x="136.05" y="298.9" width="10.34" height="10.34"/><rect class="cls-28" x="136.05" y="280.65" width="10.34" height="10.34"/><rect class="cls-31" x="136.05" y="262.4" width="10.34" height="10.34"/><rect class="cls-31" x="157.35" y="298.9" width="10.34" height="10.34"/><rect class="cls-30" x="157.35" y="280.65" width="10.34" height="10.34"/><rect class="cls-28" x="157.35" y="262.4" width="10.34" height="10.34"/><rect class="cls-28" x="178.64" y="298.9" width="10.34" height="10.34"/><rect class="cls-31" x="178.64" y="280.65" width="10.34" height="10.34"/><rect class="cls-29" x="178.64" y="262.4" width="10.34" height="10.34"/></g></g></svg>