<svg viewBox="0 0 587.83 318.46"><defs><style>.cls-2{fill:#c4e9f7}.cls-23,.cls-27,.cls-3,.cls-7{fill:#fff}.cls-15,.cls-26,.cls-4{fill:none}.cls-10,.cls-14,.cls-19,.cls-20,.cls-23,.cls-26,.cls-27,.cls-31,.cls-4,.cls-7{stroke:#0074bc}.cls-10,.cls-14,.cls-15,.cls-16,.cls-19,.cls-20,.cls-4,.cls-7{stroke-linecap:round;stroke-linejoin:round}.cls-10,.cls-14,.cls-15,.cls-16,.cls-19,.cls-20,.cls-23,.cls-26,.cls-4,.cls-7{stroke-width:2.16px}.cls-15,.cls-16{stroke:#0576bc}.cls-8{fill:#8c99a1;opacity:.5;mix-blend-mode:multiply}.cls-10{fill:#f3f5f5}.cls-14,.cls-29{fill:#bfd730}.cls-16{fill:#0576bc}.cls-17,.cls-19,.cls-31{fill:#0074bc}.cls-20{fill:#d1d6d9}.cls-28{fill:#faa21b}.cls-30{fill:#57c1e9}.cls-23,.cls-26,.cls-27,.cls-28,.cls-29,.cls-30,.cls-31{stroke-miterlimit:10}.cls-27{stroke-width:1.84px}.cls-28{stroke:#faa21b}.cls-28,.cls-29,.cls-30,.cls-31{stroke-width:2.26px}.cls-29{stroke:#bfd730}.cls-30{stroke:#57c1e9}</style></defs><g style="isolation:isolate"><g id="Layer_1" data-name="Layer 1"><path d="M269.32 252.06c8.66 0 16.4-6.22 17.45-14.81A17 17 0 00270 218.19H146c-8.91 0-16.89-6.41-18-15.26a17.45 17.45 0 0117.3-19.63h460.89a17.13 17.13 0 0117.12 17.12 17.12 17.12 0 01-17.12 17.12h-52a9.83 9.83 0 01-9.83 9.84h-22c-7.47 0-14.32 5-15.79 12.31a15.54 15.54 0 0015.2 18.73h149.75c9.08 0 17.2 6.52 18.3 15.53a17.77 17.77 0 01-17.59 20l-99.5.11a15.35 15.35 0 00-15.33 15.35 15.35 15.35 0 0015.35 15.35h49.78c10.54 0 20 7.57 21.24 18A20.62 20.62 0 01623.31 366H609.4a24.79 24.79 0 00-24.79 24.79v15.13h64.48A15.1 15.1 0 01664.2 421v.39a15.57 15.57 0 01-15.56 15.65h-64v26.87H219.15v-29.6h-60a15.1 15.1 0 01-15.11-15.1v-.4a15.58 15.58 0 0115.55-15.65h74v-49.92H117.24a15.11 15.11 0 01-15.11-15.1v-.39a15.58 15.58 0 0115.56-15.65h101.83a14.08 14.08 0 0013.76-17c-1.28-6.63-7.56-11.16-14.28-11.1h-28.77a20.37 20.37 0 01-20.36-20.36v-.53a21 21 0 0121-21.09z" class="cls-2" transform="translate(-102.13 -146.59)"/><path d="M206.6 389.46h-24.4a15.68 15.68 0 01-15.66-15.65v-1.06a15.67 15.67 0 0115.23-15.65 21.68 21.68 0 0130.56-12.24 29.23 29.23 0 0156-3.49 20.44 20.44 0 0124.11 15.73h2a15.67 15.67 0 0115.65 15.65v1.06a15.67 15.67 0 01-15.65 15.65H206.6z" class="cls-2" transform="translate(-102.13 -146.59)"/><path d="M184 361.37h.55a20.34 20.34 0 0130.3-11.16 27.77 27.77 0 0153.73-3.9 19.1 19.1 0 014.93-.66 18.89 18.89 0 0118.75 15.72h3.09a14.09 14.09 0 0114.19 13.92v1a14.09 14.09 0 01-14.19 13.92H184a14.1 14.1 0 01-14.19-13.92v-1A14.1 14.1 0 01184 361.37z" class="cls-3" transform="translate(-102.13 -146.59)"/><path d="M265 389.46h29.45a15.67 15.67 0 0015.65-15.65v-1.06a15.67 15.67 0 00-15.65-15.65h-2a20.44 20.44 0 00-24.11-15.73 29.23 29.23 0 00-56 3.49 21.68 21.68 0 00-30.56 12.24 15.67 15.67 0 00-15.23 15.65v1.06a15.68 15.68 0 0015.66 15.65h29.3M255.12 351c3.91-7 9-9 14.49-9.8M245.92 331.28c-7.74-.39-14.27 2.84-19.64 8.21" class="cls-4" transform="translate(-102.13 -146.59)"/><path d="M230.35 281.48h77.36v35.57h-77.36z" style="fill:#d5effa"/><rect width="232.54" height="160.59" x="152.68" y="120.86" class="cls-4" rx="12.05"/><path d="M487.35 279.49a12.09 12.09 0 00-12.05-12.05H266.86a12.09 12.09 0 00-12.05 12.05v116.93h232.54z" class="cls-4" transform="translate(-102.13 -146.59)"/><path style="stroke:#0576bc;fill:#8f979c;stroke-width:2.16px;stroke-linecap:round;stroke-linejoin:round" d="M487.35 279.49a12.09 12.09 0 00-12.05-12.05H266.86a12.09 12.09 0 00-12.05 12.05v116.93h232.54z" transform="translate(-102.13 -146.59)"/><path d="M266.86 428H475.3a12.08 12.08 0 0012.05-12v-19.58H254.81V416a12.08 12.08 0 0012.05 12z" class="cls-7" transform="translate(-102.13 -146.59)"/><path d="M164.4 133.59h209.04V238.6H164.4z" class="cls-3"/><path d="M230.35 281.46h77.36v14.82h-77.36z" class="cls-8"/><path d="M230.35 281.46h77.36v35.73h-77.36z" style="stroke-width:2.38px;stroke-linecap:round;stroke-linejoin:round;stroke:#0074bc;fill:none"/><path d="M214.06 309.69h109.95v7.62H214.06z" class="cls-7"/><path d="M63.61 317.37h467.26M540.14 317.37h17.44M20.96 317.33h34.76" class="cls-4"/><path d="M439.34 352a7.49 7.49 0 00-5.08-7.1l-39.06-12.4c-4.89 4.45-13.88 7.43-24.17 7.43s-19-2.9-24-7.24l-38.47 12.25a7.49 7.49 0 00-5.08 7.1l.15 33h135.86z" class="cls-10" transform="translate(-102.13 -146.59)"/><path style="stroke-width:1.59px;stroke-linecap:round;stroke-linejoin:round;stroke:#0074bc;fill:#fff" d="M371 309.71c-1 0-1.93 0-2.88.08h5.76c-.88-.06-1.88-.08-2.88-.08z" transform="translate(-102.13 -146.59)"/><g style="opacity:.5;mix-blend-mode:multiply"><path style="fill:#8c99a1" d="M257.93 325.8a38.12 38.12 0 00-10-4.05v65.52h10z" transform="translate(-102.13 -146.59)"/></g><path d="M537 239.25h24.41A15.67 15.67 0 00577 223.59v-1.05a15.67 15.67 0 00-15.22-15.65 21.85 21.85 0 00-20.56-14.7 21.54 21.54 0 00-10 2.46 29.23 29.23 0 00-56-3.49 20.44 20.44 0 00-24.11 15.73h-2a15.67 15.67 0 00-15.65 15.65v1.05a15.67 15.67 0 0015.65 15.66H537z" class="cls-2" transform="translate(-102.13 -146.59)"/><path d="M559.55 211.15H559a20.17 20.17 0 00-19.4-14.3 20.41 20.41 0 00-10.9 3.15 27.76 27.76 0 00-53.7-3.9 19.18 19.18 0 00-4.94-.66 18.87 18.87 0 00-18.74 15.71h-3.1A14.1 14.1 0 00434 225.07v1A14.1 14.1 0 00448.19 240h111.36a14.1 14.1 0 0014.18-13.92v-1a14.1 14.1 0 00-14.18-13.93z" class="cls-3" transform="translate(-102.13 -146.59)"/><path d="M463.36 239.25h-14.29a15.67 15.67 0 01-15.65-15.66v-1.05a15.67 15.67 0 0115.65-15.65h2a20.44 20.44 0 0124.11-15.73 29.23 29.23 0 0156 3.49 21.54 21.54 0 0110-2.46 21.85 21.85 0 0120.56 14.7A15.67 15.67 0 01577 222.54v1.05a15.67 15.67 0 01-15.65 15.66H509M488.43 200.76c-3.91-7-9-9-14.48-9.8M497.64 181.07c7.74-.39 14.27 2.83 19.64 8.2" class="cls-4" transform="translate(-102.13 -146.59)"/><path d="M506.45 224.84h-3.73a17.32 17.32 0 00-2.24-5.38l2.64-2.65a2.4 2.4 0 000-3.41l-2-2a2.43 2.43 0 00-3.42 0l-2.64 2.64a17.16 17.16 0 00-5.38-2.23v-3.73a2.42 2.42 0 00-2.42-2.42h-2.79a2.41 2.41 0 00-2.41 2.42v3.73a17.19 17.19 0 00-5.3 2.18l-2.63-2.65a2.4 2.4 0 00-3.41 0l-2 2a2.41 2.41 0 000 3.41l2.63 2.66a17.11 17.11 0 00-2.26 5.36h-3.73a2.41 2.41 0 00-2.42 2.41v2.79a2.43 2.43 0 002.41 2.43h3.72a17.38 17.38 0 002.22 5.38l-2.65 2.64a2.41 2.41 0 000 3.41l2 2a2.41 2.41 0 003.42 0l2.65-2.63a17.44 17.44 0 005.38 2.25v3.72a2.41 2.41 0 002.4 2.43h2.8a2.41 2.41 0 002.42-2.4v-3.74a17.53 17.53 0 005.39-2.22l2.63 2.65a2.43 2.43 0 003.42 0l2-2a2.4 2.4 0 000-3.41l-2.63-2.65a17.18 17.18 0 002.24-5.38h3.73a2.42 2.42 0 002.42-2.41v-2.8a2.4 2.4 0 00-2.46-2.4zm-20.54 11.44a7.66 7.66 0 117.66-7.67 7.66 7.66 0 01-7.66 7.67z" class="cls-14" transform="translate(-102.13 -146.59)"/><path d="M219.72 21.74h92.32M270.19 5.87h146.36M319.25 21.74h15.97" class="cls-15"/><path d="M428.93 10.75l9.67-9.67M438.6 10.75l-9.67-9.67M32.76 158.83h13.67M39.6 165.67v-13.68M550.69 185.04l9.67-9.67M560.36 185.04l-9.67-9.67" class="cls-16"/><path d="M563.06 129.09h-47.54M505.42 129.09h-10.3" class="cls-15"/><path d="M484.39 129.18h-13.68M477.55 122.34v13.68" class="cls-16"/><path d="M616.49 339.25a5.62 5.62 0 11-5.62-5.61 5.62 5.62 0 015.62 5.61zM240.64 176c7.25 9.51-3.5 20.28-13 13-7.29-9.52 3.48-20.3 13-13z" class="cls-17" transform="translate(-102.13 -146.59)"/><path d="M50.64 53.68H36.97M43.81 46.84v13.68" class="cls-16"/><path d="M604.2 244.9a5.61 5.61 0 11-5.61-5.61 5.61 5.61 0 015.61 5.61zM152.7 364.47a5.61 5.61 0 11-5.61-5.62 5.61 5.61 0 015.61 5.62zM175.41 230.6a5.62 5.62 0 11-5.62-5.61 5.62 5.62 0 015.62 5.61z" class="cls-17" transform="translate(-102.13 -146.59)"/><path d="M111.34 131.19l9.67-9.67M121.01 131.19l-9.67-9.67" class="cls-16"/><path d="M100.15 126.76H45.9M35.8 126.76H25.5" class="cls-15"/><path d="M434.26 344.94l-44.45-14.16v-21H353v21l-44.45 14.16a7.49 7.49 0 00-5.08 7.1l.15 33h135.87l-.15-33a7.49 7.49 0 00-5.08-7.1" class="cls-4" transform="translate(-102.13 -146.59)"/><path d="M308.52 238.51l-.08-11.12M230.45 238.51l-.08-11.12" class="cls-4"/><path d="M402.67 263.25a31 31 0 00-61.94 0l3 37.2a14.52 14.52 0 007.76 11.8l15 9.87h9.92l15.55-9.87a14.49 14.49 0 007.75-11.8l3-37.2" class="cls-7" transform="translate(-102.13 -146.59)"/><path d="M312.83 129.59v17.7l-3.95 4.78h-25.91" class="cls-4"/><path style="stroke-width:4.33px;stroke-linecap:round;stroke-linejoin:round;stroke:#0074bc;fill:none" d="M408.89 269.4v-7.47a37.67 37.67 0 00-75.33 0v7.47" transform="translate(-102.13 -146.59)"/><path d="M400.55 289.41a13.3 13.3 0 102.14-26.51l-2.14 26.51" class="cls-19" transform="translate(-102.13 -146.59)"/><ellipse cx="284.32" cy="152.07" class="cls-17" rx="4.88" ry="3.4"/><path d="M342.81 289.31a13.3 13.3 0 11-2.14-26.51l2.14 26.51" class="cls-19" transform="translate(-102.13 -146.59)"/><path d="M568.84 295.8a16.37 16.37 0 01-21.54 20.47l-33.73 33.6a6.5 6.5 0 01-9.19-9.19l33.73-33.6a16.37 16.37 0 0120.47-21.54l-10 10 2.17 8.09 8.09 2.17z" class="cls-20" transform="translate(-102.13 -146.59)"/><path d="M529.25 325.83l-23.51-23.52-1.61 1.61-8.86-11.35 5.38-5.38L512 296l-1.63 1.63 23.52 23.51-4.67 4.67" class="cls-20" transform="translate(-102.13 -146.59)"/><path style="fill:#faa21b;stroke-width:2.16px;stroke-linecap:round;stroke-linejoin:round;stroke:#0074bc" d="M523.18 328.32l1.48-1.49 10.27-10.26 1.48-1.48 2 2-1.48 1.48 21.16 21.16a6.18 6.18 0 010 8.72l-1.58 1.55a6.17 6.17 0 01-8.72 0l-21.16-21.16-1.48 1.48z" transform="translate(-102.13 -146.59)"/><path d="M446.22 193.55l5.84 5.84M430.9 178.23l12.46 12.46" class="cls-14"/><path d="M566.46 378.35v-15.73a12 12 0 00-11.94-11.94H444.34a12 12 0 00-11.94 11.94v66.51h134.06z" class="cls-8" transform="translate(-102.13 -146.59)"/><path d="M571.29 463.91V362.62a10.86 10.86 0 00-10.85-10.86H450.26a10.86 10.86 0 00-10.86 10.86v101.29z" class="cls-7" transform="translate(-102.13 -146.59)"/><path d="M337.27 231.76h131.89v85.56H337.27z" class="cls-10"/><path style="fill:#57c1e9;stroke-width:2.16px;stroke-linecap:round;stroke-linejoin:round;stroke:#0074bc" d="M560.44 351.76H450.26a10.86 10.86 0 00-10.86 10.86v15.73h131.89v-15.73a10.86 10.86 0 00-10.85-10.86z" transform="translate(-102.13 -146.59)"/><circle cx="355.22" cy="219.69" r="4.45" class="cls-2"/><circle cx="372.53" cy="219.69" r="4.45" class="cls-2"/><circle cx="389.85" cy="219.69" r="4.45" class="cls-2"/><path d="M348.9 242.16h21.06v20.61H348.9zM377.8 242.16h21.06v20.61H377.8zM406.71 242.16h21.06v20.61h-21.06zM435.53 242.16h21.06v20.61h-21.06z" class="cls-23"/><path d="M530.69 463.92v-2.39a4.21 4.21 0 00-4.21-4.21h-6.54a30.15 30.15 0 00-3.91-9.42l4.63-4.64a4.21 4.21 0 000-6l-3.46-3.47a4.23 4.23 0 00-6 0l-4.64 4.63a29.76 29.76 0 00-9.41-3.91V428a4.23 4.23 0 00-4.24-4.23h-4.89a4.23 4.23 0 00-4.23 4.23v6.54a30.17 30.17 0 00-9.29 3.82l-4.6-4.65a4.22 4.22 0 00-6 0l-3.48 3.44a4.23 4.23 0 000 6l4.6 4.66a29.89 29.89 0 00-4 9.4h-6.54a4.2 4.2 0 00-4.23 4.22v2.6h26.79a13.42 13.42 0 0126.84 0h26.78" class="cls-14" transform="translate(-102.13 -146.59)"/><path d="M599.38 426.29a4.85 4.85 0 00-1.23-3.18 1.21 1.21 0 00-.24-.21L569 404.62a6.45 6.45 0 00-7.26 0l-28.33 18.28a4.91 4.91 0 00-1.45 3.44v33.54a5.34 5.34 0 005.53 5.12h56.37a5.7 5.7 0 003.86-1.48 4.9 4.9 0 001.66-3.65z" class="cls-8" transform="translate(-102.13 -146.59)"/><path d="M603.15 423.87a3.74 3.74 0 011 2.48v33.53a4.27 4.27 0 01-4.44 4.05h-56.37a4.28 4.28 0 01-4.45-4v-33.54a3.85 3.85 0 011.15-2.68l28.1-18.12a5.45 5.45 0 016.08 0z" class="cls-7" transform="translate(-102.13 -146.59)"/><path d="M603.11 423.87L575 442.08a5.31 5.31 0 01-6 0l-29-18.36" class="cls-4" transform="translate(-102.13 -146.59)"/><path d="M603.64 458.25l-28.77-17.73a5.63 5.63 0 00-6.1 0l-29.68 17.88" class="cls-4" transform="translate(-102.13 -146.59)"/><path style="fill:#fee8c6;stroke-width:2.16px;stroke-linecap:round;stroke-linejoin:round;stroke:#0074bc" d="M575 442.06l20.45-13.23v-28.42H547.7v28.14l21.35 13.51a5.31 5.31 0 005.95 0z" transform="translate(-102.13 -146.59)"/><path d="M577.21 430.82a15 15 0 01-6.66 1.31 11.06 11.06 0 01-11.36-11.47c0-7.43 5.39-13.87 13.61-13.87 6.41 0 11 4.41 11 10.52 0 5.31-3 8.66-6.91 8.66a2.85 2.85 0 01-3.13-2.8h-.07A5.34 5.34 0 01569 426c-2.36 0-4.08-1.74-4.08-4.73a8.32 8.32 0 018.52-8.48 10.21 10.21 0 014.33.91l-1.09 6.73c-.36 2.15-.11 3.13.91 3.17 1.57 0 3.53-2 3.53-6.15 0-4.73-3.06-8.41-8.7-8.41S562 413.38 562 420.33c0 6.08 3.89 9.54 9.31 9.54a11.75 11.75 0 005.28-1.17zm-3.24-15a4.68 4.68 0 00-1.13-.14c-2.4 0-4.29 2.36-4.29 5.16 0 1.39.61 2.26 1.82 2.26s2.76-1.71 3.09-3.82z" class="cls-17" transform="translate(-102.13 -146.59)"/><path d="M292.62 287.61l23 11.52a1.86 1.86 0 00.82.19 1.8 1.8 0 001.61-2.58l-11.2-23.13a40.74 40.74 0 003.49-7.27h-56.66v23a41.14 41.14 0 0038.94-1.73z" class="cls-8" transform="translate(-102.13 -146.59)"/><path d="M242.93 275.56a40.24 40.24 0 1162.46-6.93l11.45 23.66a.71.71 0 01-1 .95l-23.53-11.78a40.26 40.26 0 01-49.38-5.9z" class="cls-7" transform="translate(-102.13 -146.59)"/><path d="M271.8 218.14a28.53 28.53 0 00-28.53 28.54 27.5 27.5 0 00.3 4.08l8.8-8.8a4.84 4.84 0 016.83 0l7.32 7.35 9.28-9.31-3.55-1.32a1.32 1.32 0 01-.87-1.31 1.34 1.34 0 011-1.24l17.43-5a1.38 1.38 0 011.31.32 1.49 1.49 0 01.37 1.35l-5.07 17.55a1.42 1.42 0 01-1.24 1.08 1.48 1.48 0 01-1.31-1l-1.32-3.66-12.63 12.65a4.74 4.74 0 01-3.39 1.38 4.83 4.83 0 01-3.42-1.4l-7.34-7.4-8.77 8.81a28.53 28.53 0 1024.78-42.67z" class="cls-17" transform="translate(-102.13 -146.59)"/><path d="M310.26 382.14a5.88 5.88 0 00-5.88-5.87h-9.91l-.09-5a3 3 0 00-3-3h-8.43a3 3 0 00-3 3v5h-40v-5a3 3 0 00-3-3h-8.43a3 3 0 00-3 3v5h-10.35a5.88 5.88 0 00-5.88 5.87v47h101z" class="cls-8" transform="translate(-102.13 -146.59)"/><path d="M204.49 459a5 5 0 005 5h89.21a5 5 0 005-5v-57.26h-99.21z" class="cls-23" transform="translate(-102.13 -146.59)"/><path style="stroke-miterlimit:10;fill:#0074bc;stroke-width:2.16px;stroke:#0074bc" d="M298.66 377.19h-89.21a5 5 0 00-5 5v19.59h99.13v-19.63a5 5 0 00-4.92-4.96z" transform="translate(-102.13 -146.59)"/><path d="M285.63 369.17h-8.42a2.12 2.12 0 00-2.11 2.11v17.63h12.64v-17.63a2.11 2.11 0 00-2.11-2.11zM231.11 369.17h-8.42a2.12 2.12 0 00-2.11 2.11v17.63h12.64v-17.63a2.11 2.11 0 00-2.11-2.11z" class="cls-27" transform="translate(-102.13 -146.59)"/><path d="M114.76 298.9h10.34v10.34h-10.34z" class="cls-28"/><path d="M114.76 280.65h10.34v10.34h-10.34z" class="cls-29"/><path d="M114.76 262.4h10.34v10.34h-10.34z" class="cls-30"/><path d="M136.05 298.9h10.34v10.34h-10.34z" class="cls-29"/><path d="M136.05 280.65h10.34v10.34h-10.34z" class="cls-28"/><path d="M136.05 262.4h10.34v10.34h-10.34zM157.35 298.9h10.34v10.34h-10.34z" class="cls-31"/><path d="M157.35 280.65h10.34v10.34h-10.34z" class="cls-30"/><path d="M157.35 262.4h10.34v10.34h-10.34zM178.64 298.9h10.34v10.34h-10.34z" class="cls-28"/><path d="M178.64 280.65h10.34v10.34h-10.34z" class="cls-31"/><path d="M178.64 262.4h10.34v10.34h-10.34z" class="cls-29"/></g></g></svg>