<svg id="Layer_1" data-name="Layer 1" xmlns="http://www.w3.org/2000/svg" viewBox="0 0 94.15 94.15"><defs><style>.cls-1{fill:#57c1e8;}</style></defs><title>commission engine</title><path class="cls-1" d="M441.69,314.92l-5-2.52-1-1.91a38.92,38.92,0,0,0,0-8.83l1-1.91,5-2.52,1.46-3.93-4.75-11.48-3.82-1.75-5.32,1.77-2.06-.64A40.09,40.09,0,0,0,421,275l-.65-2.06,1.78-5.33-1.74-3.82L408.85,259l-3.93,1.46-2.51,5-1.92,1a39.5,39.5,0,0,0-8.83,0l-1.91-1-2.51-5L383.31,259l-11.48,4.75-1.75,3.82,1.78,5.32-.65,2.06A40.09,40.09,0,0,0,365,281.2l-2.06.65-5.33-1.78-3.82,1.75L349,293.3l1.47,3.93,5,2.51,1,1.92a39.5,39.5,0,0,0,0,8.83l-1,1.91-5,2.52L349,318.85l4.76,11.48,3.82,1.74,5.32-1.77L365,331a39.66,39.66,0,0,0,6.25,6.24l.64,2.06-1.77,5.33,1.74,3.81,11.49,4.76,3.93-1.47,2.51-5,1.92-1a39.41,39.41,0,0,0,8.82,0l1.92,1,2.51,5,3.93,1.47,11.49-4.76,1.74-3.81-1.77-5.32.65-2.07a39.18,39.18,0,0,0,6.23-6.25l2.06-.64,5.33,1.78,3.82-1.75,4.76-11.48Zm-5,13.8-2.27,1L429.27,328l-3.36,1.05-.21.27a37.35,37.35,0,0,1-6.34,6.35l-.26.21L418,339.28l1.72,5.17-1,2.27-9.92,4.11-2.33-.87L404,345.08l-3.13-1.64-.33,0a37.47,37.47,0,0,1-9,0l-.33,0-3.13,1.63L385.69,350l-2.34.87-9.91-4.11-1-2.27,1.72-5.18-1-3.36-.27-.21a37.83,37.83,0,0,1-6.36-6.35l-.2-.26L362.88,328l-5.18,1.73-2.27-1-4.1-9.92.87-2.33,4.88-2.45,1.63-3.12,0-.33a38,38,0,0,1,0-9l0-.34-1.63-3.12-4.89-2.45-.87-2.34,4.1-9.91,2.27-1,5.19,1.73,3.36-1.06.21-.26a37.46,37.46,0,0,1,6.35-6.36l.26-.2,1.05-3.37-1.72-5.18,1-2.27,9.91-4.1,2.34.87,2.44,4.88,3.12,1.63.33,0a37.55,37.55,0,0,1,9,0l.33.05,3.13-1.65,2.44-4.88,2.34-.87,9.92,4.1,1,2.27L418,272.88l1.06,3.37.26.2a37.77,37.77,0,0,1,6.36,6.34l.2.27,3.37,1.05,5.18-1.72,2.27,1,4.1,9.91-.87,2.34-4.88,2.45-1.63,3.12,0,.33a37,37,0,0,1,0,9l0,.34,1.64,3.12,4.88,2.45.87,2.34Z" transform="translate(-349 -259)"/><path class="cls-1" d="M396.05,277.77a28,28,0,1,0,28.08,28A28.1,28.1,0,0,0,396.05,277.77Zm0,53.92A25.88,25.88,0,1,1,422,305.81,25.93,25.93,0,0,1,396.05,331.69Z" transform="translate(-349 -259)"/><path class="cls-1" d="M393,297h5.54a3.85,3.85,0,0,1,3.84,3.83,1.08,1.08,0,0,0,1.08,1.08h0a1.08,1.08,0,0,0,1.08-1.08,6,6,0,0,0-6-6h-1.37v-6.28a1.08,1.08,0,0,0-2.16,0v6.28h-2a5.36,5.36,0,0,0-1.69,10.45l8.88,3a3.2,3.2,0,0,1-1,6.24h-5.55a3.83,3.83,0,0,1-3.82-3.83,1.1,1.1,0,0,0-1.08-1.09h0a1.08,1.08,0,0,0-1.08,1.08,6,6,0,0,0,6,6H395V323a1.08,1.08,0,0,0,2.16,0v-6.28h2a5.36,5.36,0,0,0,1.7-10.45l-8.89-3a3.2,3.2,0,0,1,1-6.24Z" transform="translate(-349 -259)"/></svg>