<svg id="Layer_1" data-name="Layer 1" xmlns="http://www.w3.org/2000/svg" viewBox="0 0 80.45 94.34"><defs><style>.cls-1{fill:#58c1e8;}</style></defs><title>corporate icon</title><path class="cls-1" d="M426,328.27l-9.54-4.49L410.69,318a1.09,1.09,0,0,0-.76-.32h-.88v-6.13c3.59-2,7.83-5.29,7.83-10.59v-3.54l1.84-2.33a5,5,0,0,0,2.08-4.06v-7.69a1.08,1.08,0,0,0-.6-1l-3.32-1.66v-3.25h0a18.71,18.71,0,0,0-18.69-18.69h-3.92a18.71,18.71,0,0,0-18.7,18.69v3.25l-3.31,1.66a1.06,1.06,0,0,0-.6,1v7.69a5,5,0,0,0,2.07,4.05l1.84,2.34V301c0,5.3,4.25,8.63,7.83,10.59v6.13h-.88a1.09,1.09,0,0,0-.76.32L376,323.78l-9.54,4.49c-5.87,1.56-10.37,5.88-10.48,10.11v13.7a1.09,1.09,0,0,0,2.17,0V338.4c.09-3.24,4-6.78,9-8.06l.19-.07,9.05-4.26,9.25,11.1a1.06,1.06,0,0,0,.83.39,1.09,1.09,0,0,0,.68-.24l2.56-2.05,1.52,7.06-1.89,7.59a1.08,1.08,0,1,0,2.09.52l1.76-7h6.14l1.75,7a1.08,1.08,0,0,0,1.05.82,1.15,1.15,0,0,0,.26,0,1.08,1.08,0,0,0,.79-1.31l-1.9-7.59,1.53-7.06,2.56,2.05a1.08,1.08,0,0,0,.67.24,1.06,1.06,0,0,0,.83-.39L416.1,326l9,4.26.19.07c4.95,1.28,8.88,4.82,9,8v13.7a1.09,1.09,0,0,0,2.17,0V338.35C436.35,334.15,431.85,329.83,426,328.27ZM377.73,301v-3.92a1.06,1.06,0,0,0-.23-.66l-2.17-2.76a1.09,1.09,0,0,0-.25-.23,2.83,2.83,0,0,1-1.26-2.36v-7l3.31-1.66a1.06,1.06,0,0,0,.6-1v-3.92A16.55,16.55,0,0,1,394.27,261h3.92a16.55,16.55,0,0,1,16.53,16.53v3.91a1.1,1.1,0,0,0,.6,1l3.32,1.66v7a2.82,2.82,0,0,1-1.26,2.36,1.1,1.1,0,0,0-.25.23L415,296.42a1.07,1.07,0,0,0-.24.66V301c0,6-7.41,9.17-10.21,10.36-.41.18-.73.31-1,.43a15.53,15.53,0,0,1-14.67,0c-.21-.11-.53-.24-.94-.42C385.15,310.17,377.73,307,377.73,301Zm9.37,12.35c.35.15.64.27.79.35a17.66,17.66,0,0,0,16.65,0c.18-.09.46-.21.82-.36l1.53-.67v5.62l-10.66,8.88-10.67-8.88v-5.62Zm-.51,21.57-8.48-10.18,4.86-4.86h1.12l10.43,8.69-4.61,3.69a1.09,1.09,0,0,0-.44.35Zm12.68,6.29h-6.08l-1.63-7.51,4.67-3.73,4.66,3.73Zm6.59-6.29L403,332.61a1.06,1.06,0,0,0-.43-.35l-4.61-3.69,10.42-8.69h1.12l4.86,4.86Z" transform="translate(-356 -258.82)"/></svg>