<svg data-name="Layer 1" viewBox="0 0 80.45 94.34"><path style="fill:#58c1e8" d="M70 69.45l-9.54-4.49-5.77-5.78a1.09 1.09 0 00-.76-.32h-.88v-6.13c3.59-2 7.83-5.29 7.83-10.59V38.6l1.84-2.33a5 5 0 002.08-4.06v-7.69a1.08 1.08 0 00-.6-1l-3.32-1.66v-3.25A18.71 18.71 0 0042.19-.08h-3.92a18.71 18.71 0 00-18.7 18.69v3.25l-3.31 1.66a1.06 1.06 0 00-.6 1v7.69a5 5 0 002.07 4.05l1.84 2.34v3.58c0 5.3 4.25 8.63 7.83 10.59v6.13h-.88a1.09 1.09 0 00-.76.32L20 64.96l-9.54 4.49C4.59 71.01.09 75.33-.02 79.56v13.7a1.09 1.09 0 002.17 0V79.58c.09-3.24 4-6.78 9-8.06l.19-.07 9.05-4.26 9.25 11.1a1.06 1.06 0 00.83.39 1.09 1.09 0 00.68-.24l2.56-2.05 1.52 7.06-1.89 7.59a1.08 1.08 0 102.09.52l1.76-7h6.14l1.75 7a1.08 1.08 0 001.05.82 1.15 1.15 0 00.26 0 1.08 1.08 0 00.79-1.31l-1.9-7.59 1.53-7.06 2.56 2.05a1.08 1.08 0 00.67.24 1.06 1.06 0 00.83-.39l9.23-11.14 9 4.26.19.07c4.95 1.28 8.88 4.82 9 8v13.7a1.09 1.09 0 002.17 0V79.53c-.11-4.2-4.61-8.52-10.46-10.08zM21.73 42.18v-3.92a1.06 1.06 0 00-.23-.66l-2.17-2.76a1.09 1.09 0 00-.25-.23 2.83 2.83 0 01-1.26-2.36v-7l3.31-1.66a1.06 1.06 0 00.6-1v-3.92A16.55 16.55 0 0138.27 2.18h3.92a16.55 16.55 0 0116.53 16.53v3.91a1.1 1.1 0 00.6 1l3.32 1.66v7a2.82 2.82 0 01-1.26 2.36 1.1 1.1 0 00-.25.23L59 37.6a1.07 1.07 0 00-.24.66v3.92c0 6-7.41 9.17-10.21 10.36-.41.18-.73.31-1 .43a15.53 15.53 0 01-14.67 0c-.21-.11-.53-.24-.94-.42-2.79-1.2-10.21-4.37-10.21-10.37zm9.37 12.35c.35.15.64.27.79.35a17.66 17.66 0 0016.65 0c.18-.09.46-.21.82-.36l1.53-.67v5.62l-10.66 8.88-10.67-8.88v-5.62zm-.51 21.57l-8.48-10.18 4.86-4.86h1.12l10.43 8.69-4.61 3.69a1.09 1.09 0 00-.44.35zm12.68 6.29h-6.08l-1.63-7.51 4.67-3.73 4.66 3.73zm6.59-6.29L47 73.79a1.06 1.06 0 00-.43-.35l-4.61-3.69 10.42-8.69h1.12l4.86 4.86z"/></svg>