<?xml version="1.0" encoding="UTF-8" standalone="no"?><!DOCTYPE svg PUBLIC "-//W3C//DTD SVG 1.1//EN" "http://www.w3.org/Graphics/SVG/1.1/DTD/svg11.dtd"><svg width="100%" height="100%" viewBox="0 0 52 50" version="1.1" xmlns="http://www.w3.org/2000/svg" xmlns:xlink="http://www.w3.org/1999/xlink" xml:space="preserve" xmlns:serif="http://www.serif.com/" style="fill-rule:evenodd;clip-rule:evenodd;stroke-linejoin:round;stroke-miterlimit:2;"><path d="M41.86,22.77c-5.47,0.023 -9.959,4.53 -9.959,10c0,2.617 1.027,5.131 2.859,7l-8.32,8.31c-0.198,0.167 -0.313,0.414 -0.313,0.673c0,0.483 0.397,0.88 0.88,0.88c0.259,0 0.506,-0.115 0.673,-0.313l8.43,-8.41c1.698,1.216 3.734,1.87 5.822,1.87c5.486,0 10,-4.514 10,-10c0,-5.486 -4.514,-10 -10,-10c-0.024,0 -0.048,0 -0.072,0l0,-0.01Zm0,18.22c-1.874,-0.002 -3.691,-0.644 -5.15,-1.82c-1.459,-1.176 0,-0.05 0,-0.07c-0.05,-0.046 -0.108,-0.083 -0.17,-0.11c-1.806,-1.561 -2.846,-3.833 -2.846,-6.22c0,-4.509 3.711,-8.22 8.22,-8.22c4.509,0 8.22,3.711 8.22,8.22c0,4.509 -3.711,8.22 -8.22,8.22c-0.005,0 -0.009,0 -0.014,0l-0.04,0Z" style="fill-rule:nonzero;"/><path d="M18.22,36.43l0,8.57l8.84,0c0.031,0.003 0.062,0.005 0.094,0.005c0.482,0 0.88,-0.397 0.88,-0.88c0,-0.483 -0.398,-0.88 -0.88,-0.88c-0.032,0 -0.063,0.002 -0.094,0.005l-7.06,0l0,-5.08l10.51,0c0.445,-0.048 0.786,-0.427 0.786,-0.875c0,-0.448 -0.341,-0.827 -0.786,-0.875l-3.71,0l0,-5.69l-9.11,0l0,-3.93l6.83,0l0,-8.58l-6.83,0l0,-4l17.6,0l0,4l-6.83,0l0,8.58l3.15,0c0.031,0.003 0.062,0.005 0.094,0.005c0.482,0 0.88,-0.397 0.88,-0.88c0,-0.483 -0.398,-0.88 -0.88,-0.88c-0.032,0 -0.063,0.002 -0.094,0.005l-1.4,0l0,-5.05l11.91,0l0,1.4c0.048,0.445 0.427,0.786 0.875,0.786c0.448,0 0.827,-0.341 0.875,-0.786l0,-3.15l-6.87,0l0,-5.7l-10.2,0l0,-3.94l6.83,0l0,-8.61l-15.41,0l0,8.58l6.83,0l0,3.94l-9.11,0l0,5.7l-6.83,0l0,8.58l6.83,0l0,3.94l-9.11,0l0,5.69l-6.83,0l0,8.57l15.41,0l0,-8.58l-6.83,0l0,-3.94l16.47,0l0,3.94l-6.83,0.01Zm1.78,-34.68l11.91,0l0,5.08l-11.91,0l0,-5.08Zm-9.14,18.25l11.91,0l0,5.08l-11.91,0l0,-5.08Zm2.8,23.29l-11.91,0l0,-5.08l11.91,0l0,5.08Z" style="fill-rule:nonzero;"/></svg>