<svg style="fill-rule:evenodd;clip-rule:evenodd;stroke-linejoin:round;stroke-miterlimit:2" viewBox="0 0 52 50"><path style="fill-rule:nonzero" d="M41.86 22.77c-5.47.023-9.959 4.53-9.959 10 0 2.617 1.027 5.131 2.859 7l-8.32 8.31a.882.882 0 00-.313.673c0 .483.397.88.88.88a.882.882 0 00.673-.313l8.43-8.41a10 10 0 005.822 1.87c5.486 0 10-4.514 10-10s-4.514-10-10-10h-.072v-.01zm0 18.22a8.22 8.22 0 01-5.15-1.82c-1.459-1.176 0-.05 0-.07a.612.612 0 00-.17-.11 8.226 8.226 0 01-2.846-6.22c0-4.509 3.711-8.22 8.22-8.22s8.22 3.711 8.22 8.22-3.711 8.22-8.22 8.22h-.054z"/><path style="fill-rule:nonzero" d="M18.22 36.43V45h8.84a.885.885 0 00.974-.875.885.885 0 00-.974-.875H20v-5.08h10.51a.883.883 0 00.786-.875.883.883 0 00-.786-.875H26.8v-5.69h-9.11V26.8h6.83v-8.58h-6.83v-4h17.6v4h-6.83v8.58h3.15a.885.885 0 00.974-.875.885.885 0 00-.974-.875h-1.4V20h11.91v1.4a.883.883 0 00.875.786.883.883 0 00.875-.786v-3.15H37v-5.7H26.8V8.61h6.83V0H18.22v8.58h6.83v3.94h-9.11v5.7H9.11v8.58h6.83v3.94H6.83v5.69H0V45h15.41v-8.58H8.58v-3.94h16.47v3.94l-6.83.01zM20 1.75h11.91v5.08H20V1.75zM10.86 20h11.91v5.08H10.86V20zm2.8 23.29H1.75v-5.08h11.91v5.08z"/></svg>