<svg id="Layer_1" data-name="Layer 1" xmlns="http://www.w3.org/2000/svg" viewBox="0 0 89.78 96.49"><defs><style>.cls-1{fill:#58c1e8;}</style></defs><title>distributors icon</title><path class="cls-1" d="M374.57,324.42H354.16V260.16h48.63v18.46a1.08,1.08,0,0,0,2.16,0V259.08a1.08,1.08,0,0,0-1.08-1.08H353.08a1.08,1.08,0,0,0-1.08,1.08V325.5a1.08,1.08,0,0,0,1.08,1.08h21.49a1.08,1.08,0,1,0,0-2.16Z" transform="translate(-352 -258)"/><path class="cls-1" d="M368.71,291.42a1.09,1.09,0,0,0,1.08-1.08V274.71a1.08,1.08,0,0,0-1.08-1.08h-7.82a1.08,1.08,0,0,0-1.08,1.08v15.63a1.08,1.08,0,0,0,2.16,0V275.79h5.66v14.55A1.08,1.08,0,0,0,368.71,291.42Z" transform="translate(-352 -258)"/><path class="cls-1" d="M383.46,278.62V266.9a1.08,1.08,0,0,0-1.08-1.09h-7.81a1.08,1.08,0,0,0-1.08,1.09v23.44a1.08,1.08,0,0,0,2.16,0V268h5.65v10.64a1.08,1.08,0,0,0,2.16,0Z" transform="translate(-352 -258)"/><path class="cls-1" d="M396.06,279.7a1.08,1.08,0,0,0,1.08-1.08v-5.87a1.08,1.08,0,0,0-1.08-1.08h-7.81a1.08,1.08,0,0,0-1.08,1.08v5.87a1.08,1.08,0,0,0,2.16,0v-4.79H395v4.79A1.08,1.08,0,0,0,396.06,279.7Z" transform="translate(-352 -258)"/><path class="cls-1" d="M376.52,297.07H358.94a1.08,1.08,0,1,0,0,2.16h17.58a1.08,1.08,0,1,0,0-2.16Z" transform="translate(-352 -258)"/><path class="cls-1" d="M374.57,304.89H360.9a1.08,1.08,0,0,0-1.09,1.08v9.77a1.09,1.09,0,0,0,1.09,1.08h13.67a1.08,1.08,0,0,0,1.08-1.08V306A1.08,1.08,0,0,0,374.57,304.89Zm-1.08,9.77H362v-7.61h11.51Z" transform="translate(-352 -258)"/><path class="cls-1" d="M385.67,313H386v3.15a2.42,2.42,0,0,0,.73,1.76,2.56,2.56,0,0,0,1.76.74,2.5,2.5,0,0,0,1.82-.79l5.64-4.86h2.42a1.08,1.08,0,1,0,0-2.16h-2.82a1,1,0,0,0-.7.26l-6,5.16-.11.11a.33.33,0,0,1-.25.12.27.27,0,0,1-.24-.1.39.39,0,0,1-.09-.24v-4.23a1.08,1.08,0,0,0-1.08-1.08h-1.41a1.76,1.76,0,0,1-1.75-1.75V289.31a1.74,1.74,0,0,1,1.74-1.74h33.88a1.74,1.74,0,0,1,1.74,1.74V300.6a1.08,1.08,0,1,0,2.16,0V289.31a3.89,3.89,0,0,0-3.9-3.9H385.65a3.91,3.91,0,0,0-3.9,3.9v19.75A3.92,3.92,0,0,0,385.67,313Z" transform="translate(-352 -258)"/><path class="cls-1" d="M437.88,302.34H404a3.91,3.91,0,0,0-3.9,3.9v22.59a3.91,3.91,0,0,0,3.9,3.9h23.6l5.64,4.85a2.46,2.46,0,0,0,1.81.79h0a2.49,2.49,0,0,0,2.49-2.49v-3.15h.32a3.92,3.92,0,0,0,3.91-3.91V306.24A3.91,3.91,0,0,0,437.88,302.34Zm1.74,26.48a1.76,1.76,0,0,1-1.75,1.75h-1.4a1.08,1.08,0,0,0-1.08,1.08v4.23a.33.33,0,0,1-.1.23.29.29,0,0,1-.23.1.33.33,0,0,1-.25-.11,1.14,1.14,0,0,0-.11-.11l-6-5.16a1,1,0,0,0-.7-.26H404a1.74,1.74,0,0,1-1.74-1.74V306.24A1.74,1.74,0,0,1,404,304.5h33.88a1.74,1.74,0,0,1,1.74,1.74Z" transform="translate(-352 -258)"/><path class="cls-1" d="M422.35,333.39a1.08,1.08,0,0,0-1.08,1.08V345a1.74,1.74,0,0,1-1.74,1.74h-24a1.08,1.08,0,0,0-.7.26l-6,5.16-.11.11a.33.33,0,0,1-.25.11h0a.33.33,0,0,1-.33-.33v-4.23a1.08,1.08,0,0,0-1.08-1.08h-1.4a1.76,1.76,0,0,1-1.75-1.75V328a1.74,1.74,0,0,1,1.74-1.74h12.7a1.08,1.08,0,0,0,0-2.16h-12.7a3.91,3.91,0,0,0-3.9,3.9v16.94a3.91,3.91,0,0,0,3.91,3.91H386V352a2.49,2.49,0,0,0,2.49,2.49h0a2.51,2.51,0,0,0,1.81-.78l5.65-4.86h23.58a3.91,3.91,0,0,0,3.9-3.91V334.47A1.08,1.08,0,0,0,422.35,333.39Z" transform="translate(-352 -258)"/></svg>