<svg data-name="Layer 1" viewBox="0 0 89.78 96.49"><defs><style>.cls-1{fill:#58c1e8}</style></defs><path d="M374.57 324.42h-20.41v-64.26h48.63v18.46a1.08 1.08 0 002.16 0v-19.54a1.08 1.08 0 00-1.08-1.08h-50.79a1.08 1.08 0 00-1.08 1.08v66.42a1.08 1.08 0 001.08 1.08h21.49a1.08 1.08 0 100-2.16z" class="cls-1" transform="translate(-352 -258)"/><path d="M368.71 291.42a1.09 1.09 0 001.08-1.08v-15.63a1.08 1.08 0 00-1.08-1.08h-7.82a1.08 1.08 0 00-1.08 1.08v15.63a1.08 1.08 0 002.16 0v-14.55h5.66v14.55a1.08 1.08 0 001.08 1.08zM383.46 278.62V266.9a1.08 1.08 0 00-1.08-1.09h-7.81a1.08 1.08 0 00-1.08 1.09v23.44a1.08 1.08 0 002.16 0V268h5.65v10.64a1.08 1.08 0 002.16 0zM396.06 279.7a1.08 1.08 0 001.08-1.08v-5.87a1.08 1.08 0 00-1.08-1.08h-7.81a1.08 1.08 0 00-1.08 1.08v5.87a1.08 1.08 0 002.16 0v-4.79H395v4.79a1.08 1.08 0 001.06 1.08zM376.52 297.07h-17.58a1.08 1.08 0 100 2.16h17.58a1.08 1.08 0 100-2.16zM374.57 304.89H360.9a1.08 1.08 0 00-1.09 1.08v9.77a1.09 1.09 0 001.09 1.08h13.67a1.08 1.08 0 001.08-1.08V306a1.08 1.08 0 00-1.08-1.11zm-1.08 9.77H362v-7.61h11.51zM385.67 313h.33v3.15a2.42 2.42 0 00.73 1.76 2.56 2.56 0 001.76.74 2.5 2.5 0 001.82-.79l5.64-4.86h2.42a1.08 1.08 0 100-2.16h-2.82a1 1 0 00-.7.26l-6 5.16-.11.11a.33.33 0 01-.25.12.27.27 0 01-.24-.1.39.39 0 01-.09-.24v-4.23a1.08 1.08 0 00-1.08-1.08h-1.41a1.76 1.76 0 01-1.75-1.75v-19.78a1.74 1.74 0 011.74-1.74h33.88a1.74 1.74 0 011.74 1.74v11.29a1.08 1.08 0 102.16 0v-11.29a3.89 3.89 0 00-3.9-3.9h-33.89a3.91 3.91 0 00-3.9 3.9v19.75a3.92 3.92 0 003.92 3.94z" class="cls-1" transform="translate(-352 -258)"/><path d="M437.88 302.34H404a3.91 3.91 0 00-3.9 3.9v22.59a3.91 3.91 0 003.9 3.9h23.6l5.64 4.85a2.46 2.46 0 001.81.79 2.49 2.49 0 002.49-2.49v-3.15h.32a3.92 3.92 0 003.91-3.91v-22.58a3.91 3.91 0 00-3.89-3.9zm1.74 26.48a1.76 1.76 0 01-1.75 1.75h-1.4a1.08 1.08 0 00-1.08 1.08v4.23a.33.33 0 01-.1.23.29.29 0 01-.23.1.33.33 0 01-.25-.11 1.14 1.14 0 00-.11-.11l-6-5.16a1 1 0 00-.7-.26h-24a1.74 1.74 0 01-1.74-1.74v-22.59a1.74 1.74 0 011.74-1.74h33.88a1.74 1.74 0 011.74 1.74z" class="cls-1" transform="translate(-352 -258)"/><path d="M422.35 333.39a1.08 1.08 0 00-1.08 1.08V345a1.74 1.74 0 01-1.74 1.74h-24a1.08 1.08 0 00-.7.26l-6 5.16-.11.11a.33.33 0 01-.25.11.33.33 0 01-.33-.33v-4.23a1.08 1.08 0 00-1.08-1.08h-1.4a1.76 1.76 0 01-1.75-1.75V328a1.74 1.74 0 011.74-1.74h12.7a1.08 1.08 0 000-2.16h-12.7a3.91 3.91 0 00-3.9 3.9v16.94a3.91 3.91 0 003.91 3.91h.34V352a2.49 2.49 0 002.49 2.49 2.51 2.51 0 001.81-.78l5.65-4.86h23.58a3.91 3.91 0 003.9-3.91v-10.47a1.08 1.08 0 00-1.08-1.08z" class="cls-1" transform="translate(-352 -258)"/></svg>