<?xml version="1.0" encoding="UTF-8" standalone="no"?><!DOCTYPE svg PUBLIC "-//W3C//DTD SVG 1.1//EN" "http://www.w3.org/Graphics/SVG/1.1/DTD/svg11.dtd"><svg width="100%" height="100%" viewBox="0 0 44 47" version="1.1" xmlns="http://www.w3.org/2000/svg" xmlns:xlink="http://www.w3.org/1999/xlink" xml:space="preserve" xmlns:serif="http://www.serif.com/" style="fill-rule:evenodd;clip-rule:evenodd;stroke-linejoin:round;stroke-miterlimit:2;"><path d="M42.68,40l0,-2c0.048,-0.357 0.174,-0.698 0.37,-1c0.362,-0.582 0.572,-1.246 0.61,-1.93l0,-4.86c0.03,-2.15 -1.545,-4.013 -3.67,-4.34l-6.08,-1.25l0,-6.22c0,-1.527 -1.244,-2.788 -2.77,-2.81c-1.55,0.016 -2.823,1.28 -2.85,2.83l0,9.5c-0.36,-0.37 -0.84,-0.86 -1.35,-1.36c-0.782,-0.708 -1.921,-0.871 -2.87,-0.41c-0.889,0.286 -1.529,1.072 -1.63,2l0,0.2l2,4.09l0.42,0.91c0.719,1.909 1.877,3.622 3.38,5l0,1.65l-1.95,0l0,6.62l17.35,0l0,-6.62l-0.96,0Zm-16.2,-7.31c-0.16,-0.36 -0.31,-0.69 -0.46,-1l-1.79,-3.57c0.197,-0.199 0.447,-0.338 0.72,-0.4c0.246,-0.086 0.52,-0.045 0.73,0.11c1,1 1.88,1.92 1.88,1.93l0.26,0.27l2.18,0l0,-11.59c0.016,-0.601 0.509,-1.09 1.11,-1.1c0.564,0.037 1.006,0.515 1,1.08l0,7.58l7.53,1.56c1.282,0.185 2.238,1.305 2.22,2.6l0,4.84c-0.047,0.4 -0.187,0.784 -0.41,1.12c-0.332,0.549 -0.528,1.17 -0.57,1.81l0,2l-10.88,0l0,-2.47l-0.34,-0.27c-1.434,-1.214 -2.529,-2.778 -3.18,-4.54l0,0.04Zm15.43,12.18l-13.85,0l0,-3.12l13.85,0l0,3.12Z" style="fill-rule:nonzero;"/><path d="M24.26,42.88l-22.51,0l0,-35.28l39.18,0l0,15.69c-0.003,0.031 -0.005,0.062 -0.005,0.094c0,0.482 0.397,0.88 0.88,0.88c0.483,0 0.88,-0.398 0.88,-0.88c0,-0.032 -0.002,-0.063 -0.005,-0.094l0,-23.29l-42.68,0l0,44.63l24.26,0c0.031,0.003 0.062,0.005 0.094,0.005c0.482,0 0.88,-0.397 0.88,-0.88c0,-0.483 -0.398,-0.88 -0.88,-0.88c-0.032,0 -0.063,0.002 -0.094,0.005Zm16.67,-41.13l0,4.1l-39.18,0l0,-4.1l39.18,0Z" style="fill-rule:nonzero;"/><path d="M3.8,4.67l1.95,0c0.445,-0.048 0.786,-0.427 0.786,-0.875c0,-0.448 -0.341,-0.827 -0.786,-0.875l-1.95,0c-0.031,-0.003 -0.062,-0.005 -0.094,-0.005c-0.482,0 -0.88,0.397 -0.88,0.88c0,0.483 0.398,0.88 0.88,0.88c0.032,0 0.063,-0.002 0.094,-0.005Z" style="fill-rule:nonzero;"/><path d="M8.7,4.67l1.95,0c0.445,-0.048 0.786,-0.427 0.786,-0.875c0,-0.448 -0.341,-0.827 -0.786,-0.875l-1.95,0c-0.031,-0.003 -0.062,-0.005 -0.094,-0.005c-0.482,0 -0.88,0.397 -0.88,0.88c0,0.483 0.398,0.88 0.88,0.88c0.032,0 0.063,-0.002 0.094,-0.005Z" style="fill-rule:nonzero;"/><path d="M18.32,18.42c0.003,-0.031 0.005,-0.062 0.005,-0.094c0,-0.482 -0.397,-0.88 -0.88,-0.88c-0.483,0 -0.88,0.398 -0.88,0.88c0,0.032 0.002,0.063 0.005,0.094l0,3l-9,0l0,-8l6.92,0c0.031,0.003 0.062,0.005 0.094,0.005c0.482,0 0.88,-0.397 0.88,-0.88c0,-0.483 -0.398,-0.88 -0.88,-0.88c-0.032,0 -0.063,0.002 -0.094,0.005l-8.67,0l0,11.49l12.47,0l0.03,-4.74Z" style="fill-rule:nonzero;"/><path d="M5.85,38.78l12.47,0l0,-11.49l-12.47,0l0,11.49Zm1.75,-9.78l9,0l0,8l-9,0l0,-8Z" style="fill-rule:nonzero;"/><path d="M19,11.91c-0.159,-0.14 -0.364,-0.218 -0.576,-0.218c-0.256,0 -0.499,0.113 -0.664,0.308l-5.23,6.1l-2.26,-2.25c-0.337,-0.337 -0.893,-0.337 -1.23,0c-0.338,0.341 -0.338,0.899 0,1.24l3.59,3.59l6.46,-7.54c0.137,-0.158 0.213,-0.361 0.213,-0.57c0,-0.254 -0.111,-0.495 -0.303,-0.66Z" style="fill-rule:nonzero;"/><path d="M38.78,13.54c0,-0.477 -0.393,-0.87 -0.87,-0.87l-15.59,0c-0.031,-0.003 -0.062,-0.005 -0.094,-0.005c-0.482,0 -0.88,0.397 -0.88,0.88c0,0.483 0.398,0.88 0.88,0.88c0.032,0 0.063,-0.002 0.094,-0.005l15.59,0c0.477,0 0.87,-0.393 0.87,-0.87c0,-0.003 0,-0.007 0,-0.01Z" style="fill-rule:nonzero;"/><path d="M26.21,16.57l-3.89,0c-0.031,-0.003 -0.062,-0.005 -0.094,-0.005c-0.482,0 -0.88,0.397 -0.88,0.88c0,0.483 0.398,0.88 0.88,0.88c0.032,0 0.063,-0.002 0.094,-0.005l3.89,0c0.031,0.003 0.062,0.005 0.094,0.005c0.482,0 0.88,-0.397 0.88,-0.88c0,-0.483 -0.398,-0.88 -0.88,-0.88c-0.032,0 -0.063,0.002 -0.094,0.005Z" style="fill-rule:nonzero;"/><path d="M26.21,20.47l-3.89,0c-0.031,-0.003 -0.062,-0.005 -0.094,-0.005c-0.482,0 -0.88,0.397 -0.88,0.88c0,0.483 0.398,0.88 0.88,0.88c0.032,0 0.063,-0.002 0.094,-0.005l3.89,0c0.031,0.003 0.062,0.005 0.094,0.005c0.482,0 0.88,-0.397 0.88,-0.88c0,-0.483 -0.398,-0.88 -0.88,-0.88c-0.032,0 -0.063,0.002 -0.094,0.005Z" style="fill-rule:nonzero;"/></svg>