<svg style="fill-rule:evenodd;clip-rule:evenodd;stroke-linejoin:round;stroke-miterlimit:2" viewBox="0 0 44 47"><path style="fill-rule:nonzero" d="M42.68 40v-2a2.43 2.43 0 01.37-1 4.084 4.084 0 00.61-1.93v-4.86a4.344 4.344 0 00-3.67-4.34l-6.08-1.25V18.4a2.823 2.823 0 00-2.77-2.81 2.893 2.893 0 00-2.85 2.83v9.5c-.36-.37-.84-.86-1.35-1.36a2.594 2.594 0 00-2.87-.41 2.374 2.374 0 00-1.63 2v.2l2 4.09.42.91a13 13 0 003.38 5V40h-1.95v6.62h17.35V40h-.96zm-16.2-7.31c-.16-.36-.31-.69-.46-1l-1.79-3.57c.197-.199.447-.338.72-.4a.791.791 0 01.73.11c1 1 1.88 1.92 1.88 1.93l.26.27H30V18.44a1.135 1.135 0 011.11-1.1 1.075 1.075 0 011 1.08V26l7.53 1.56a2.6 2.6 0 012.22 2.6V35c-.047.4-.187.784-.41 1.12a4.006 4.006 0 00-.57 1.81v2H30v-2.47l-.34-.27a10.895 10.895 0 01-3.18-4.54v.04zm15.43 12.18H28.06v-3.12h13.85v3.12z"/><path style="fill-rule:nonzero" d="M24.26 42.88H1.75V7.6h39.18v15.69a.885.885 0 00.875.974.885.885 0 00.875-.974V0H0v44.63h24.26a.885.885 0 00.974-.875.885.885 0 00-.974-.875zM40.93 1.75v4.1H1.75v-4.1h39.18z"/><path style="fill-rule:nonzero" d="M3.8 4.67h1.95a.883.883 0 00.786-.875.883.883 0 00-.786-.875H3.8a.885.885 0 00-.974.875.885.885 0 00.974.875zM8.7 4.67h1.95a.883.883 0 00.786-.875.883.883 0 00-.786-.875H8.7a.885.885 0 00-.974.875.885.885 0 00.974.875zM18.32 18.42a.885.885 0 00-.875-.974.885.885 0 00-.875.974v3h-9v-8h6.92a.885.885 0 00.974-.875.885.885 0 00-.974-.875H5.82v11.49h12.47l.03-4.74zM5.85 38.78h12.47V27.29H5.85v11.49zM7.6 29h9v8h-9v-8z"/><path style="fill-rule:nonzero" d="M19 11.91a.873.873 0 00-1.24.09l-5.23 6.1-2.26-2.25a.875.875 0 00-1.23 0 .885.885 0 000 1.24l3.59 3.59 6.46-7.54a.872.872 0 00-.09-1.23zM38.78 13.54a.875.875 0 00-.87-.87H22.32a.885.885 0 00-.974.875.885.885 0 00.974.875h15.59c.477 0 .87-.393.87-.87v-.01zM26.21 16.57h-3.89a.885.885 0 00-.974.875.885.885 0 00.974.875h3.89a.885.885 0 00.974-.875.885.885 0 00-.974-.875zM26.21 20.47h-3.89a.885.885 0 00-.974.875.885.885 0 00.974.875h3.89a.885.885 0 00.974-.875.885.885 0 00-.974-.875z"/></svg>