<svg data-name="Layer 1" viewBox="0 0 91.98 91.98"><defs><style>.cls-1{fill:#57c1e8}</style></defs><path d="M440.9 305.91H397a1.08 1.08 0 00-1.08 1.08v43.91A1.08 1.08 0 00397 352h43.9a1.08 1.08 0 001.1-1.1V307a1.08 1.08 0 00-1.1-1.09zm-1.08 43.91h-41.75v-41.75h41.75z" class="cls-1" transform="translate(-350 -260)"/><path d="M405 318.05h2.92v6.4C407.89 330.72 413 336 419 336s11-5.28 11-11.55v-6.4h2.91a1.08 1.08 0 000-2.16h-8a1.08 1.08 0 000 2.16h2.92v6.4c0 5-4.15 9.41-8.89 9.41s-8.91-4.4-8.91-9.41v-6.4H413a1.08 1.08 0 000-2.16h-8a1.08 1.08 0 000 2.16z" class="cls-1" transform="translate(-350 -260)"/><path d="M391 295.93a1.08 1.08 0 000 2.16h8a1.08 1.08 0 000-2.16h-2.91v-7.82h11.81V303a1.08 1.08 0 102.16 0v-16a1.08 1.08 0 00-1.06-1h-12.92v-3.34c0-7.87-6.43-14.52-14.05-14.52S368 274.74 368 282.61V286h-12.93a1.08 1.08 0 00-1.07 1v63.9a1.08 1.08 0 001.08 1.08H393a1.08 1.08 0 000-2.16h-36.85v-61.71H368v7.82h-2.91a1.08 1.08 0 100 2.16h8a1.08 1.08 0 100-2.16h-2.92v-7.82h23.8v7.82zm-20.88-10v-3.34c0-6.58 5.57-12.36 11.91-12.36s11.89 5.66 11.89 12.36V286zM426.17 294.25l-4 4a1.07 1.07 0 000 1.53 1.09 1.09 0 001.52 0l4-4a1.08 1.08 0 10-1.52-1.53zM432.92 290.1a1.06 1.06 0 00.76-.31l4-4a1.08 1.08 0 00-1.52-1.53l-4 4a1.07 1.07 0 000 1.53 1.06 1.06 0 00.76.31zM436.15 299.77a1.09 1.09 0 001.52 0 1.07 1.07 0 000-1.53l-4-4a1.08 1.08 0 00-1.52 1.53zM422.18 285.8l4 4a1.09 1.09 0 001.52 0 1.07 1.07 0 000-1.53l-4-4a1.08 1.08 0 10-1.52 1.53zM357.07 266.15a1.08 1.08 0 001.08-1.08v-4a1.08 1.08 0 00-2.16 0v4a1.08 1.08 0 001.08 1.08zM357.07 268a1.08 1.08 0 00-1.08 1.08v4a1.08 1.08 0 002.16 0v-4a1.09 1.09 0 00-1.08-1.08zM356.15 267.07a1.08 1.08 0 00-1.08-1.08h-4a1.08 1.08 0 000 2.16h4a1.08 1.08 0 001.08-1.08zM359.06 268.15h4a1.08 1.08 0 000-2.16h-4a1.08 1.08 0 000 2.16zM401 272.14h6a1.08 1.08 0 000-2.16h-6a1.08 1.08 0 000 2.16zM415 272.14h6a1.08 1.08 0 000-2.16h-6a1.08 1.08 0 000 2.16zM411 282.12a1.08 1.08 0 001-1.12v-6a1.08 1.08 0 00-2.16 0v6a1.08 1.08 0 001.16 1.12zM411 268.15a1.08 1.08 0 001.08-1.08v-6a1.08 1.08 0 00-2.16 0v6a1.09 1.09 0 001.08 1.08z" class="cls-1" transform="translate(-350 -260)"/></svg>