<svg id="Layer_1" data-name="Layer 1" xmlns="http://www.w3.org/2000/svg" viewBox="0 0 91.98 91.98"><defs><style>.cls-1{fill:#57c1e8;}</style></defs><title>ecommerce</title><path class="cls-1" d="M440.9,305.91H397a1.08,1.08,0,0,0-1.08,1.08V350.9A1.08,1.08,0,0,0,397,352H440.9A1.08,1.08,0,0,0,442,350.9V307A1.08,1.08,0,0,0,440.9,305.91Zm-1.08,43.91H398.07V308.07h41.75Z" transform="translate(-350 -260)"/><path class="cls-1" d="M405,318.05h2.92v6.4C407.89,330.72,413,336,419,336S430,330.72,430,324.45v-6.4h2.91a1.08,1.08,0,0,0,0-2.16h-8a1.08,1.08,0,0,0,0,2.16h2.92v6.4c0,5-4.15,9.41-8.89,9.41s-8.91-4.4-8.91-9.41v-6.4H413a1.08,1.08,0,0,0,0-2.16h-8a1.08,1.08,0,0,0,0,2.16Z" transform="translate(-350 -260)"/><path class="cls-1" d="M391,295.93a1.08,1.08,0,0,0,0,2.16h8a1.08,1.08,0,0,0,0-2.16h-2.91v-7.82h11.81V303a1.08,1.08,0,1,0,2.16,0V287A1.08,1.08,0,0,0,409,286H396.08v-3.34c0-7.87-6.43-14.52-14.05-14.52S368,274.74,368,282.61V286H355.07A1.08,1.08,0,0,0,354,287V350.9a1.08,1.08,0,0,0,1.08,1.08H393a1.08,1.08,0,0,0,0-2.16H356.15V288.11H368v7.82h-2.91a1.08,1.08,0,1,0,0,2.16h8a1.08,1.08,0,1,0,0-2.16h-2.92v-7.82h23.8v7.82Zm-20.88-10v-3.34c0-6.58,5.57-12.36,11.91-12.36s11.89,5.66,11.89,12.36V286Z" transform="translate(-350 -260)"/><path class="cls-1" d="M426.17,294.25l-4,4a1.07,1.07,0,0,0,0,1.53,1.09,1.09,0,0,0,1.52,0l4-4a1.08,1.08,0,1,0-1.52-1.53Z" transform="translate(-350 -260)"/><path class="cls-1" d="M432.92,290.1a1.06,1.06,0,0,0,.76-.31l4-4a1.08,1.08,0,0,0-1.52-1.53l-4,4a1.07,1.07,0,0,0,0,1.53A1.06,1.06,0,0,0,432.92,290.1Z" transform="translate(-350 -260)"/><path class="cls-1" d="M436.15,299.77a1.09,1.09,0,0,0,1.52,0,1.07,1.07,0,0,0,0-1.53l-4-4a1.08,1.08,0,0,0-1.52,1.53Z" transform="translate(-350 -260)"/><path class="cls-1" d="M422.18,285.8l4,4a1.09,1.09,0,0,0,1.52,0,1.07,1.07,0,0,0,0-1.53l-4-4a1.08,1.08,0,1,0-1.52,1.53Z" transform="translate(-350 -260)"/><path class="cls-1" d="M357.07,266.15a1.08,1.08,0,0,0,1.08-1.08v-4a1.08,1.08,0,0,0-2.16,0v4A1.08,1.08,0,0,0,357.07,266.15Z" transform="translate(-350 -260)"/><path class="cls-1" d="M357.07,268a1.08,1.08,0,0,0-1.08,1.08v4a1.08,1.08,0,0,0,2.16,0v-4A1.09,1.09,0,0,0,357.07,268Z" transform="translate(-350 -260)"/><path class="cls-1" d="M356.15,267.07a1.08,1.08,0,0,0-1.08-1.08h-4a1.08,1.08,0,0,0,0,2.16h4A1.08,1.08,0,0,0,356.15,267.07Z" transform="translate(-350 -260)"/><path class="cls-1" d="M359.06,268.15h4a1.08,1.08,0,0,0,0-2.16h-4a1.08,1.08,0,0,0,0,2.16Z" transform="translate(-350 -260)"/><path class="cls-1" d="M401,272.14h6a1.08,1.08,0,0,0,0-2.16h-6a1.08,1.08,0,0,0,0,2.16Z" transform="translate(-350 -260)"/><path class="cls-1" d="M415,272.14h6a1.08,1.08,0,0,0,0-2.16h-6a1.08,1.08,0,0,0,0,2.16Z" transform="translate(-350 -260)"/><path class="cls-1" d="M411,282.12A1.08,1.08,0,0,0,412,281v-6a1.08,1.08,0,0,0-2.16,0v6A1.08,1.08,0,0,0,411,282.12Z" transform="translate(-350 -260)"/><path class="cls-1" d="M411,268.15a1.08,1.08,0,0,0,1.08-1.08v-6a1.08,1.08,0,0,0-2.16,0v6A1.09,1.09,0,0,0,411,268.15Z" transform="translate(-350 -260)"/></svg>