<svg id="Layer_1" data-name="Layer 1" xmlns="http://www.w3.org/2000/svg" viewBox="0 0 88.25 76.77"><defs><style>.cls-1{fill:#57c1e7;}</style></defs><title>eyes on the ball</title><path class="cls-1" d="M352,268v76.77h77.6a1.08,1.08,0,0,0,0-2.16H354.16V281.22a1.06,1.06,0,0,0,.83.42h83.09v52.48a1.09,1.09,0,0,0,2.17,0V268Zm3,11.48a1.06,1.06,0,0,0-.83.42v-9.74h83.92v9.32Z" transform="translate(-352 -268)"/><path class="cls-1" d="M362.65,273.74h-3.83a1.08,1.08,0,0,0,0,2.16h3.83a1.08,1.08,0,1,0,0-2.16Z" transform="translate(-352 -268)"/><path class="cls-1" d="M370.3,273.74h-3.83a1.08,1.08,0,0,0,0,2.16h3.83a1.08,1.08,0,0,0,0-2.16Z" transform="translate(-352 -268)"/><path class="cls-1" d="M378,273.74h-3.83a1.08,1.08,0,0,0,0,2.16H378a1.08,1.08,0,0,0,0-2.16Z" transform="translate(-352 -268)"/><path class="cls-1" d="M416.21,313.91a1.08,1.08,0,0,0-1.08,1.08v7.65a1.08,1.08,0,0,0,2.16,0V315A1.08,1.08,0,0,0,416.21,313.91Z" transform="translate(-352 -268)"/><path class="cls-1" d="M378.78,307.34v15.3a1.08,1.08,0,1,0,2.16,0v-15.3a1.08,1.08,0,0,0-2.16,0Z" transform="translate(-352 -268)"/><path class="cls-1" d="M371.13,313.08v9.56a1.08,1.08,0,0,0,2.16,0v-9.56a1.08,1.08,0,0,0-2.16,0Z" transform="translate(-352 -268)"/><path class="cls-1" d="M363.48,301.6v21a1.08,1.08,0,0,0,2.16,0v-21a1.08,1.08,0,1,0-2.16,0Z" transform="translate(-352 -268)"/><path class="cls-1" d="M408.56,300.52a1.08,1.08,0,0,0-1.08,1.08v21a1.08,1.08,0,0,0,2.16,0v-21A1.09,1.09,0,0,0,408.56,300.52Z" transform="translate(-352 -268)"/><path class="cls-1" d="M400.91,306.26a1.08,1.08,0,0,0-1.08,1.08v15.3a1.08,1.08,0,0,0,2.16,0v-15.3A1.08,1.08,0,0,0,400.91,306.26Z" transform="translate(-352 -268)"/><path class="cls-1" d="M424.94,327.93a22.15,22.15,0,1,0-1.53,1.53l15,15a1.08,1.08,0,0,0,1.53-1.53ZM408.56,333a20,20,0,1,1,20-20A20,20,0,0,1,408.56,333Z" transform="translate(-352 -268)"/></svg>