<svg data-name="Layer 1" viewBox="0 0 88.25 76.77"><defs><style>.cls-1{fill:#57c1e7}</style></defs><path d="M352 268v76.77h77.6a1.08 1.08 0 000-2.16h-75.44v-61.39a1.06 1.06 0 00.83.42h83.09v52.48a1.09 1.09 0 002.17 0V268zm3 11.48a1.06 1.06 0 00-.83.42v-9.74h83.92v9.32z" class="cls-1" transform="translate(-352 -268)"/><path d="M362.65 273.74h-3.83a1.08 1.08 0 000 2.16h3.83a1.08 1.08 0 100-2.16zM370.3 273.74h-3.83a1.08 1.08 0 000 2.16h3.83a1.08 1.08 0 000-2.16zM378 273.74h-3.83a1.08 1.08 0 000 2.16H378a1.08 1.08 0 000-2.16zM416.21 313.91a1.08 1.08 0 00-1.08 1.08v7.65a1.08 1.08 0 002.16 0V315a1.08 1.08 0 00-1.08-1.09zM378.78 307.34v15.3a1.08 1.08 0 102.16 0v-15.3a1.08 1.08 0 00-2.16 0zM371.13 313.08v9.56a1.08 1.08 0 002.16 0v-9.56a1.08 1.08 0 00-2.16 0zM363.48 301.6v21a1.08 1.08 0 002.16 0v-21a1.08 1.08 0 10-2.16 0zM408.56 300.52a1.08 1.08 0 00-1.08 1.08v21a1.08 1.08 0 002.16 0v-21a1.09 1.09 0 00-1.08-1.08zM400.91 306.26a1.08 1.08 0 00-1.08 1.08v15.3a1.08 1.08 0 002.16 0v-15.3a1.08 1.08 0 00-1.08-1.08z" class="cls-1" transform="translate(-352 -268)"/><path d="M424.94 327.93a22.15 22.15 0 10-1.53 1.53l15 15a1.08 1.08 0 001.53-1.53zM408.56 333a20 20 0 1120-20 20 20 0 01-20 20z" class="cls-1" transform="translate(-352 -268)"/></svg>