<?xml version="1.0" encoding="UTF-8" standalone="no"?><!DOCTYPE svg PUBLIC "-//W3C//DTD SVG 1.1//EN" "http://www.w3.org/Graphics/SVG/1.1/DTD/svg11.dtd"><svg width="100%" height="100%" viewBox="0 0 64 64" version="1.1" xmlns="http://www.w3.org/2000/svg" xmlns:xlink="http://www.w3.org/1999/xlink" xml:space="preserve" xmlns:serif="http://www.serif.com/" style="fill-rule:evenodd;clip-rule:evenodd;stroke-linejoin:round;stroke-miterlimit:2;"><g transform="matrix(1,0,0,1,-228,0)"><rect id="facebook" x="228" y="0" width="64" height="64" style="fill:none;"/><g id="facebook1" serif:id="facebook"><g id="Path_52" transform="matrix(3.33333,0,0,3.33333,-958.667,-986.667)"><path d="M365.6,296C360.334,296 356,300.334 356,305.6C356,310.866 360.334,315.2 365.6,315.2C370.866,315.2 375.2,310.866 375.2,305.6C375.2,300.334 370.866,296 365.6,296ZM368.08,305.6L366.51,305.6L366.51,311.36L364.35,311.36L364.35,305.6L362.91,305.6L362.91,303.6L364.35,303.6L364.35,302.43C364.35,300.81 364.79,299.82 366.7,299.82L368.29,299.82L368.29,301.82L367.29,301.82C366.54,301.82 366.51,302.1 366.51,302.61L366.51,303.61L368.29,303.61L368.08,305.6Z" style="fill-rule:nonzero;"/></g></g></g></svg>