<svg id="Layer_1" data-name="Layer 1" xmlns="http://www.w3.org/2000/svg" viewBox="0 0 98.2 94.13"><defs><style>.cls-1{fill:#57c1e7;}</style></defs><title>field training</title><path class="cls-1" d="M375.61,319.34a1.08,1.08,0,0,0,2.16,0v-6.13h0V303a1.08,1.08,0,0,0-2.16,0v7.61l-10.1-10.1v-4.6h59.14v4.6l-10.1,10.1V303a1.08,1.08,0,0,0-2.16,0v16.35a1.08,1.08,0,0,0,2.16,0v-5.69l12.26-12.26v-7.65H412.5v-7.1c0-4.45-7-7.25-12.36-8.49a9,9,0,0,0,4.19-7.33v-2.9a9.26,9.26,0,0,0-18.51,0v2.63a9,9,0,0,0,4.2,7.56c-5.32,1.24-12.37,4-12.37,8.49v7.1h-14.3v7.65l12.26,12.26ZM388,270.59V268a7.1,7.1,0,0,1,14.19,0v2.79a6.84,6.84,0,0,1-7.06,6.64h-.28A6.85,6.85,0,0,1,388,270.59Zm-8.17,16.05c0-3.72,11-7.09,15.26-7.09h0c4.29,0,15.25,3.38,15.25,7.09v7.1H379.81Z" transform="translate(-347 -258.98)"/><path class="cls-1" d="M444.12,351H437v-2.78a11.37,11.37,0,0,0-10.21-11.46v-1a11.3,11.3,0,0,0-21.51-5.06,11.29,11.29,0,0,0-20.44,0,11.3,11.3,0,0,0-21.51,4.61,2.94,2.94,0,0,0,0,.42v1a11.4,11.4,0,0,0-10.22,11.45V351h-5.05a1.08,1.08,0,1,0,0,2.16h96a1.08,1.08,0,1,0,0-2.16Zm-9.26-2.8V351H416.59v-2.89a9.21,9.21,0,0,1,9.15-9.25h.05A9.2,9.2,0,0,1,434.86,348.15Zm-59.14,0v-.43a9.14,9.14,0,1,1,18.28.42V351H375.73v-2.78Zm20.44,0a2.16,2.16,0,0,1,0-.36,9.14,9.14,0,1,1,18.27.38V351H396.16ZM365.51,335.3a9.14,9.14,0,0,1,9.13-9h.18a9.15,9.15,0,0,1,9,8.92v.45h2.16v-.46a9.14,9.14,0,0,1,18.27,0h0v.46h2.16a3.53,3.53,0,0,0,0-.46,9.16,9.16,0,0,1,9.14-8.91h.18a9.15,9.15,0,0,1,9,9.34v1a11.35,11.35,0,0,0-9.12,6.48,11.25,11.25,0,0,0-10-6.54,11.25,11.25,0,0,0-10.44,6.48,11.29,11.29,0,0,0-10-6.5,11.27,11.27,0,0,0-8.06,3.13,11.4,11.4,0,0,0-2.43,3.4,11.38,11.38,0,0,0-9.11-6.44v-1.06A2.16,2.16,0,0,1,365.51,335.3Zm-10.22,12.76a9.21,9.21,0,0,1,9.11-9.25h.09a9.2,9.2,0,0,1,9.07,9.34V351H355.29Z" transform="translate(-347 -258.98)"/></svg>