<svg data-name="Layer 1" viewBox="0 0 98.2 94.13"><defs><style>.cls-1{fill:#57c1e7}</style></defs><path d="M375.61 319.34a1.08 1.08 0 002.16 0V303a1.08 1.08 0 00-2.16 0v7.61l-10.1-10.1v-4.6h59.14v4.6l-10.1 10.1V303a1.08 1.08 0 00-2.16 0v16.35a1.08 1.08 0 002.16 0v-5.69l12.26-12.26v-7.65H412.5v-7.1c0-4.45-7-7.25-12.36-8.49a9 9 0 004.19-7.33v-2.9a9.26 9.26 0 00-18.51 0v2.63a9 9 0 004.2 7.56c-5.32 1.24-12.37 4-12.37 8.49v7.1h-14.3v7.65l12.26 12.26zM388 270.59V268a7.1 7.1 0 0114.19 0v2.79a6.84 6.84 0 01-7.06 6.64h-.28a6.85 6.85 0 01-6.85-6.84zm-8.17 16.05c0-3.72 11-7.09 15.26-7.09 4.29 0 15.25 3.38 15.25 7.09v7.1h-30.53zM444.12 351H437v-2.78a11.37 11.37 0 00-10.21-11.46v-1a11.3 11.3 0 00-21.51-5.06 11.29 11.29 0 00-20.44 0 11.3 11.3 0 00-21.51 4.61 2.94 2.94 0 000 .42v1a11.4 11.4 0 00-10.22 11.45V351h-5.05a1.08 1.08 0 100 2.16h96a1.08 1.08 0 100-2.16zm-9.26-2.8v2.8h-18.27v-2.89a9.21 9.21 0 019.15-9.25h.05a9.2 9.2 0 019.07 9.29zm-59.14 0v-.43a9.14 9.14 0 1118.28.42V351h-18.27v-2.78zm20.44 0a2.16 2.16 0 010-.36 9.14 9.14 0 1118.27.38V351h-18.27zm-30.65-12.9a9.14 9.14 0 019.13-9h.18a9.15 9.15 0 019 8.92v.45h2.16v-.46a9.14 9.14 0 0118.27 0v.46h2.16a3.53 3.53 0 000-.46 9.16 9.16 0 019.14-8.91h.18a9.15 9.15 0 019 9.34v1a11.35 11.35 0 00-9.12 6.48 11.25 11.25 0 00-10-6.54 11.25 11.25 0 00-10.44 6.48 11.29 11.29 0 00-10-6.5 11.27 11.27 0 00-8.06 3.13 11.4 11.4 0 00-2.43 3.4 11.38 11.38 0 00-9.11-6.44v-1.06a2.16 2.16 0 01-.06-.29zm-10.22 12.76a9.21 9.21 0 019.11-9.25h.09a9.2 9.2 0 019.07 9.34V351h-18.27z" class="cls-1" transform="translate(-347 -258.98)"/></svg>