<svg data-name="Layer 1" viewBox="0 0 82.48 81.35"><defs><style>.cls-1{fill:#58c1e8}</style></defs><path d="M413.81 328a1.08 1.08 0 00-1.08 1.08v15.12h-55.57v-77h55.57v11.52a1.08 1.08 0 002.16 0v-12.6a1.08 1.08 0 00-1.08-1.08h-57.73a1.08 1.08 0 00-1.08 1.08v79.19a1.08 1.08 0 001.08 1.08h57.73a1.08 1.08 0 001.08-1.08v-16.2a1.08 1.08 0 00-1.08-1.11z" class="cls-1" transform="translate(-355 -265)"/><path d="M437.16 332.7L423.47 319a22.69 22.69 0 10-1.52 1.54l13.68 13.68a1.11 1.11 0 00.77.32 1.09 1.09 0 00.76-1.85zm-51.07-28.83a20.52 20.52 0 1120.52 20.52 20.53 20.53 0 01-20.52-20.52zM386 278.68a1.08 1.08 0 00-1.08-1.08h-21.64a1.08 1.08 0 000 2.16h21.59a1.08 1.08 0 001.13-1.08zM378.76 285.88a1.08 1.08 0 00-1.08-1.08h-14.4a1.08 1.08 0 000 2.16h14.4a1.09 1.09 0 001.08-1.08zM372.28 292h-9a1.08 1.08 0 100 2.16h9a1.08 1.08 0 100-2.16zM372.28 299.19h-9a1.08 1.08 0 100 2.16h9a1.08 1.08 0 100-2.16zM373.36 307.47a1.09 1.09 0 00-1.08-1.08h-9a1.08 1.08 0 100 2.16h9a1.08 1.08 0 001.08-1.08zM364 330.87v7.2a1.08 1.08 0 102.16 0v-7.2a1.08 1.08 0 00-2.16 0zM373.55 323.67v14.4a1.08 1.08 0 102.16 0v-14.4a1.08 1.08 0 10-2.16 0zM381.8 329.07v9a1.08 1.08 0 102.16 0v-9a1.08 1.08 0 10-2.16 0zM392.21 338.07v-3.6a1.08 1.08 0 10-2.16 0v3.6a1.08 1.08 0 102.16 0zM400.45 338.07v-7.2a1.08 1.08 0 00-2.16 0v7.2a1.08 1.08 0 102.16 0z" class="cls-1" transform="translate(-355 -265)"/><path d="M410.41 303.79l-7.24-2.72a2.87 2.87 0 01-1.74-2.7v-.11a2.65 2.65 0 012.42-2.79h4.59a2.79 2.79 0 012.9 2.66v.24a1.08 1.08 0 001 1.13 1.1 1.1 0 001.13-1v-.5a4.91 4.91 0 00-1.6-3.42 4.83 4.83 0 00-3.5-1.29h-.93v-4.95a1.08 1.08 0 10-2.16 0v4.95h-1.52a4.81 4.81 0 00-4.52 5 5.05 5.05 0 003.1 4.78l7.24 2.71a2.89 2.89 0 011.74 2.71v.1a2.66 2.66 0 01-2.42 2.8h-4.59a1 1 0 01-.25 0 2.77 2.77 0 01-2.65-2.89 1.08 1.08 0 00-1-1.13 1.09 1.09 0 00-1.13 1 4.94 4.94 0 004.72 5.15h1.31v4.95a1.08 1.08 0 102.16 0v-4.95H409a4.81 4.81 0 004.52-5 5 5 0 00-3.11-4.73z" class="cls-1" transform="translate(-355 -265)"/></svg>