<svg style="fill-rule:evenodd;clip-rule:evenodd;stroke-linejoin:round;stroke-miterlimit:2" viewBox="0 0 52 47"><path style="fill-rule:nonzero" d="M51.64 19.18a5.342 5.342 0 00-3.08-1.52V0H15.64v21.6a11.35 11.35 0 00-3.09 2l-3.91 3.87-1.61-1.61a.885.885 0 00-1.24 0L.23 31.43a.863.863 0 000 1.23L13.64 46a.863.863 0 001.23 0l5.57-5.56a.907.907 0 00.26-.62.88.88 0 00-.26-.62l-1.58-1.59a1.948 1.948 0 011-.26h16.7c1.91 0 9.49-8 9.6-8.14a60.735 60.735 0 005.65-9 .882.882 0 00-.17-1.03zM28.52 1.75h7.12v2.7h-7.15l.03-2.7zm-11.13 0h9.38V6.2h10.65V1.75h9.39v16l-.44.1c-2.3.54-3.6 2.18-4.91 4.66l-4 2.07a4.363 4.363 0 00-3.18-1.18h-7a5.386 5.386 0 01-1.11-.75 5.536 5.536 0 00-3.06-1.48h-5.8l.08-19.42zm-3.1 42.42L2.11 32l4.33-4.32 1.61 1.6 10.51 10.51-4.27 4.38zM48.16 19.4a3.563 3.563 0 011.77.62 58.912 58.912 0 01-5.13 8.1c-1.37 1.55-7.21 7.2-8.25 7.5H19.82a3.468 3.468 0 00-2.24.76l-7.67-7.67 3.81-3.82a7.004 7.004 0 013.86-2h5.56a4.684 4.684 0 012 1.12 3.923 3.923 0 002.15 1.11h7c1.71 0 2.47 1 2.47 1.91 0 .91-.76 1.9-2.47 1.9h-10a.885.885 0 00-.974.875.885.885 0 00.974.875h10c2.77 0 4.22-1.84 4.22-3.65a3.61 3.61 0 00-.16-1l4.14-2.15a.898.898 0 00.37-.38c1.34-2.6 2.35-3.65 3.93-4 .15 0 .3 0 .45-.08.288-.037.58-.044.87-.02h.05z"/><path style="fill-rule:nonzero" d="M7.06 31.43a.874.874 0 00-1.24 1.23l2.23 2.23a.87.87 0 00.62.26.88.88 0 00.62-1.5l-2.23-2.22zM19.8 18.45h2.23a.883.883 0 00.786-.875.883.883 0 00-.786-.875H19.8a.883.883 0 00-.786.875c0 .448.341.827.786.875zM25.14 18.45h2.23a.883.883 0 00.786-.875.883.883 0 00-.786-.875h-2.23a.883.883 0 00-.786.875c0 .448.341.827.786.875zM30.48 18.45h2.23a.883.883 0 00.786-.875.883.883 0 00-.786-.875h-2.23a.883.883 0 00-.786.875c0 .448.341.827.786.875z"/></svg>