<?xml version="1.0" encoding="UTF-8" standalone="no"?><!DOCTYPE svg PUBLIC "-//W3C//DTD SVG 1.1//EN" "http://www.w3.org/Graphics/SVG/1.1/DTD/svg11.dtd"><svg width="100%" height="100%" viewBox="0 0 52 47" version="1.1" xmlns="http://www.w3.org/2000/svg" xmlns:xlink="http://www.w3.org/1999/xlink" xml:space="preserve" xmlns:serif="http://www.serif.com/" style="fill-rule:evenodd;clip-rule:evenodd;stroke-linejoin:round;stroke-miterlimit:2;"><path d="M51.64,19.18c-0.831,-0.832 -1.914,-1.366 -3.08,-1.52l0,-17.66l-32.92,0l0,21.6c-1.132,0.494 -2.176,1.17 -3.09,2l-3.91,3.87l-1.61,-1.61c-0.341,-0.338 -0.899,-0.338 -1.24,0l-5.56,5.57c-0.165,0.162 -0.259,0.384 -0.259,0.615c0,0.231 0.094,0.453 0.259,0.615l13.41,13.34c0.162,0.165 0.384,0.259 0.615,0.259c0.231,0 0.453,-0.094 0.615,-0.259l5.57,-5.56c0.163,-0.166 0.256,-0.388 0.26,-0.62c-0.001,-0.233 -0.095,-0.456 -0.26,-0.62l-1.58,-1.59c0.304,-0.175 0.649,-0.265 1,-0.26l16.7,0c1.91,0 9.49,-8 9.6,-8.14c2.143,-2.829 4.033,-5.841 5.65,-9c0.175,-0.343 0.105,-0.762 -0.17,-1.03Zm-23.12,-17.43l7.12,0l0,2.7l-7.15,0l0.03,-2.7Zm-11.13,0l9.38,0l0,4.45l10.65,0l0,-4.45l9.39,0l0,16l-0.44,0.1c-2.3,0.54 -3.6,2.18 -4.91,4.66l-4,2.07c-0.857,-0.806 -2.005,-1.232 -3.18,-1.18l-7,0c-0.4,-0.203 -0.773,-0.455 -1.11,-0.75c-0.84,-0.802 -1.91,-1.32 -3.06,-1.48l-5.56,0l-0.24,0l0.08,-19.42Zm-3.1,42.42l-12.18,-12.17l4.33,-4.32l1.61,1.6l10.51,10.51l-4.27,4.38Zm33.87,-24.77c0.635,0.045 1.246,0.259 1.77,0.62c-1.487,2.835 -3.203,5.544 -5.13,8.1c-1.37,1.55 -7.21,7.2 -8.25,7.5l-16.73,0c-0.812,-0.017 -1.606,0.252 -2.24,0.76l-7.67,-7.67l3.81,-3.82c1.042,-1.059 2.394,-1.76 3.86,-2l5.56,0c0.749,0.202 1.437,0.587 2,1.12c0.582,0.587 1.334,0.976 2.15,1.11l7,0c1.71,0 2.47,1 2.47,1.91c0,0.91 -0.76,1.9 -2.47,1.9l-10,0c-0.031,-0.003 -0.062,-0.005 -0.094,-0.005c-0.482,0 -0.88,0.397 -0.88,0.88c0,0.483 0.398,0.88 0.88,0.88c0.032,0 0.063,-0.002 0.094,-0.005l10,0c2.77,0 4.22,-1.84 4.22,-3.65c-0.006,-0.339 -0.06,-0.676 -0.16,-1l4.14,-2.15c0.159,-0.087 0.288,-0.219 0.37,-0.38c1.34,-2.6 2.35,-3.65 3.93,-4c0.15,0 0.3,0 0.45,-0.08c0.288,-0.037 0.58,-0.044 0.87,-0.02l0.05,0Z" style="fill-rule:nonzero;"/><path d="M7.06,31.43c-0.164,-0.165 -0.387,-0.258 -0.62,-0.258c-0.479,0 -0.873,0.394 -0.873,0.873c0,0.23 0.091,0.451 0.253,0.615l2.23,2.23c0.163,0.166 0.387,0.26 0.62,0.26c0.481,-0.002 0.876,-0.399 0.876,-0.88c0,-0.232 -0.092,-0.455 -0.256,-0.62l-2.23,-2.22Z" style="fill-rule:nonzero;"/><path d="M19.8,18.45l2.23,0c0.445,-0.048 0.786,-0.427 0.786,-0.875c0,-0.448 -0.341,-0.827 -0.786,-0.875l-2.23,0c-0.445,0.048 -0.786,0.427 -0.786,0.875c0,0.448 0.341,0.827 0.786,0.875Z" style="fill-rule:nonzero;"/><path d="M25.14,18.45l2.23,0c0.445,-0.048 0.786,-0.427 0.786,-0.875c0,-0.448 -0.341,-0.827 -0.786,-0.875l-2.23,0c-0.445,0.048 -0.786,0.427 -0.786,0.875c0,0.448 0.341,0.827 0.786,0.875Z" style="fill-rule:nonzero;"/><path d="M30.48,18.45l2.23,0c0.445,-0.048 0.786,-0.427 0.786,-0.875c0,-0.448 -0.341,-0.827 -0.786,-0.875l-2.23,0c-0.445,0.048 -0.786,0.427 -0.786,0.875c0,0.448 0.341,0.827 0.786,0.875Z" style="fill-rule:nonzero;"/></svg>