<svg data-name="Layer 1" viewBox="0 0 88.07 84.36"><defs><style>.cls-1{fill:#58c1e8}</style></defs><path d="M439.47 298.63l-4.47-2.22a24.14 24.14 0 000-6.41l4.45-2.23a1.08 1.08 0 00.52-1.37l-3.72-9a1.08 1.08 0 00-1.34-.61l-4.72 1.58a23.76 23.76 0 00-4.53-4.54l1.57-4.72a1.09 1.09 0 00-.61-1.34l-9-3.71a1.09 1.09 0 00-1.38.52l-2.17 4.42a23.72 23.72 0 00-6.41 0l-2.23-4.45a1.08 1.08 0 00-1.38-.51l-9 3.71a1.08 1.08 0 00-.61 1.34l1.57 4.72a23.7 23.7 0 00-4.53 4.53l-4.72-1.57a1.07 1.07 0 00-1.33.61l-3.72 9a1.07 1.07 0 00.52 1.38l4.47 2.24a24.56 24.56 0 000 6.41l-4.45 2.22a1.08 1.08 0 00-.51 1.38l3.72 9a1.07 1.07 0 001.34.61l4.71-1.57a24.65 24.65 0 004.53 4.54l-1.57 4.71a1.09 1.09 0 00.62 1.34l9 3.71a1.06 1.06 0 001.37-.51l2.23-4.44a24.56 24.56 0 006.41 0l2.22 4.44a1.08 1.08 0 001 .6 1.15 1.15 0 00.41-.08l9-3.72a1.07 1.07 0 00.61-1.34l-1.57-4.71a24.65 24.65 0 004.54-4.53l4.71 1.56a1.07 1.07 0 001.34-.61l3.72-9a1.09 1.09 0 00-.61-1.38zm-4.81 8.6l-4.51-1.5a1.08 1.08 0 00-1.22.4 21.85 21.85 0 01-5.15 5.14 1.1 1.1 0 00-.4 1.23l1.51 4.5-7.12 3-2.12-4.25a1.09 1.09 0 00-1-.6h-.18a22.23 22.23 0 01-7.28 0 1.06 1.06 0 00-1.14.58l-2.05 4.21-7.16-2.94 1.5-4.51a1.08 1.08 0 00-.4-1.22 22.09 22.09 0 01-5.15-5.15 1.07 1.07 0 00-1.22-.4l-4.5 1.51-2.95-7.12 4.25-2.12a1.09 1.09 0 00.58-1.15 22.23 22.23 0 010-7.28 1.09 1.09 0 00-.58-1.15l-4.25-2.12 2.95-7.11 4.5 1.5a1.08 1.08 0 001.22-.4 22.09 22.09 0 015.15-5.15 1.07 1.07 0 00.4-1.22l-1.5-4.51 7.11-2.94 2.13 4.25a1.07 1.07 0 001.14.58 21.7 21.7 0 017.28 0 1.09 1.09 0 001.15-.58l2.12-4.25 7.11 3-1.49 4.5a1.08 1.08 0 00.39 1.22 21.9 21.9 0 015.15 5.15 1.08 1.08 0 001.22.4l4.51-1.5 2.95 7.11-4.25 2.13a1.09 1.09 0 00-.59 1.14 22 22 0 010 7.29 1.07 1.07 0 00.58 1.14l4.25 2.12zM392.18 324.83a1.06 1.06 0 000-.82l-2.46-5.94a1.09 1.09 0 00-1.41-.59l-3.82 1.58a15.69 15.69 0 00-2.34-2.34l1.58-3.82a1.08 1.08 0 00-.59-1.41L377.2 309a1.08 1.08 0 00-1.41.59l-1.58 3.82a15.17 15.17 0 00-3.3 0l-1.59-3.83a1.1 1.1 0 00-.58-.58 1.08 1.08 0 00-.83 0l-5.91 2.49a1.08 1.08 0 00-.59 1.41l1.58 3.82a16.18 16.18 0 00-2.34 2.34l-3.82-1.58a1.08 1.08 0 00-1.41.59l-2.48 5.93a1.11 1.11 0 000 .82 1.08 1.08 0 00.58.59l3.82 1.58a15.17 15.17 0 000 3.3l-3.82 1.58a1.08 1.08 0 00-.58.59 1.11 1.11 0 000 .82l2.46 5.94a1.07 1.07 0 001.41.59l3.83-1.58a15.23 15.23 0 002.34 2.34l-1.58 3.82a1.06 1.06 0 000 .82 1.08 1.08 0 00.58.59l5.94 2.46a1.09 1.09 0 001.41-.59l1.58-3.82a15.17 15.17 0 003.3 0l1.58 3.83a1.08 1.08 0 00.59.58 1.09 1.09 0 00.82 0l5.94-2.46a1.08 1.08 0 00.59-1.41l-1.58-3.82a15.69 15.69 0 002.34-2.34l3.82 1.58a1.08 1.08 0 001.41-.58l2.46-5.94a1.07 1.07 0 00-.59-1.41l-3.82-1.58a15.26 15.26 0 000-3.31l3.83-1.58a1.08 1.08 0 00.58-.58zm-6 .49a1.07 1.07 0 00-.65 1.18 13.55 13.55 0 010 4.31 1.06 1.06 0 00.65 1.17l3.59 1.49-1.63 3.94-3.6-1.49a1.08 1.08 0 00-1.29.37 13 13 0 01-3.05 3 1.08 1.08 0 00-.37 1.29l1.49 3.6-3.94 1.63-1.49-3.6a1.09 1.09 0 00-1-.66h-.18a12.93 12.93 0 01-4.3 0 1.11 1.11 0 00-1.18.65l-1.48 3.6-3.94-1.63 1.48-3.6a1.08 1.08 0 00-.37-1.29 13.18 13.18 0 01-3.05-3 1.08 1.08 0 00-1.29-.37l-3.6 1.49-1.63-3.94L359 332a1.07 1.07 0 00.65-1.18 12.93 12.93 0 010-4.3 1.08 1.08 0 00-.65-1.18l-3.6-1.49 1.63-3.94 3.6 1.49a1.08 1.08 0 001.29-.37 13 13 0 013.05-3.05 1.08 1.08 0 00.37-1.29l-1.49-3.6 3.94-1.63 1.49 3.59a1.07 1.07 0 001.17.66 13 13 0 014.31 0 1.1 1.1 0 001.18-.66l1.49-3.59 3.94 1.64-1.49 3.59a1.08 1.08 0 00.37 1.29 12.8 12.8 0 013.05 3.05 1.08 1.08 0 001.29.37l3.6-1.49 1.63 3.94zM357.4 297.48l-3.4 2.19a1.09 1.09 0 00-.32 1.5l3.42 5.31a1.09 1.09 0 00.68.47h.23a1.06 1.06 0 00.58-.17l4.12-2.65a1.08 1.08 0 00-1.18-1.82l-3.2 2.07-2.25-3.5 3.2-2.06a1.09 1.09 0 00.43-1.28 12.81 12.81 0 01-.76-4.16 1.09 1.09 0 00-.86-1l-3.72-.8.88-4.07 3.72.8a1.09 1.09 0 001.21-.59 12.28 12.28 0 012.41-3.47 1.09 1.09 0 00.13-1.34l-2.07-3.21 3.5-2.25 2.06 3.2a1.1 1.1 0 001.28.43 12.86 12.86 0 014.16-.76 1.09 1.09 0 001-.85l.8-3.72 4.07.87-.81 3.72a1.08 1.08 0 102.12.46l1-4.78a1.07 1.07 0 00-.82-1.28l-6.18-1.33a1.06 1.06 0 00-1.28.82l-.86 4a14.87 14.87 0 00-3.17.58l-2.2-3.41a1.08 1.08 0 00-1.49-.32l-5.31 3.42a1.09 1.09 0 00-.47.68 1.07 1.07 0 00.14.82l2.2 3.41a15.28 15.28 0 00-1.79 2.59l-4-.86a1.08 1.08 0 00-1.28.83l-1.32 6.19a1.08 1.08 0 00.83 1.28l4 .86a15 15 0 00.57 3.18z" class="cls-1" transform="translate(-352 -264)"/><path d="M375.36 321.89a7.25 7.25 0 00-5.6 0 7.33 7.33 0 00-4 3.95 7.33 7.33 0 004 9.57 7.32 7.32 0 105.6-13.53zm2 8.74a5.16 5.16 0 01-9.54-3.95l-1-.42 1 .41a5.16 5.16 0 119.53 4zM410.94 277.11A16.07 16.07 0 10427 293.17a16.09 16.09 0 00-16.06-16.06zm0 30a13.91 13.91 0 1113.91-13.91 13.92 13.92 0 01-13.91 13.88z" class="cls-1" transform="translate(-352 -264)"/><path d="M418.38 291.87H412v-10.16a1.08 1.08 0 00-2.16 0V293a1.08 1.08 0 001.08 1.08h7.49a1.08 1.08 0 000-2.16zM371.14 288.66a4.59 4.59 0 013.09.8 1.08 1.08 0 001.24-1.76 6.78 6.78 0 00-4.56-1.19 6.7 6.7 0 00.69 13.36h.71a1.08 1.08 0 00-.22-2.15 4.54 4.54 0 01-5-4 4.46 4.46 0 011-3.33 4.51 4.51 0 013.05-1.73z" class="cls-1" transform="translate(-352 -264)"/></svg>