<svg id="Layer_1" data-name="Layer 1" xmlns="http://www.w3.org/2000/svg" viewBox="0 0 88.07 84.36"><defs><style>.cls-1{fill:#58c1e8;}</style></defs><title>IT icon</title><path class="cls-1" d="M439.47,298.63,435,296.41a24.14,24.14,0,0,0,0-6.41l4.45-2.23a1.08,1.08,0,0,0,.52-1.37l-3.72-9a1.08,1.08,0,0,0-1.34-.61l-4.72,1.58a23.76,23.76,0,0,0-4.53-4.54l1.57-4.72a1.09,1.09,0,0,0-.61-1.34l-9-3.71a1.09,1.09,0,0,0-1.38.52L414.07,269a23.72,23.72,0,0,0-6.41,0l-2.23-4.45a1.08,1.08,0,0,0-1.38-.51l-9,3.71a1.08,1.08,0,0,0-.61,1.34l1.57,4.72a23.7,23.7,0,0,0-4.53,4.53l-4.72-1.57a1.07,1.07,0,0,0-1.33.61l-3.72,9a1.07,1.07,0,0,0,.52,1.38L386.7,290a24.56,24.56,0,0,0,0,6.41l-4.45,2.22a1.08,1.08,0,0,0-.51,1.38l3.72,9a1.07,1.07,0,0,0,1.34.61l4.71-1.57a24.65,24.65,0,0,0,4.53,4.54l-1.57,4.71a1.09,1.09,0,0,0,.62,1.34l9,3.71a1.06,1.06,0,0,0,1.37-.51l2.23-4.44a24.56,24.56,0,0,0,6.41,0l2.22,4.44a1.08,1.08,0,0,0,1,.6,1.15,1.15,0,0,0,.41-.08l9-3.72a1.07,1.07,0,0,0,.61-1.34l-1.57-4.71a24.65,24.65,0,0,0,4.54-4.53l4.71,1.56a1.07,1.07,0,0,0,1.34-.61l3.72-9A1.09,1.09,0,0,0,439.47,298.63Zm-4.81,8.6-4.51-1.5a1.08,1.08,0,0,0-1.22.4,21.85,21.85,0,0,1-5.15,5.14,1.1,1.1,0,0,0-.4,1.23l1.51,4.5L417.77,320l-2.12-4.25a1.09,1.09,0,0,0-1-.6l-.18,0a22.23,22.23,0,0,1-7.28,0,1.06,1.06,0,0,0-1.14.58L404,319.94,396.84,317l1.5-4.51a1.08,1.08,0,0,0-.4-1.22,22.09,22.09,0,0,1-5.15-5.15,1.07,1.07,0,0,0-1.22-.4l-4.5,1.51-2.95-7.12,4.25-2.12a1.09,1.09,0,0,0,.58-1.15,22.23,22.23,0,0,1,0-7.28,1.09,1.09,0,0,0-.58-1.15l-4.25-2.12,2.95-7.11,4.5,1.5a1.08,1.08,0,0,0,1.22-.4,22.09,22.09,0,0,1,5.15-5.15,1.07,1.07,0,0,0,.4-1.22l-1.5-4.51,7.11-2.94,2.13,4.25a1.07,1.07,0,0,0,1.14.58,21.7,21.7,0,0,1,7.28,0,1.09,1.09,0,0,0,1.15-.58l2.12-4.25,7.11,3-1.49,4.5a1.08,1.08,0,0,0,.39,1.22,21.9,21.9,0,0,1,5.15,5.15,1.08,1.08,0,0,0,1.22.4l4.51-1.5,2.95,7.11-4.25,2.13a1.09,1.09,0,0,0-.59,1.14,22,22,0,0,1,0,7.29,1.07,1.07,0,0,0,.58,1.14l4.25,2.12Z" transform="translate(-352 -264)"/><path class="cls-1" d="M392.18,324.83a1.06,1.06,0,0,0,0-.82l-2.46-5.94a1.09,1.09,0,0,0-1.41-.59l-3.82,1.58a15.69,15.69,0,0,0-2.34-2.34l1.58-3.82a1.08,1.08,0,0,0-.59-1.41L377.2,309a1.08,1.08,0,0,0-1.41.59l-1.58,3.82a15.17,15.17,0,0,0-3.3,0l-1.59-3.83a1.1,1.1,0,0,0-.58-.58,1.08,1.08,0,0,0-.83,0L362,311.49a1.08,1.08,0,0,0-.59,1.41l1.58,3.82a16.18,16.18,0,0,0-2.34,2.34l-3.82-1.58a1.08,1.08,0,0,0-1.41.59L352.94,324a1.11,1.11,0,0,0,0,.82,1.08,1.08,0,0,0,.58.59l3.82,1.58a15.17,15.17,0,0,0,0,3.3l-3.82,1.58a1.08,1.08,0,0,0-.58.59,1.11,1.11,0,0,0,0,.82l2.46,5.94a1.07,1.07,0,0,0,1.41.59l3.83-1.58a15.23,15.23,0,0,0,2.34,2.34l-1.58,3.82a1.06,1.06,0,0,0,0,.82,1.08,1.08,0,0,0,.58.59l5.94,2.46a1.09,1.09,0,0,0,1.41-.59l1.58-3.82a15.17,15.17,0,0,0,3.3,0l1.58,3.83a1.08,1.08,0,0,0,.59.58,1.09,1.09,0,0,0,.82,0l5.94-2.46a1.08,1.08,0,0,0,.59-1.41l-1.58-3.82a15.69,15.69,0,0,0,2.34-2.34l3.82,1.58a1.08,1.08,0,0,0,1.41-.58l2.46-5.94a1.07,1.07,0,0,0-.59-1.41l-3.82-1.58a15.26,15.26,0,0,0,0-3.31l3.83-1.58A1.08,1.08,0,0,0,392.18,324.83Zm-6,.49a1.07,1.07,0,0,0-.65,1.18,13.55,13.55,0,0,1,0,4.31,1.06,1.06,0,0,0,.65,1.17l3.59,1.49-1.63,3.94-3.6-1.49a1.08,1.08,0,0,0-1.29.37,13,13,0,0,1-3.05,3,1.08,1.08,0,0,0-.37,1.29l1.49,3.6-3.94,1.63-1.49-3.6a1.09,1.09,0,0,0-1-.66h-.18a12.93,12.93,0,0,1-4.3,0,1.11,1.11,0,0,0-1.18.65l-1.48,3.6-3.94-1.63,1.48-3.6a1.08,1.08,0,0,0-.37-1.29,13.18,13.18,0,0,1-3.05-3,1.08,1.08,0,0,0-1.29-.37l-3.6,1.49-1.63-3.94L359,332a1.07,1.07,0,0,0,.65-1.18,12.93,12.93,0,0,1,0-4.3,1.08,1.08,0,0,0-.65-1.18l-3.6-1.49,1.63-3.94,3.6,1.49a1.08,1.08,0,0,0,1.29-.37,13,13,0,0,1,3.05-3.05,1.08,1.08,0,0,0,.37-1.29l-1.49-3.6,3.94-1.63,1.49,3.59a1.07,1.07,0,0,0,1.17.66,13,13,0,0,1,4.31,0,1.1,1.1,0,0,0,1.18-.66l1.49-3.59,3.94,1.64-1.49,3.59a1.08,1.08,0,0,0,.37,1.29,12.8,12.8,0,0,1,3.05,3.05,1.08,1.08,0,0,0,1.29.37l3.6-1.49,1.63,3.94Z" transform="translate(-352 -264)"/><path class="cls-1" d="M357.4,297.48,354,299.67a1.09,1.09,0,0,0-.32,1.5l3.42,5.31a1.09,1.09,0,0,0,.68.47l.23,0a1.06,1.06,0,0,0,.58-.17l4.12-2.65a1.08,1.08,0,0,0-1.18-1.82l-3.2,2.07-2.25-3.5,3.2-2.06a1.09,1.09,0,0,0,.43-1.28,12.81,12.81,0,0,1-.76-4.16,1.09,1.09,0,0,0-.86-1l-3.72-.8.88-4.07,3.72.8a1.09,1.09,0,0,0,1.21-.59,12.28,12.28,0,0,1,2.41-3.47,1.09,1.09,0,0,0,.13-1.34l-2.07-3.21,3.5-2.25,2.06,3.2a1.1,1.1,0,0,0,1.28.43,12.86,12.86,0,0,1,4.16-.76,1.09,1.09,0,0,0,1-.85l.8-3.72,4.07.87-.81,3.72a1.08,1.08,0,1,0,2.12.46l1-4.78a1.07,1.07,0,0,0-.82-1.28l-6.18-1.33a1.06,1.06,0,0,0-1.28.82l-.86,4a14.87,14.87,0,0,0-3.17.58l-2.2-3.41a1.08,1.08,0,0,0-1.49-.32l-5.31,3.42a1.09,1.09,0,0,0-.47.68,1.07,1.07,0,0,0,.14.82l2.2,3.41A15.28,15.28,0,0,0,358.6,286l-4-.86a1.08,1.08,0,0,0-1.28.83L352,292.16a1.08,1.08,0,0,0,.83,1.28l4,.86A15,15,0,0,0,357.4,297.48Z" transform="translate(-352 -264)"/><path class="cls-1" d="M375.36,321.89a7.25,7.25,0,0,0-5.6,0,7.33,7.33,0,0,0-4,3.95v0a7.33,7.33,0,0,0,4,9.57,7.32,7.32,0,1,0,5.6-13.53Zm2,8.74a5.16,5.16,0,0,1-9.54-3.95l-1-.42,1,.41a5.16,5.16,0,1,1,9.53,4Z" transform="translate(-352 -264)"/><path class="cls-1" d="M410.94,277.11A16.07,16.07,0,1,0,427,293.17,16.09,16.09,0,0,0,410.94,277.11Zm0,30a13.91,13.91,0,1,1,13.91-13.91A13.92,13.92,0,0,1,410.94,307.08Z" transform="translate(-352 -264)"/><path class="cls-1" d="M418.38,291.87H412V281.71a1.08,1.08,0,0,0-2.16,0V293a1.08,1.08,0,0,0,1.08,1.08h7.49a1.08,1.08,0,0,0,0-2.16Z" transform="translate(-352 -264)"/><path class="cls-1" d="M371.14,288.66a4.59,4.59,0,0,1,3.09.8,1.08,1.08,0,0,0,1.24-1.76,6.78,6.78,0,0,0-4.56-1.19,6.7,6.7,0,0,0,.69,13.36c.24,0,.47,0,.71,0a1.08,1.08,0,0,0-.22-2.15,4.54,4.54,0,0,1-5-4,4.46,4.46,0,0,1,1-3.33A4.51,4.51,0,0,1,371.14,288.66Z" transform="translate(-352 -264)"/></svg>