<svg style="fill-rule:evenodd;clip-rule:evenodd;stroke-linejoin:round;stroke-miterlimit:2" viewBox="0 0 64 64"><g transform="translate(-456)"><path d="M456 0h64v64h-64z" style="fill:none"/><clipPath><path d="M456 0h64v64h-64z"/></clipPath><g clip-path="url(#a)"><path style="fill-rule:nonzero" d="M488 0c-17.553 0-32 14.447-32 32s14.447 32 32 32 32-14.447 32-32c-.017-17.547-14.454-31.983-32-32zM477.422 49.07h-8.3V23.766h8.4l-.1 25.305zm-4.217-28.753a4.109 4.109 0 01-.536.033c-2.406 0-4.385-1.981-4.385-4.385 0-2.406 1.979-4.385 4.385-4.385h.637c.177-.02.354-.033.528-.033 2.407 0 4.385 1.982 4.385 4.385 0 2.366-1.911 4.328-4.278 4.385h-.736zm34.544 28.753h-8.502v-13.39c0-3.346-1.205-5.723-4.251-5.723a4.632 4.632 0 00-4.318 3.08 6.028 6.028 0 00-.268 2.041v14.126h-8.402V23.899h8.402v3.582a8.346 8.346 0 017.565-4.15c5.523 0 9.673 3.581 9.673 11.38l.1 14.36z"/></g></g></svg>