<?xml version="1.0" encoding="UTF-8" standalone="no"?><!DOCTYPE svg PUBLIC "-//W3C//DTD SVG 1.1//EN" "http://www.w3.org/Graphics/SVG/1.1/DTD/svg11.dtd"><svg width="100%" height="100%" viewBox="0 0 64 64" version="1.1" xmlns="http://www.w3.org/2000/svg" xmlns:xlink="http://www.w3.org/1999/xlink" xml:space="preserve" xmlns:serif="http://www.serif.com/" style="fill-rule:evenodd;clip-rule:evenodd;stroke-linejoin:round;stroke-miterlimit:2;"><g transform="matrix(1,0,0,1,-456,0)"><rect id="linkedin" x="456" y="0" width="64" height="64" style="fill:none;"/><clipPath id="_clip1"><rect id="linkedin1" serif:id="linkedin" x="456" y="0" width="64" height="64"/></clipPath><g clip-path="url(#_clip1)"><g id="Path_50" transform="matrix(3.34728,0,0,3.34728,-943.431,-990.795)"><path d="M427.64,296C422.396,296 418.08,300.316 418.08,305.56C418.08,310.804 422.396,315.12 427.64,315.12C432.884,315.12 437.2,310.804 437.2,305.56C437.195,300.318 432.882,296.005 427.64,296ZM424.48,310.66L422,310.66L422,303.1L424.51,303.1L424.48,310.66ZM423.22,302.07C423.167,302.077 423.113,302.08 423.06,302.08C422.341,302.08 421.75,301.488 421.75,300.77C421.75,300.051 422.341,299.46 423.06,299.46C423.066,299.46 423.073,299.46 423.08,299.46L423.25,299.46C423.303,299.454 423.356,299.45 423.408,299.45C424.127,299.45 424.718,300.042 424.718,300.76C424.718,301.467 424.147,302.053 423.44,302.07L423.22,302.07ZM433.54,310.66L431,310.66L431,306.66C431,305.66 430.64,304.95 429.73,304.95C429.151,304.955 428.633,305.324 428.44,305.87C428.379,306.067 428.351,306.274 428.36,306.48L428.36,310.7L425.85,310.7L425.85,303.14L428.36,303.14L428.36,304.21C428.823,303.41 429.696,302.931 430.62,302.97C432.27,302.97 433.51,304.04 433.51,306.37L433.54,310.66Z" style="fill-rule:nonzero;"/></g></g></g></svg>