<svg viewBox="0 0 197 45"><path d="M0 0h197v45H0z" style="fill:none"/><clipPath><path d="M0 0h197v45H0z"/></clipPath><g clip-path="url(#a)"><path class="logo__text" d="M12.4 33.2l.6-2.3c-1.6 2.1-4 3.4-6.6 3.5-3.7 0-6.4-2.8-6.4-6.7 0-5.7 4.3-10 9-10 2.9-.1 5.5 1.7 6.3 4.5l2.8-10.4c.1-.4.4-.7.8-.7s.7.3.7.6v.3l-5.7 21.5c-.1.4-.4.7-.8.7s-.7-.3-.7-.6c-.1-.2-.1-.3 0-.4m2.1-8.6c.1-3-2.2-5.5-5.2-5.6H9c-4.3 0-7.4 4-7.4 8.4 0 3.3 2 5.5 4.9 5.5 4 0 8-4 8-8.3M19.1 33.4c-.1.4-.4.7-.8.7s-.7-.3-.7-.6v-.3l3.9-14.6c.1-.4.4-.7.8-.7s.7.3.7.6v.3l-3.9 14.6zm4.1-18c-.6 0-.9-.4-.8-.9l.1-.3c.1-.5.6-.8 1.1-.7.6 0 .9.4.8.9l-.1.3c-.2.4-.6.7-1.1.7M27.2 22.5c1.9-2.9 5.3-4.8 7.7-4.8.4 0 .8.2.8.6v.1c0 .5-.4.9-1.1.9-4.3.6-7.7 3.8-8.7 8l-1.6 5.9c-.1.4-.4.7-.8.7s-.7-.3-.7-.6V33l3.9-14.6c.1-.4.4-.7.8-.7s.7.3.7.6v.3l-1 3.9zM45.6 31.1c.2-.1.4-.2.6-.2.4 0 .6.3.7.6 0 .2-.1.5-.3.6-1.7 1.4-3.8 2.2-6 2.2-4.1 0-7-2.8-7-6.7 0-5 4-10 9.2-10 4 0 6 2.8 6 6.1 0 .7-.1 1.4-.2 2.1-.1.4-.5.8-.9.7H35.3c0 .3-.1.7-.1 1.1-.2 2.8 1.9 5.1 4.7 5.3h.6c1.9 0 3.7-.6 5.1-1.8m1.6-6c.1-.4.1-.9.1-1.3 0-2.6-1.4-4.8-4.5-4.8-3.6 0-6.3 2.8-7.2 6.1h11.6zM57.3 34.3c-3.7.1-6.8-2.8-6.9-6.6v-.3c0-5.2 4.4-9.8 9.4-9.8 2.4-.1 4.6 1.1 5.9 3.2.1.2.2.4.2.6 0 .4-.3.7-.7.7-.3 0-.6-.1-.8-.4-1-1.7-2.8-2.7-4.8-2.6-4.1 0-7.6 3.9-7.6 8.3-.2 2.9 2 5.4 4.9 5.5h.4c1.8 0 3.5-.7 4.8-1.9.2-.1.4-.2.6-.2.4 0 .7.3.7.7 0 .2-.1.4-.3.6-1.6 1.4-3.6 2.2-5.8 2.2M70.3 13.5c.1-.4.4-.7.8-.7s.7.3.7.6v.3l-1.2 4.4h4.7c.4 0 .7.3.7.7 0 .4-.3.7-.7.7h-5l-2.7 10.2c-.1.4-.1.9-.2 1.3 0 1.3 1 1.9 2.6 1.9.4 0 .9-.1 1.3-.2.6-.2 1 .1 1 .6 0 .3-.2.6-.6.7-.6.2-1.3.3-2 .3-2.1 0-3.8-1-3.8-3.2 0-.5.1-1 .2-1.5l2.7-10.1h-1.6c-.4 0-.7-.3-.7-.7 0-.4.3-.7.7-.7h1.9l1.2-4.6zM83.7 29.4c0-.8-.8-1.4-2.4-2.1-2.8-1.1-4.8-2.2-4.8-4.7 0-3.1 2.5-5.5 6.5-5.5 1.9 0 3.7.6 5.3 1.6.8.4 1.1 1.4.7 2.2-.3.5-.8.9-1.4.9-.4 0-.7-.2-1-.4-1.1-.8-2.5-1.3-3.9-1.3-1.6 0-2.5.8-2.5 1.9 0 .8.7 1.4 2.6 2.2 2.5 1.1 4.5 2.2 4.5 4.6 0 3.4-2.8 5.6-6.6 5.6-2.3 0-4.5-.8-6.4-2.2-.7-.5-.9-1.5-.4-2.3.3-.4.7-.7 1.2-.7.4 0 .8.2 1.1.4 1.3 1.1 3 1.8 4.8 1.8 1.6 0 2.7-.8 2.7-2M96.8 34.3c-4.3 0-7.6-2.8-7.6-7.4 0-5.4 4.4-9.8 9.8-9.9 2.2-.1 4.3.8 5.7 2.4.4.4.6.9.7 1.5 0 1-.8 1.8-1.8 1.8-.5 0-1-.2-1.3-.6-.8-1.2-2.2-1.8-3.6-1.8-3 0-5.7 3.1-5.7 6.6-.1 2.1 1.5 4 3.6 4.1h.3c1.3 0 2.5-.4 3.5-1.3.3-.3.7-.4 1.2-.4.9 0 1.5.7 1.5 1.6 0 .5-.2 1-.6 1.3-1.6 1.4-3.6 2.2-5.7 2.1M114.7 32.4l.2-.6c-1.4 1.6-3.3 2.5-5.4 2.5-2.8 0-5-1.8-5-4.5 0-3.8 3.1-6 7.2-6 1.7 0 3.5.3 5.1.8l.1-.3c.1-.5.2-.9.2-1.4 0-1.5-1.1-2.5-3.7-2.5-1.1 0-2.2.2-3.3.5-.2.1-.4.1-.7.1-.8 0-1.5-.6-1.5-1.4v-.1c0-.7.5-1.3 1.2-1.5 1.6-.5 3.3-.8 5-.8 4.3 0 6.6 1.9 6.6 5.1 0 .8-.1 1.6-.3 2.4l-2 7.5c-.2 1-1.1 1.8-2.1 1.9-.8.1-1.5-.4-1.6-1.2-.1-.1-.1-.3 0-.5m1.3-4.8l.2-.7c-1.3-.4-2.6-.6-4-.6-2.3 0-4 1.2-4 3.1 0 1.3 1 2.2 2.7 2.2 2.4-.1 4.4-1.7 5.1-4M124.7 32.2c-.2 1-1.1 1.8-2.1 1.9-1.3 0-1.9-.9-1.5-2.4l5.1-18.8c.2-1.1 1.1-1.9 2.1-1.9 1.3 0 1.9.9 1.5 2.4l-5.1 18.8zM139.7 30.2c.4-.2.8-.3 1.2-.4.8 0 1.4.6 1.4 1.4v.1c0 .5-.3 1-.7 1.3-1.6 1.2-3.6 1.8-5.6 1.7-4.6 0-7.5-2.8-7.5-7.2 0-4.9 4-10 9.7-10 4.3 0 6.6 2.8 6.6 6.4 0 .6-.1 1.2-.2 1.8-.1 1-.9 1.7-1.9 1.7h-10.6v.3c.1 2.3 1.6 3.9 4.3 3.9 1.2 0 2.3-.3 3.3-1m1.4-5.7c.1-.4.2-.8.2-1.2.1-1.6-1.1-3.1-2.8-3.2h-.5c-2.6.1-4.8 1.8-5.4 4.3h8.5v.1z"/><path class="logo__logo" d="M174.5 0C162.1 0 152 10 152 22.4c0 1.1.1 2.2.2 3.3l6.9-6.9c1.5-1.5 3.9-1.5 5.4 0l5.8 5.8 7.3-7.3-2.8-1c-.5-.2-.8-.8-.6-1.4.1-.3.4-.6.7-.6l13.7-4c.4-.1.8 0 1 .3.3.3.4.7.3 1.1l-4 13.7c-.1.4-.5.8-1 .8s-.9-.3-1-.7l-1-2.8-10 10c-1.5 1.5-3.9 1.5-5.4 0l-5.8-5.8-6.9 6.9c6.1 10.8 19.9 14.5 30.7 8.4s14.5-19.9 8.4-30.7C190 4.3 182.5 0 174.5 0M191.6 40.3h-.7v2h-.3v-2h-.7v-.2h1.6v.2h.1zm2.6 2h-.3v-1.9l-.7 1.9h-.2l-.7-1.9v1.9h-.3v-2.2h.5l.6 1.6.6-1.6h.5v2.2z"/></g></svg>