<?xml version="1.0" encoding="UTF-8" standalone="no"?><!DOCTYPE svg PUBLIC "-//W3C//DTD SVG 1.1//EN" "http://www.w3.org/Graphics/SVG/1.1/DTD/svg11.dtd"><svg width="100%" height="100%" viewBox="0 0 197 45" version="1.1" xmlns="http://www.w3.org/2000/svg" xmlns:xlink="http://www.w3.org/1999/xlink" xml:space="preserve" xmlns:serif="http://www.serif.com/" style="fill-rule:evenodd;clip-rule:evenodd;stroke-linejoin:round;stroke-miterlimit:2;"><rect id="Artboard1" x="0" y="0" width="197" height="45" style="fill:none;"/><clipPath id="_clip1"><rect id="Artboard11" serif:id="Artboard1" x="0" y="0" width="197" height="45"/></clipPath><g clip-path="url(#_clip1)"><g><path id="Path_1" d="M12.4,33.2l0.6,-2.3c-1.6,2.1 -4,3.4 -6.6,3.5c-3.7,0 -6.4,-2.8 -6.4,-6.7c0,-5.7 4.3,-10 9,-10c2.9,-0.1 5.5,1.7 6.3,4.5l2.8,-10.4c0.1,-0.4 0.4,-0.7 0.8,-0.7c0.4,0 0.7,0.3 0.7,0.6l0,0.3l-5.7,21.5c-0.1,0.4 -0.4,0.7 -0.8,0.7c-0.4,0 -0.7,-0.3 -0.7,-0.6c-0.1,-0.2 -0.1,-0.3 0,-0.4m2.1,-8.6c0.1,-3 -2.2,-5.5 -5.2,-5.6l-0.3,0c-4.3,0 -7.4,4 -7.4,8.4c0,3.3 2,5.5 4.9,5.5c4,0 8,-4 8,-8.3" style="fill:#47545d;fill-rule:nonzero;"/><path id="Path_2" d="M19.1,33.4c-0.1,0.4 -0.4,0.7 -0.8,0.7c-0.4,0 -0.7,-0.3 -0.7,-0.6l0,-0.3l3.9,-14.6c0.1,-0.4 0.4,-0.7 0.8,-0.7c0.4,0 0.7,0.3 0.7,0.6l0,0.3l-3.9,14.6Zm4.1,-18c-0.6,0 -0.9,-0.4 -0.8,-0.9l0.1,-0.3c0.1,-0.5 0.6,-0.8 1.1,-0.7c0.6,0 0.9,0.4 0.8,0.9l-0.1,0.3c-0.2,0.4 -0.6,0.7 -1.1,0.7" style="fill:#47545d;fill-rule:nonzero;"/><path id="Path_3" d="M27.2,22.5c1.9,-2.9 5.3,-4.8 7.7,-4.8c0.4,0 0.8,0.2 0.8,0.6l0,0.1c0,0.5 -0.4,0.9 -1.1,0.9c-4.3,0.6 -7.7,3.8 -8.7,8l-1.6,5.9c-0.1,0.4 -0.4,0.7 -0.8,0.7c-0.4,0 -0.7,-0.3 -0.7,-0.6l0,-0.3l3.9,-14.6c0.1,-0.4 0.4,-0.7 0.8,-0.7c0.4,0 0.7,0.3 0.7,0.6l0,0.3l-1,3.9Z" style="fill:#47545d;fill-rule:nonzero;"/><path id="Path_4" d="M45.6,31.1c0.2,-0.1 0.4,-0.2 0.6,-0.2c0.4,0 0.6,0.3 0.7,0.6c0,0.2 -0.1,0.5 -0.3,0.6c-1.7,1.4 -3.8,2.2 -6,2.2c-4.1,0 -7,-2.8 -7,-6.7c0,-5 4,-10 9.2,-10c4,0 6,2.8 6,6.1c0,0.7 -0.1,1.4 -0.2,2.1c-0.1,0.4 -0.5,0.8 -0.9,0.7l-12.4,0c0,0.3 -0.1,0.7 -0.1,1.1c-0.2,2.8 1.9,5.1 4.7,5.3l0.6,0c1.9,0 3.7,-0.6 5.1,-1.8m1.6,-6c0.1,-0.4 0.1,-0.9 0.1,-1.3c0,-2.6 -1.4,-4.8 -4.5,-4.8c-3.6,0 -6.3,2.8 -7.2,6.1l11.6,0Z" style="fill:#47545d;fill-rule:nonzero;"/><path id="Path_5" d="M57.3,34.3c-3.7,0.1 -6.8,-2.8 -6.9,-6.6l0,-0.3c0,-5.2 4.4,-9.8 9.4,-9.8c2.4,-0.1 4.6,1.1 5.9,3.2c0.1,0.2 0.2,0.4 0.2,0.6c0,0.4 -0.3,0.7 -0.7,0.7c-0.3,0 -0.6,-0.1 -0.8,-0.4c-1,-1.7 -2.8,-2.7 -4.8,-2.6c-4.1,0 -7.6,3.9 -7.6,8.3c-0.2,2.9 2,5.4 4.9,5.5l0.4,0c1.8,0 3.5,-0.7 4.8,-1.9c0.2,-0.1 0.4,-0.2 0.6,-0.2c0.4,0 0.7,0.3 0.7,0.7c0,0.2 -0.1,0.4 -0.3,0.6c-1.6,1.4 -3.6,2.2 -5.8,2.2" style="fill:#47545d;fill-rule:nonzero;"/><path id="Path_6" d="M70.3,13.5c0.1,-0.4 0.4,-0.7 0.8,-0.7c0.4,0 0.7,0.3 0.7,0.6l0,0.3l-1.2,4.4l4.7,0c0.4,0 0.7,0.3 0.7,0.7c0,0.4 -0.3,0.7 -0.7,0.7l-5,0l-2.7,10.2c-0.1,0.4 -0.1,0.9 -0.2,1.3c0,1.3 1,1.9 2.6,1.9c0.4,0 0.9,-0.1 1.3,-0.2c0.6,-0.2 1,0.1 1,0.6c0,0.3 -0.2,0.6 -0.6,0.7c-0.6,0.2 -1.3,0.3 -2,0.3c-2.1,0 -3.8,-1 -3.8,-3.2c0,-0.5 0.1,-1 0.2,-1.5l2.7,-10.1l-1.6,0c-0.4,0 -0.7,-0.3 -0.7,-0.7c0,-0.4 0.3,-0.7 0.7,-0.7l1.9,0l1.2,-4.6Z" style="fill:#47545d;fill-rule:nonzero;"/><path id="Path_7" d="M83.7,29.4c0,-0.8 -0.8,-1.4 -2.4,-2.1c-2.8,-1.1 -4.8,-2.2 -4.8,-4.7c0,-3.1 2.5,-5.5 6.5,-5.5c1.9,0 3.7,0.6 5.3,1.6c0.8,0.4 1.1,1.4 0.7,2.2c-0.3,0.5 -0.8,0.9 -1.4,0.9c-0.4,0 -0.7,-0.2 -1,-0.4c-1.1,-0.8 -2.5,-1.3 -3.9,-1.3c-1.6,0 -2.5,0.8 -2.5,1.9c0,0.8 0.7,1.4 2.6,2.2c2.5,1.1 4.5,2.2 4.5,4.6c0,3.4 -2.8,5.6 -6.6,5.6c-2.3,0 -4.5,-0.8 -6.4,-2.2c-0.7,-0.5 -0.9,-1.5 -0.4,-2.3c0.3,-0.4 0.7,-0.7 1.2,-0.7c0.4,0 0.8,0.2 1.1,0.4c1.3,1.1 3,1.8 4.8,1.8c1.6,0 2.7,-0.8 2.7,-2" style="fill:#47545d;fill-rule:nonzero;"/><path id="Path_8" d="M96.8,34.3c-4.3,0 -7.6,-2.8 -7.6,-7.4c0,-5.4 4.4,-9.8 9.8,-9.9c2.2,-0.1 4.3,0.8 5.7,2.4c0.4,0.4 0.6,0.9 0.7,1.5c0,1 -0.8,1.8 -1.8,1.8c-0.5,0 -1,-0.2 -1.3,-0.6c-0.8,-1.2 -2.2,-1.8 -3.6,-1.8c-3,0 -5.7,3.1 -5.7,6.6c-0.1,2.1 1.5,4 3.6,4.1l0.3,0c1.3,0 2.5,-0.4 3.5,-1.3c0.3,-0.3 0.7,-0.4 1.2,-0.4c0.9,0 1.5,0.7 1.5,1.6c0,0.5 -0.2,1 -0.6,1.3c-1.6,1.4 -3.6,2.2 -5.7,2.1" style="fill:#47545d;fill-rule:nonzero;"/><path id="Path_9" d="M114.7,32.4l0.2,-0.6c-1.4,1.6 -3.3,2.5 -5.4,2.5c-2.8,0 -5,-1.8 -5,-4.5c0,-3.8 3.1,-6 7.2,-6c1.7,0 3.5,0.3 5.1,0.8l0.1,-0.3c0.1,-0.5 0.2,-0.9 0.2,-1.4c0,-1.5 -1.1,-2.5 -3.7,-2.5c-1.1,0 -2.2,0.2 -3.3,0.5c-0.2,0.1 -0.4,0.1 -0.7,0.1c-0.8,0 -1.5,-0.6 -1.5,-1.4l0,-0.1c0,-0.7 0.5,-1.3 1.2,-1.5c1.6,-0.5 3.3,-0.8 5,-0.8c4.3,0 6.6,1.9 6.6,5.1c0,0.8 -0.1,1.6 -0.3,2.4l-2,7.5c-0.2,1 -1.1,1.8 -2.1,1.9c-0.8,0.1 -1.5,-0.4 -1.6,-1.2c-0.1,-0.1 -0.1,-0.3 0,-0.5m1.3,-4.8l0.2,-0.7c-1.3,-0.4 -2.6,-0.6 -4,-0.6c-2.3,0 -4,1.2 -4,3.1c0,1.3 1,2.2 2.7,2.2c2.4,-0.1 4.4,-1.7 5.1,-4" style="fill:#47545d;fill-rule:nonzero;"/><path id="Path_10" d="M124.7,32.2c-0.2,1 -1.1,1.8 -2.1,1.9c-1.3,0 -1.9,-0.9 -1.5,-2.4l5.1,-18.8c0.2,-1.1 1.1,-1.9 2.1,-1.9c1.3,0 1.9,0.9 1.5,2.4l-5.1,18.8Z" style="fill:#47545d;fill-rule:nonzero;"/><path id="Path_11" d="M139.7,30.2c0.4,-0.2 0.8,-0.3 1.2,-0.4c0.8,0 1.4,0.6 1.4,1.4l0,0.1c0,0.5 -0.3,1 -0.7,1.3c-1.6,1.2 -3.6,1.8 -5.6,1.7c-4.6,0 -7.5,-2.8 -7.5,-7.2c0,-4.9 4,-10 9.7,-10c4.3,0 6.6,2.8 6.6,6.4c0,0.6 -0.1,1.2 -0.2,1.8c-0.1,1 -0.9,1.7 -1.9,1.7l-10.6,0l0,0.3c0.1,2.3 1.6,3.9 4.3,3.9c1.2,0 2.3,-0.3 3.3,-1m1.4,-5.7c0.1,-0.4 0.2,-0.8 0.2,-1.2c0.1,-1.6 -1.1,-3.1 -2.8,-3.2l-0.5,0c-2.6,0.1 -4.8,1.8 -5.4,4.3l8.5,0l0,0.1Z" style="fill:#47545d;fill-rule:nonzero;"/></g><path id="Path_12" d="M174.5,0c-12.4,0 -22.5,10 -22.5,22.4c0,1.1 0.1,2.2 0.2,3.3l6.9,-6.9c1.5,-1.5 3.9,-1.5 5.4,0l5.8,5.8l7.3,-7.3l-2.8,-1c-0.5,-0.2 -0.8,-0.8 -0.6,-1.4c0.1,-0.3 0.4,-0.6 0.7,-0.6l13.7,-4c0.4,-0.1 0.8,0 1,0.3c0.3,0.3 0.4,0.7 0.3,1.1l-4,13.7c-0.1,0.4 -0.5,0.8 -1,0.8c-0.5,0 -0.9,-0.3 -1,-0.7l-1,-2.8l-10,10c-1.5,1.5 -3.9,1.5 -5.4,0l-5.8,-5.8l-6.9,6.9c6.1,10.8 19.9,14.5 30.7,8.4c10.8,-6.1 14.5,-19.9 8.4,-30.7c-3.9,-7.2 -11.4,-11.5 -19.4,-11.5" style="fill:#3db6e5;fill-rule:nonzero;"/><path id="Path_13" d="M191.6,40.3l-0.7,0l0,2l-0.3,0l0,-2l-0.7,0l0,-0.2l1.6,0l0,0.2l0.1,0Zm2.6,2l-0.3,0l0,-1.9l-0.7,1.9l-0.2,0l-0.7,-1.9l0,1.9l-0.3,0l0,-2.2l0.5,0l0.6,1.6l0.6,-1.6l0.5,0l0,2.2Z" style="fill:#3db6e5;fill-rule:nonzero;"/></g></svg>