<svg id="Layer_1" data-name="Layer 1" xmlns="http://www.w3.org/2000/svg" viewBox="0 0 87.24 93.94"><defs><style>.cls-1{fill:#57c1e7;}</style></defs><title>21st-century shopping</title><path class="cls-1" d="M437.85,287.23l-.34-.3a5.17,5.17,0,0,0-2.47-1.19l3-2.86a5.54,5.54,0,0,0,0-7.77l-.32-.34a5.53,5.53,0,0,0-7.37-.68v-4h0v-4a7.05,7.05,0,0,0-7.06-7.07H389.44a7.07,7.07,0,0,0-7.06,7.06v18.47h0a4.15,4.15,0,0,0-3.42,2.78c-1.14,3.66-2,6.38-2.63,8.61-1.25,4.18-1.94,6.48-3.24,9.85-1.39,3.61-1.5,8-1.58,11.44a18.77,18.77,0,0,1-.47,5c-.19.37-2.15,3.51-3.71,6l-3-3a1.07,1.07,0,0,0-1.53,0l-10,10a1.07,1.07,0,0,0,0,1.52l16,16a1.06,1.06,0,0,0,1.52,0,1.07,1.07,0,0,0,0-1.52l-15.19-15.2,8.44-8.45,24.24,24.25a1,1,0,0,0,.77.31,1.07,1.07,0,0,0,.77-.33l4.57-4.7c14.75.89,21.24-8.12,23.71-11.52.12-.18.24-.34.34-.48h6.45c2.81,0,6.07-3.08,6.07-7.06v-3.11a5,5,0,0,0,1.43.25h.3a3,3,0,0,0,2.12-1l4-4.62a5.18,5.18,0,0,0-.63-7.27l-.32-.27a5.05,5.05,0,0,0-2.28-1.13l3.42-3.94a5.25,5.25,0,0,0-.62-7.35l-.34-.3a5.22,5.22,0,0,0-2.06-1.1l3-3.48A5.25,5.25,0,0,0,437.85,287.23Zm-10.26,11.12.35.3h0a7.61,7.61,0,0,0,2,1.2L426,304.3a3.38,3.38,0,0,0-.51,3.25,6.83,6.83,0,0,0,2.06,3l.34.3h0a7.08,7.08,0,0,0,2.25,1.31l-.15.14-4,4.6a3.08,3.08,0,0,0-.69,2.26,5,5,0,0,0,.46,1.66H391.72a29.81,29.81,0,0,0-4.9-11.59,57.73,57.73,0,0,0,2.74-14,13.41,13.41,0,0,0-2.78-9,4.27,4.27,0,0,0-2.24-1.58V271.14h43.72V276l-3.05,2.88c-1.57,1.5-1.11,4.47,1.05,6.75l.33.35a7.36,7.36,0,0,0,3,1.95L426,292.07C424.67,293.66,425.36,296.42,427.59,298.35Zm6.11-23.22a3.41,3.41,0,0,1,2.51,1.11l.35.37a3.36,3.36,0,0,1,0,4.72l-4.77,4.51a1.48,1.48,0,0,1-1.34.14,5.19,5.19,0,0,1-2.3-1.46h0l-.33-.35c-1.34-1.41-1.71-3.15-1.13-3.69l4.76-4.49A3.37,3.37,0,0,1,433.7,275.13ZM386,262.6a4.87,4.87,0,0,1,3.47-1.44h33.92a4.9,4.9,0,0,1,4.9,4.9V269H384.54v-2.92A4.86,4.86,0,0,1,386,262.6Zm7.47,82.19c-.47,0-.5,0-4.95,4.6l-19.63-19.63c1.44-2.29,3.9-6.21,4.1-6.65.56-1.2.61-3.25.67-5.84.09-3.33.19-7.47,1.44-10.72,1.33-3.45,2.07-5.92,3.3-10,.67-2.22,1.48-4.94,2.62-8.59a2,2,0,0,1,1.7-1.29,2.41,2.41,0,0,1,2.36.89,11.33,11.33,0,0,1,2.36,7.55,56.31,56.31,0,0,1-2.82,14,1.1,1.1,0,0,0,.18,1c3,3.83,7,12.65,4.77,23.33a.88.88,0,0,0-.06.27,32.6,32.6,0,0,1-1.06,3.81,1.07,1.07,0,0,0,.66,1.37,1.13,1.13,0,0,0,.36.06,1.09,1.09,0,0,0,1-.72,33.2,33.2,0,0,0,1-3.27h23.82C412.56,338.57,406.39,345.74,393.44,344.79Zm34.82-20.87v4c0,2.64-2.15,4.9-3.91,4.9H391.86a32.26,32.26,0,0,0,.21-9.81h35.28l.07,0,.16.15.33.29h0c.13.11.26.19.39.29A1.42,1.42,0,0,0,428.26,323.92Zm8-10.12a3,3,0,0,1,.38,4.22l-4,4.61a1,1,0,0,1-.65.26,3.9,3.9,0,0,1-2.67-1.1l-.33-.29a3.91,3.91,0,0,1-1.48-2.47.94.94,0,0,1,.16-.68l4-4.6a3,3,0,0,1,4.26-.24Zm.18-12.7a3.08,3.08,0,0,1,.39,4.31l-4.08,4.69a.94.94,0,0,1-.67.27,4,4,0,0,1-2.72-1.12L429,309a4.61,4.61,0,0,1-1.41-2,1.34,1.34,0,0,1,.07-1.21l4.06-4.67a3.1,3.1,0,0,1,4.35-.26Zm.39-7.92-4.08,4.69a1.31,1.31,0,0,1-1.18.25,4.61,4.61,0,0,1-2.21-1.1l-.35-.3c-1.33-1.15-1.81-2.69-1.34-3.24l4.06-4.67a3.1,3.1,0,0,1,4.35-.26l.36.32A3.08,3.08,0,0,1,436.83,293.18Z" transform="translate(-352.45 -259)"/><path class="cls-1" d="M409.39,326.84h-6a1.08,1.08,0,0,0,0,2.16h6a1.08,1.08,0,0,0,0-2.16Z" transform="translate(-352.45 -259)"/><path class="cls-1" d="M362.74,335.13a1.09,1.09,0,0,0,0,1.53l2,2a1.09,1.09,0,0,0,1.52,0,1.09,1.09,0,0,0,0-1.53l-2-2A1.09,1.09,0,0,0,362.74,335.13Z" transform="translate(-352.45 -259)"/></svg>