<svg data-name="Layer 1" viewBox="0 0 87.24 93.94"><defs><style>.cls-1{fill:#57c1e7}</style></defs><path d="M437.85 287.23l-.34-.3a5.17 5.17 0 00-2.47-1.19l3-2.86a5.54 5.54 0 000-7.77l-.32-.34a5.53 5.53 0 00-7.37-.68v-8a7.05 7.05 0 00-7.06-7.07h-33.85a7.07 7.07 0 00-7.06 7.06v18.47a4.15 4.15 0 00-3.42 2.78c-1.14 3.66-2 6.38-2.63 8.61-1.25 4.18-1.94 6.48-3.24 9.85-1.39 3.61-1.5 8-1.58 11.44a18.77 18.77 0 01-.47 5c-.19.37-2.15 3.51-3.71 6l-3-3a1.07 1.07 0 00-1.53 0l-10 10a1.07 1.07 0 000 1.52l16 16a1.06 1.06 0 001.52 0 1.07 1.07 0 000-1.52l-15.19-15.2 8.44-8.45 24.24 24.25a1 1 0 00.77.31 1.07 1.07 0 00.77-.33l4.57-4.7c14.75.89 21.24-8.12 23.71-11.52.12-.18.24-.34.34-.48h6.45c2.81 0 6.07-3.08 6.07-7.06v-3.11a5 5 0 001.43.25h.3a3 3 0 002.12-1l4-4.62a5.18 5.18 0 00-.63-7.27l-.32-.27a5.05 5.05 0 00-2.28-1.13l3.42-3.94a5.25 5.25 0 00-.62-7.35l-.34-.3a5.22 5.22 0 00-2.06-1.1l3-3.48a5.25 5.25 0 00-.66-7.5zm-10.26 11.12l.35.3a7.61 7.61 0 002 1.2L426 304.3a3.38 3.38 0 00-.51 3.25 6.83 6.83 0 002.06 3l.34.3a7.08 7.08 0 002.25 1.31l-.15.14-4 4.6a3.08 3.08 0 00-.69 2.26 5 5 0 00.46 1.66h-34.04a29.81 29.81 0 00-4.9-11.59 57.73 57.73 0 002.74-14 13.41 13.41 0 00-2.78-9 4.27 4.27 0 00-2.24-1.58v-13.51h43.72V276l-3.05 2.88c-1.57 1.5-1.11 4.47 1.05 6.75l.33.35a7.36 7.36 0 003 1.95l-3.59 4.14c-1.33 1.59-.64 4.35 1.59 6.28zm6.11-23.22a3.41 3.41 0 012.51 1.11l.35.37a3.36 3.36 0 010 4.72l-4.77 4.51a1.48 1.48 0 01-1.34.14 5.19 5.19 0 01-2.3-1.46l-.33-.35c-1.34-1.41-1.71-3.15-1.13-3.69l4.76-4.49a3.37 3.37 0 012.25-.86zM386 262.6a4.87 4.87 0 013.47-1.44h33.92a4.9 4.9 0 014.9 4.9V269h-43.75v-2.92a4.86 4.86 0 011.46-3.48zm7.47 82.19c-.47 0-.5 0-4.95 4.6l-19.63-19.63c1.44-2.29 3.9-6.21 4.1-6.65.56-1.2.61-3.25.67-5.84.09-3.33.19-7.47 1.44-10.72 1.33-3.45 2.07-5.92 3.3-10 .67-2.22 1.48-4.94 2.62-8.59a2 2 0 011.7-1.29 2.41 2.41 0 012.36.89 11.33 11.33 0 012.36 7.55 56.31 56.31 0 01-2.82 14 1.1 1.1 0 00.18 1c3 3.83 7 12.65 4.77 23.33a.88.88 0 00-.06.27 32.6 32.6 0 01-1.06 3.81 1.07 1.07 0 00.66 1.37 1.13 1.13 0 00.36.06 1.09 1.09 0 001-.72 33.2 33.2 0 001-3.27h23.82c-2.73 3.61-8.9 10.78-21.85 9.83zm34.82-20.87v4c0 2.64-2.15 4.9-3.91 4.9h-32.52a32.26 32.26 0 00.21-9.81h35.35l.16.15.33.29c.13.11.26.19.39.29a1.42 1.42 0 00-.04.18zm8-10.12a3 3 0 01.38 4.22l-4 4.61a1 1 0 01-.65.26 3.9 3.9 0 01-2.67-1.1l-.33-.29a3.91 3.91 0 01-1.48-2.47.94.94 0 01.16-.68l4-4.6a3 3 0 014.26-.24zm.18-12.7a3.08 3.08 0 01.39 4.31l-4.08 4.69a.94.94 0 01-.67.27 4 4 0 01-2.72-1.12L429 309a4.61 4.61 0 01-1.41-2 1.34 1.34 0 01.07-1.21l4.06-4.67a3.1 3.1 0 014.35-.26zm.39-7.92l-4.08 4.69a1.31 1.31 0 01-1.18.25 4.61 4.61 0 01-2.21-1.1l-.35-.3c-1.33-1.15-1.81-2.69-1.34-3.24l4.06-4.67a3.1 3.1 0 014.35-.26l.36.32a3.08 3.08 0 01.36 4.31z" class="cls-1" transform="translate(-352.45 -259)"/><path d="M409.39 326.84h-6a1.08 1.08 0 000 2.16h6a1.08 1.08 0 000-2.16zM362.74 335.13a1.09 1.09 0 000 1.53l2 2a1.09 1.09 0 001.52 0 1.09 1.09 0 000-1.53l-2-2a1.09 1.09 0 00-1.52 0z" class="cls-1" transform="translate(-352.45 -259)"/></svg>