<svg id="Layer_1" data-name="Layer 1" xmlns="http://www.w3.org/2000/svg" viewBox="0 0 95.42 62.98"><defs><style>.cls-1{fill:#58c1e8;}</style></defs><title>operations icon</title><path class="cls-1" d="M392.65,301.36H350.08a1.08,1.08,0,0,0-1.08,1.08V336.9a1.08,1.08,0,0,0,1.08,1.08h42.57a1.08,1.08,0,0,0,1.08-1.08V302.44A1.08,1.08,0,0,0,392.65,301.36Zm-15.27,2.16v6h-12v-6Zm14.19,32.3H351.16v-32.3h12v7a1.09,1.09,0,0,0,1.08,1.08h14.19a1.08,1.08,0,0,0,1.08-1.08v-7h12Z" transform="translate(-349 -275)"/><path class="cls-1" d="M439.28,301.36h-1.39l-6.64-11.95a5.16,5.16,0,0,0-4.25-2.24H412V276.08A1.08,1.08,0,0,0,410.9,275H356.16a1.09,1.09,0,0,0-1.08,1.08v22.3a1.08,1.08,0,1,0,2.16,0V277.16h52.58v11.08h0v35.4H396.71a1.08,1.08,0,1,0,0,2.16H418c0,.35-.06.7-.06,1.05A9.23,9.23,0,0,0,427.1,336h0a9.2,9.2,0,0,0,9.16-9.25c0-.33,0-.65-.05-1h3a5.14,5.14,0,0,0,5.14-5.13V306.92C444.42,303.6,442.35,301.36,439.28,301.36Zm-5.13,25.44a7.05,7.05,0,0,1-7,7.08h0a7.05,7.05,0,0,1,0-14.1h0a7,7,0,0,1,7,7Zm8.11-6.11a3,3,0,0,1-3,3h-3.54a9.21,9.21,0,0,0-8.66-6h0a9.2,9.2,0,0,0-8.6,6H412V289.33h15a2.94,2.94,0,0,1,2.41,1.21l6.9,12.42a1.07,1.07,0,0,0,.94.56h2c1.89,0,3,1.24,3,3.4Z" transform="translate(-349 -275)"/><path class="cls-1" d="M426,295.75a1.08,1.08,0,0,0-1.79,1.2l3.87,5.81v.62H415a1.08,1.08,0,1,0,0,2.16h14.19a1.08,1.08,0,0,0,1.08-1.08v-2a1,1,0,0,0-.18-.6Z" transform="translate(-349 -275)"/><path class="cls-1" d="M371.46,317.36H355.27a1.08,1.08,0,0,0-1.08,1.08v13.11a1.09,1.09,0,0,0,1.08,1.08h16.19a1.08,1.08,0,0,0,1.08-1.08V318.44A1.08,1.08,0,0,0,371.46,317.36Zm-1.08,13.11h-14v-11h14Z" transform="translate(-349 -275)"/><path class="cls-1" d="M376.56,322.5a1.08,1.08,0,0,0-1.08,1.08v8.8a1.08,1.08,0,0,0,2.16,0v-8.8A1.08,1.08,0,0,0,376.56,322.5Z" transform="translate(-349 -275)"/><path class="cls-1" d="M378.79,323.58v8.8a1.08,1.08,0,0,0,2.16,0v-8.8a1.08,1.08,0,1,0-2.16,0Z" transform="translate(-349 -275)"/><path class="cls-1" d="M384.27,333.46a1.08,1.08,0,0,0,1.08-1.08v-8.8a1.08,1.08,0,0,0-2.16,0v8.8A1.08,1.08,0,0,0,384.27,333.46Z" transform="translate(-349 -275)"/><path class="cls-1" d="M387.57,333.46a1.08,1.08,0,0,0,1.08-1.08v-8.8a1.08,1.08,0,0,0-2.16,0v8.8A1.08,1.08,0,0,0,387.57,333.46Z" transform="translate(-349 -275)"/></svg>