<svg id="Layer_1" data-name="Layer 1" viewBox="0 0 95.42 62.98"><defs><style>.cls-1{fill:#58c1e8}</style></defs><path d="M392.65 301.36h-42.57a1.08 1.08 0 00-1.08 1.08v34.46a1.08 1.08 0 001.08 1.08h42.57a1.08 1.08 0 001.08-1.08v-34.46a1.08 1.08 0 00-1.08-1.08zm-15.27 2.16v6h-12v-6zm14.19 32.3h-40.41v-32.3h12v7a1.09 1.09 0 001.08 1.08h14.19a1.08 1.08 0 001.08-1.08v-7h12z" class="cls-1" transform="translate(-349 -275)"/><path d="M439.28 301.36h-1.39l-6.64-11.95a5.16 5.16 0 00-4.25-2.24h-15v-11.09a1.08 1.08 0 00-1.1-1.08h-54.74a1.09 1.09 0 00-1.08 1.08v22.3a1.08 1.08 0 102.16 0v-21.22h52.58v46.48h-13.11a1.08 1.08 0 100 2.16H418c0 .35-.06.7-.06 1.05a9.23 9.23 0 009.16 9.15 9.2 9.2 0 009.16-9.25c0-.33 0-.65-.05-1h3a5.14 5.14 0 005.14-5.13v-13.7c.07-3.32-2-5.56-5.07-5.56zm-5.13 25.44a7.05 7.05 0 01-7 7.08 7.05 7.05 0 010-14.1 7 7 0 017 7zm8.11-6.11a3 3 0 01-3 3h-3.54a9.21 9.21 0 00-8.66-6 9.2 9.2 0 00-8.6 6H412v-34.36h15a2.94 2.94 0 012.41 1.21l6.9 12.42a1.07 1.07 0 00.94.56h2c1.89 0 3 1.24 3 3.4z" class="cls-1" transform="translate(-349 -275)"/><path d="M426 295.75a1.08 1.08 0 00-1.79 1.2l3.87 5.81v.62H415a1.08 1.08 0 100 2.16h14.19a1.08 1.08 0 001.08-1.08v-2a1 1 0 00-.18-.6zM371.46 317.36h-16.19a1.08 1.08 0 00-1.08 1.08v13.11a1.09 1.09 0 001.08 1.08h16.19a1.08 1.08 0 001.08-1.08v-13.11a1.08 1.08 0 00-1.08-1.08zm-1.08 13.11h-14v-11h14zM376.56 322.5a1.08 1.08 0 00-1.08 1.08v8.8a1.08 1.08 0 002.16 0v-8.8a1.08 1.08 0 00-1.08-1.08zM378.79 323.58v8.8a1.08 1.08 0 002.16 0v-8.8a1.08 1.08 0 10-2.16 0zM384.27 333.46a1.08 1.08 0 001.08-1.08v-8.8a1.08 1.08 0 00-2.16 0v8.8a1.08 1.08 0 001.08 1.08zM387.57 333.46a1.08 1.08 0 001.08-1.08v-8.8a1.08 1.08 0 00-2.16 0v8.8a1.08 1.08 0 001.08 1.08z" class="cls-1" transform="translate(-349 -275)"/></svg>