<svg data-name="Layer 1" viewBox="0 0 585.51 181.72"><defs><style>.cls-1{fill:#231f20}</style></defs><path d="M425.58 264.87v118.57s-.39 3.19 3.41 3.19h37.16s2.75.28 2.75-2.86v-53.94s-3.36-36.66 34.73-36.22c0 0 6.75.38 9.31.63 0 0 4 .83 4.13-2.31v-29.07s.49-2.8-2.89-3.22c0 0-30.39-3.55-45.17 14.95v-9.91s.5-3-3.14-3h-37.4s-2.89-.41-2.89 3.19zM688.59 324.21a62 62 0 00-24.44-49.43c-19.16-16.62-50-16.4-50-16.4-30.39 0-45.36 14.64-45.36 14.64v-61.71c0-3.08-2.31-2.86-2.31-2.86h-38.07c-3.31 0-3 2.64-3 2.64v172.35s-.38 3.19 3.42 3.19H566s2.75.28 2.75-2.86v-8.53c39.14 28.9 81.42 6.77 81.42 6.77 40.62-19.27 38.42-57.8 38.42-57.8zm-81.52 32.92c-21.56 0-39-14.76-39-33s17.47-33 39-33 39 14.76 39 33-17.45 33-39 33zM373.18 264.1S321.54 244.51 281 277c0 0-22.35 17.18-22.35 47.34 0 0-1.43 44.48 46.35 60 0 0 41.94 16.41 83.45-5.72 0 0 17.06-8.59 25-23.23 0 0 2.2-3.41-1.43-4.4l-33.47-8.26a3.29 3.29 0 00-3.63 1.21s-7.93 14.53-33.47 14.53c0 0-32.37 2-39.41-22.35h110.41s2.73 0 3.06-3.55c0-.02 9.85-49.09-42.33-68.47zm-71.29 47.29c8-22.41 36.06-21.58 36.06-21.58 31.21 0 35.5 21.58 35.5 21.58zM209.08 386.8h-42.35a3 3 0 01-3-2l-60.25-119.17s-1.69-3.84 2-3.84h41.7a3 3 0 012.93 1.9l37.73 80.05 37.66-80a3.08 3.08 0 013-2.1H270s3.59.49 1.69 4.25L211.64 385a3 3 0 01-2.56 1.8z" class="cls-1" transform="translate(-103.09 -208.45)"/></svg>