<svg data-name="Layer 1" viewBox="0 0 595.12 129.3"><defs><style>.cls-1,.cls-2{fill:#231f20}.cls-2{fill-rule:evenodd}</style></defs><g data-name="Group 99"><path d="M158.6 339.31s-6.31-7.71-10-11.88l-5.22 12.31c7.5 11.17 12.46 20.78 15.18 25.38 5.32-9 18.29-35.75 45.17-60.76l-3-7a229.76 229.76 0 00-42.13 41.95z" class="cls-1" data-name="Path 157" transform="translate(-98.11 -241.92)"/><path d="M427.27 341.84c0 7.16 4.17 10.87 10.76 11.94v17.44c-19.81-.25-30.36-9.86-30.36-28v-101.3h19.6z" class="cls-2" data-name="Path 158" transform="translate(-98.11 -241.92)"/><path d="M488.7 279.63a44.43 44.43 0 00-43.94 44.91v.6c0 25.37 18.74 45.49 42.17 45.49a35.51 35.51 0 0027.14-11l1 .35v8.92h19.6v-87.5h-19.6v6.13l-.88.35a37.75 37.75 0 00-25.55-8.23zm2.44 74.56c-14.68 0-26.77-12.78-26.77-29.06 0-16.45 12.09-29.05 26.77-29.05a39.5 39.5 0 0124 7.35v37.45c-5.09 9.63-14.14 13.31-24 13.31z" class="cls-2" data-name="Path 159" transform="translate(-98.11 -241.92)"/><path d="M551.08 369.06h19.59V307.8a34.07 34.07 0 0124.68-10.33h4.2v-17.84h-2.45a32.79 32.79 0 00-25.38 12.07l-1.05-.35v-10h-19.59z" class="cls-2" data-name="Path 160" transform="translate(-98.11 -241.92)"/><path d="M345.59 279.63a44.43 44.43 0 00-43.94 44.91v.6c0 25.37 18.73 45.49 42.17 45.49a35.49 35.49 0 0027.13-11l1.05.37v8.92h19.61v-87.5H372v6.13l-.87.35a37.77 37.77 0 00-25.56-8.23zm2.41 74.56c-14.7 0-26.77-12.78-26.77-29.06 0-16.45 12.07-29.05 26.77-29.05a39.5 39.5 0 0124 7.35v37.45c-5.06 9.63-14.16 13.31-24 13.31z" class="cls-2" data-name="Path 161" transform="translate(-98.11 -241.92)"/><path d="M647.19 279.63a44.43 44.43 0 00-43.93 44.91v.6c0 25.37 18.72 45.49 42.17 45.49a35.49 35.49 0 0027.13-11l1 .35v8.92h19.61v-87.5h-19.56v6.13l-.86.35a37.77 37.77 0 00-25.56-8.23zm2.45 74.56c-14.69 0-26.77-12.78-26.77-29.06 0-16.45 12.08-29.05 26.77-29.05a39.47 39.47 0 0124 7.35v37.45c-5.1 9.63-14.2 13.31-24 13.31z" class="cls-2" data-name="Path 162" transform="translate(-98.11 -241.92)"/><path d="M197.72 368.76H219l-18.79-44.94a199.58 199.58 0 00-14.33 17.06z" class="cls-1" data-name="Path 163" transform="translate(-98.11 -241.92)"/><path d="M282.49 281.49l-27.34 63.95h-1.07l-27.34-63.95h-21.12l39 87.26h19.92l39-87.26z" class="cls-1" data-name="Path 164" transform="translate(-98.11 -241.92)"/><path d="M168 246.58h-18.8l-51 122.18h21.2l36.92-87.07 1.75-4.71h1l1.75 4.71 10.94 25.8a208.76 208.76 0 0115.75-14.14z" class="cls-1" data-name="Path 165" transform="translate(-98.11 -241.92)"/></g></svg>