<svg id="Layer_1" data-name="Layer 1" xmlns="http://www.w3.org/2000/svg" viewBox="0 0 585.51 181.72"><defs><style>.cls-1{fill:#231f20;}</style></defs><title>verb</title><path class="cls-1" d="M425.58,264.87V383.44s-.39,3.19,3.41,3.19h37.16s2.75.28,2.75-2.86V329.83s-3.36-36.66,34.73-36.22c0,0,6.75.38,9.31.63,0,0,4,.83,4.13-2.31V262.86s.49-2.8-2.89-3.22c0,0-30.39-3.55-45.17,14.95v-9.91s.5-3-3.14-3h-37.4S425.58,261.27,425.58,264.87Z" transform="translate(-103.09 -208.45)"/><path class="cls-1" d="M688.59,324.21a62,62,0,0,0-24.44-49.43c-19.16-16.62-50-16.4-50-16.4-30.39,0-45.36,14.64-45.36,14.64V211.31c0-3.08-2.31-2.86-2.31-2.86H528.41c-3.31,0-3,2.64-3,2.64V383.44s-.38,3.19,3.42,3.19H566s2.75.28,2.75-2.86v-8.53c39.14,28.9,81.42,6.77,81.42,6.77C690.79,362.74,688.59,324.21,688.59,324.21Zm-81.52,32.92c-21.56,0-39-14.76-39-33s17.47-33,39-33,39,14.76,39,33S628.62,357.13,607.07,357.13Z" transform="translate(-103.09 -208.45)"/><path class="cls-1" d="M373.18,264.1S321.54,244.51,281,277c0,0-22.35,17.18-22.35,47.34,0,0-1.43,44.48,46.35,60,0,0,41.94,16.41,83.45-5.72,0,0,17.06-8.59,25-23.23,0,0,2.2-3.41-1.43-4.4l-33.47-8.26a3.29,3.29,0,0,0-3.63,1.21s-7.93,14.53-33.47,14.53c0,0-32.37,2-39.41-22.35H412.45s2.73,0,3.06-3.55C415.51,332.55,425.36,283.48,373.18,264.1Zm-71.29,47.29c8-22.41,36.06-21.58,36.06-21.58,31.21,0,35.5,21.58,35.5,21.58Z" transform="translate(-103.09 -208.45)"/><path class="cls-1" d="M209.08,386.8H166.73a3,3,0,0,1-3-2L103.48,265.63s-1.69-3.84,2-3.84h41.7a3,3,0,0,1,2.93,1.9l37.73,80.05,37.66-80a3.08,3.08,0,0,1,3-2.1H270s3.59.49,1.69,4.25L211.64,385A3,3,0,0,1,209.08,386.8Z" transform="translate(-103.09 -208.45)"/></svg>