<svg id="Layer_1" data-name="Layer 1" xmlns="http://www.w3.org/2000/svg" viewBox="0 0 595.12 129.3"><defs><style>.cls-1,.cls-2{fill:#231f20;}.cls-2{fill-rule:evenodd;}</style></defs><title>avalara</title><g id="Group_99" data-name="Group 99"><path id="Path_157" data-name="Path 157" class="cls-1" d="M158.6,339.31s-6.31-7.71-10-11.88l-5.22,12.31c7.5,11.17,12.46,20.78,15.18,25.38,5.32-9,18.29-35.75,45.17-60.76l-3-7A229.76,229.76,0,0,0,158.6,339.31Z" transform="translate(-98.11 -241.92)"/><path id="Path_158" data-name="Path 158" class="cls-2" d="M427.27,341.84c0,7.16,4.17,10.87,10.76,11.94v17.44c-19.81-.25-30.36-9.86-30.36-28V241.92h19.6Z" transform="translate(-98.11 -241.92)"/><path id="Path_159" data-name="Path 159" class="cls-2" d="M488.7,279.63a44.43,44.43,0,0,0-43.94,44.91c0,.2,0,.4,0,.6,0,25.37,18.74,45.49,42.17,45.49a35.51,35.51,0,0,0,27.14-11l1,.35v8.92h19.6v-87.5h-19.6v6.13l-.88.35a37.75,37.75,0,0,0-25.55-8.23Zm2.44,74.56c-14.68,0-26.77-12.78-26.77-29.06,0-16.45,12.09-29.05,26.77-29.05a39.5,39.5,0,0,1,24,7.35v37.45C510.05,350.51,501,354.19,491.14,354.19Z" transform="translate(-98.11 -241.92)"/><path id="Path_160" data-name="Path 160" class="cls-2" d="M551.08,369.06h19.59V307.8a34.07,34.07,0,0,1,24.68-10.33h4.2V279.63H597.1a32.79,32.79,0,0,0-25.38,12.07l-1.05-.35v-10H551.08Z" transform="translate(-98.11 -241.92)"/><path id="Path_161" data-name="Path 161" class="cls-2" d="M345.59,279.63a44.43,44.43,0,0,0-43.94,44.91c0,.2,0,.4,0,.6,0,25.37,18.73,45.49,42.17,45.49a35.49,35.49,0,0,0,27.13-11L372,360v8.92h19.61v-87.5H372v6.13l-.87.35a37.77,37.77,0,0,0-25.56-8.23ZM348,354.19c-14.7,0-26.77-12.78-26.77-29.06,0-16.45,12.07-29.05,26.77-29.05a39.5,39.5,0,0,1,24,7.35v37.45C366.94,350.51,357.84,354.19,348,354.19Z" transform="translate(-98.11 -241.92)"/><path id="Path_162" data-name="Path 162" class="cls-2" d="M647.19,279.63a44.43,44.43,0,0,0-43.93,44.91c0,.2,0,.4,0,.6,0,25.37,18.72,45.49,42.17,45.49a35.49,35.49,0,0,0,27.13-11l1,.35v8.92h19.61v-87.5H673.61v6.13l-.86.35a37.77,37.77,0,0,0-25.56-8.23Zm2.45,74.56c-14.69,0-26.77-12.78-26.77-29.06,0-16.45,12.08-29.05,26.77-29.05a39.47,39.47,0,0,1,24,7.35v37.45C668.54,350.51,659.44,354.19,649.64,354.19Z" transform="translate(-98.11 -241.92)"/><path id="Path_163" data-name="Path 163" class="cls-1" d="M197.72,368.76H219l-18.79-44.94a199.58,199.58,0,0,0-14.33,17.06Z" transform="translate(-98.11 -241.92)"/><path id="Path_164" data-name="Path 164" class="cls-1" d="M282.49,281.49l-27.34,63.95h-1.07l-27.34-63.95H205.62l39,87.26h19.92l39-87.26Z" transform="translate(-98.11 -241.92)"/><path id="Path_165" data-name="Path 165" class="cls-1" d="M168,246.58h-18.8l-51,122.18H119.4l36.92-87.07,1.75-4.71h1l1.75,4.71,10.94,25.8a208.76,208.76,0,0,1,15.75-14.14Z" transform="translate(-98.11 -241.92)"/></g></svg>