<svg id="Layer_1" data-name="Layer 1" xmlns="http://www.w3.org/2000/svg" viewBox="0 0 596.29 76.37"><title>payquicker</title><g id="Logo"><path d="M674.29,330.08v1h-2v5.19h-1.24v-5.19h-2v-1ZM681,336.3l-.23-3.66c0-.48,0-1.08,0-1.74h-.07c-.16.55-.34,1.28-.52,1.85L679,336.21h-1.28l-1.12-3.55c-.12-.48-.3-1.21-.43-1.76h-.07c0,.57,0,1.17,0,1.74l-.23,3.66h-1.19l.46-6.22H677l1.08,3c.14.48.25.94.41,1.58h0c.16-.57.3-1.1.44-1.56l1.08-3.06h1.78l.48,6.22Z" transform="translate(-98.59 -268.92)"/><path d="M291,323.57a16,16,0,0,1-5.78,9,15.17,15.17,0,0,1-9.81,3.87H257.25l-1.88,8.85H242.11l11.33-53.08h31.31a10.23,10.23,0,0,1,10.44,10.4,10.59,10.59,0,0,1-.31,2.52Zm-13.18-.3,3.78-17.92a6.2,6.2,0,0,0,.07-.84,3.4,3.4,0,0,0-1-2.46,3.34,3.34,0,0,0-2.48-1H264.76l-5.62,26.54h13.44a5.12,5.12,0,0,0,3.3-1.31,5.29,5.29,0,0,0,1.93-3" transform="translate(-98.59 -268.92)"/><path d="M336.9,336.44H305.63a10.23,10.23,0,0,1-10.48-10.39,12.38,12.38,0,0,1,.26-2.52l.13-.71a15.88,15.88,0,0,1,5.8-9.07,15.42,15.42,0,0,1,9.91-3.85h18l1-4.54c0-.3.05-.58.05-.85a3.36,3.36,0,0,0-1-2.46,3.3,3.3,0,0,0-2.47-1H300.19l1.86-8.85h31.4a10,10,0,0,1,7.43,3,10.09,10.09,0,0,1,3,7.38,12.13,12.13,0,0,1-.26,2.44Zm-11.37-8.84,1.88-8.85H314.07a5.19,5.19,0,0,0-3.73,1.64,5,5,0,0,0-1.66,3.67,3.45,3.45,0,0,0,1,2.52,3.32,3.32,0,0,0,2.49,1Z" transform="translate(-98.59 -268.92)"/><path d="M387.58,332.37a15.88,15.88,0,0,1-5.81,9.05,15.39,15.39,0,0,1-9.89,3.87H340.57l1.88-8.85h26.71a5.1,5.1,0,0,0,3.3-1.3,5.31,5.31,0,0,0,1.93-3l.9-4.51h-18a9.88,9.88,0,0,1-8.22-3.9,10.21,10.21,0,0,1-1.92-9l4.75-22.47h13.25l-4.74,22.2a6.38,6.38,0,0,0-.06.84,3.42,3.42,0,0,0,1,2.48,3.37,3.37,0,0,0,2.51,1h13.39l5.64-26.54h13.25Z" transform="translate(-98.59 -268.92)"/><path d="M434.75,345.29h-13.2l1.88-8.85H405.31a9.83,9.83,0,0,1-8.15-3.89,10.23,10.23,0,0,1-2.26-6.46,12.28,12.28,0,0,1,.27-2.52l3.89-18.44a16,16,0,0,1,5.82-9.05,15.43,15.43,0,0,1,9.93-3.87h31.27Zm-9.47-17.69,5.66-26.54h-13.4a5.14,5.14,0,0,0-3.31,1.28,5.4,5.4,0,0,0-2,3l-3.78,17.92a8.26,8.26,0,0,0,0,.84,3.43,3.43,0,0,0,1,2.48,3.35,3.35,0,0,0,2.5,1Z" transform="translate(-98.59 -268.92)"/><path d="M486.68,336.44H455.32a10,10,0,0,1-7.43-3,10.18,10.18,0,0,1-3-7.41,11.42,11.42,0,0,1,.26-2.43l6.64-31.36h13.29l-6.62,31.05a8.26,8.26,0,0,0,0,.84,3.4,3.4,0,0,0,1,2.48,3.32,3.32,0,0,0,2.49,1h13.36l7.5-35.39h13.25Z" transform="translate(-98.59 -268.92)"/><polygon points="407.86 67.52 394.62 67.52 403.99 23.29 417.24 23.29 407.86 67.52"/><path d="M547.55,336.44H525.13a10.25,10.25,0,0,1-10.49-10.39,11.72,11.72,0,0,1,.27-2.52L518.84,305a15.71,15.71,0,0,1,5.78-9,15.26,15.26,0,0,1,9.79-3.87h22.52l-1.86,8.85H537.29a5.18,5.18,0,0,0-3.32,1.26,5.34,5.34,0,0,0-1.94,3l-3.82,17.91q0,.44,0,.84a3.43,3.43,0,0,0,1,2.48,3.32,3.32,0,0,0,2.49,1h17.75Z" transform="translate(-98.59 -268.92)"/><path d="M596.45,336.44H583.16l2.9-13.4a4.3,4.3,0,0,0,.09-.84,3.37,3.37,0,0,0-3.5-3.45h-13.4l-3.78,17.69H552.22l11.33-53.07H576.8l-5.67,26.53h4.46l12.61-17.69h13.25l-12.6,17.69a10.89,10.89,0,0,1,7.74,2.92,9.69,9.69,0,0,1,3.09,7.34,10.69,10.69,0,0,1-.31,2.57Z" transform="translate(-98.59 -268.92)"/><path d="M644.94,336.44H613.58a10,10,0,0,1-7.43-3,10.18,10.18,0,0,1-3-7.41,11.45,11.45,0,0,1,.27-2.43l3.89-18.44a15.85,15.85,0,0,1,5.8-9.07,15.34,15.34,0,0,1,9.9-3.85H641.4a10.18,10.18,0,0,1,10.44,10.4,12.28,12.28,0,0,1-.27,2.52l-.13.7a15.91,15.91,0,0,1-5.75,9.07,15.22,15.22,0,0,1-9.9,3.85h-18l-1,4.51a8.39,8.39,0,0,0,0,.84,3.43,3.43,0,0,0,1,2.48,3.35,3.35,0,0,0,2.5,1h26.58Zm-6.64-31.89a3.46,3.46,0,0,0-.95-2.5,3.28,3.28,0,0,0-2.49-1H625.8a5.14,5.14,0,0,0-3.31,1.26,5.33,5.33,0,0,0-2,3l-.92,4.56H633a5.06,5.06,0,0,0,3.7-1.65,5.16,5.16,0,0,0,1.63-3.7" transform="translate(-98.59 -268.92)"/><path d="M693,301.06H675.24a5.16,5.16,0,0,0-3.31,1.26,5.36,5.36,0,0,0-1.95,3l-6.61,31.09H650.12L656.8,305a15.69,15.69,0,0,1,5.77-9,15.28,15.28,0,0,1,9.8-3.87h22.51Z" transform="translate(-98.59 -268.92)"/><path d="M224.67,323c-.06,1.12-.16,2.25-.28,3.39l-23.51-3.66c0-.71-.09-1.42-.16-2.12Zm-24.75-7.56c.16.73.3,1.46.42,2.21l24.46.86c0-1.11-.05-2.2-.11-3.28Zm23.2,18.73c.24-1.11.46-2.22.64-3.32L201,325.75c0,.8,0,1.61-.06,2.42Zm-23.9-21.56,25.05-1.82c-.15-1.16-.33-2.3-.55-3.43l-25.19,3c.25.74.48,1.48.69,2.24m-46.54,4.86c-4-.29-8.4,3.11-9.79,7.57s.75,8.32,4.77,8.61a9,9,0,0,0,6.33-2.38l73.25,14.06,1.32-2.17-70.73-19c.34-3.62-1.71-6.48-5.15-6.72m13.41-31.76c15,1.06,26.12,9.54,31.42,22L222.72,303c-5.26-19.09-20.24-32.48-41.51-34-33.78-2.38-72,29.78-82.62,68.95l3-5.14c10.51-28.16,38.65-49,64.55-47.18" transform="translate(-98.59 -268.92)"/></g></svg>