<svg data-name="Layer 1" viewBox="0 0 596.29 76.37"><path d="M575.7 61.16v1h-2v5.19h-1.24v-5.19h-2v-1zm6.71 6.22l-.23-3.66v-1.74h-.07c-.16.55-.34 1.28-.52 1.85l-1.18 3.46h-1.28l-1.12-3.55c-.12-.48-.3-1.21-.43-1.76h-.07v1.74l-.23 3.66h-1.19l.46-6.22h1.86l1.08 3c.14.48.25.94.41 1.58.16-.57.3-1.1.44-1.56l1.08-3.06h1.78l.48 6.22zM192.41 54.65a16 16 0 01-5.78 9 15.17 15.17 0 01-9.81 3.87h-18.16l-1.88 8.85h-13.26l11.33-53.08h31.31a10.23 10.23 0 0110.44 10.4 10.59 10.59 0 01-.31 2.52zm-13.18-.3l3.78-17.92a6.2 6.2 0 00.07-.84 3.4 3.4 0 00-1-2.46 3.34 3.34 0 00-2.48-1h-13.43l-5.62 26.54h13.44a5.12 5.12 0 003.3-1.31 5.29 5.29 0 001.93-3M238.31 67.52h-31.27a10.23 10.23 0 01-10.48-10.39 12.38 12.38 0 01.26-2.52l.13-.71a15.88 15.88 0 015.8-9.07 15.42 15.42 0 019.91-3.85h18l1-4.54c0-.3.05-.58.05-.85a3.36 3.36 0 00-1-2.46 3.3 3.3 0 00-2.47-1H201.6l1.86-8.85h31.4a10 10 0 017.43 3 10.09 10.09 0 013 7.38 12.13 12.13 0 01-.26 2.44zm-11.37-8.84l1.88-8.85h-13.34a5.19 5.19 0 00-3.73 1.64 5 5 0 00-1.66 3.67 3.45 3.45 0 001 2.52 3.32 3.32 0 002.49 1zM288.99 63.45a15.88 15.88 0 01-5.81 9.05 15.39 15.39 0 01-9.89 3.87h-31.31l1.88-8.85h26.71a5.1 5.1 0 003.3-1.3 5.31 5.31 0 001.93-3l.9-4.51h-18a9.88 9.88 0 01-8.22-3.9 10.21 10.21 0 01-1.92-9l4.75-22.47h13.25l-4.74 22.2a6.38 6.38 0 00-.06.84 3.42 3.42 0 001 2.48 3.37 3.37 0 002.51 1h13.39l5.64-26.54h13.25zM336.16 76.37h-13.2l1.88-8.85h-18.12a9.83 9.83 0 01-8.15-3.89 10.23 10.23 0 01-2.26-6.46 12.28 12.28 0 01.27-2.52l3.89-18.44a16 16 0 015.82-9.05 15.43 15.43 0 019.93-3.87h31.27zm-9.47-17.69l5.66-26.54h-13.4a5.14 5.14 0 00-3.31 1.28 5.4 5.4 0 00-2 3l-3.78 17.92a8.26 8.26 0 000 .84 3.43 3.43 0 001 2.48 3.35 3.35 0 002.5 1zM388.09 67.52h-31.36a10 10 0 01-7.43-3 10.18 10.18 0 01-3-7.41 11.42 11.42 0 01.26-2.43l6.64-31.36h13.29l-6.62 31.05a8.26 8.26 0 000 .84 3.4 3.4 0 001 2.48 3.32 3.32 0 002.49 1h13.36l7.5-35.39h13.25zM407.86 67.52h-13.24l9.37-44.23h13.25l-9.38 44.23zM448.96 67.52h-22.42a10.25 10.25 0 01-10.49-10.39 11.72 11.72 0 01.27-2.52l3.93-18.53a15.71 15.71 0 015.78-9 15.26 15.26 0 019.79-3.87h22.52l-1.86 8.85H438.7a5.18 5.18 0 00-3.32 1.26 5.34 5.34 0 00-1.94 3l-3.82 17.91v.84a3.43 3.43 0 001 2.48 3.32 3.32 0 002.49 1h17.75zM497.86 67.52h-13.29l2.9-13.4a4.3 4.3 0 00.09-.84 3.37 3.37 0 00-3.5-3.45h-13.4l-3.78 17.69h-13.25l11.33-53.07h13.25l-5.67 26.53H477l12.61-17.69h13.25l-12.6 17.69A10.89 10.89 0 01498 43.9a9.69 9.69 0 013.09 7.34 10.69 10.69 0 01-.31 2.57zM546.35 67.52h-31.36a10 10 0 01-7.43-3 10.18 10.18 0 01-3-7.41 11.45 11.45 0 01.27-2.43l3.89-18.44a15.85 15.85 0 015.8-9.07 15.34 15.34 0 019.9-3.85h18.39a10.18 10.18 0 0110.44 10.4 12.28 12.28 0 01-.27 2.52l-.13.7a15.91 15.91 0 01-5.75 9.07 15.22 15.22 0 01-9.9 3.85h-18l-1 4.51a8.39 8.39 0 000 .84 3.43 3.43 0 001 2.48 3.35 3.35 0 002.5 1h26.58zm-6.64-31.89a3.46 3.46 0 00-.95-2.5 3.28 3.28 0 00-2.49-1h-9.06a5.14 5.14 0 00-3.31 1.26 5.33 5.33 0 00-2 3l-.92 4.56h13.43a5.06 5.06 0 003.7-1.65 5.16 5.16 0 001.63-3.7M594.41 32.14h-17.76a5.16 5.16 0 00-3.31 1.26 5.36 5.36 0 00-1.95 3l-6.61 31.09h-13.25l6.68-31.41a15.69 15.69 0 015.77-9 15.28 15.28 0 019.8-3.87h22.51zM126.08 54.08c-.06 1.12-.16 2.25-.28 3.39l-23.51-3.66c0-.71-.09-1.42-.16-2.12zm-24.75-7.56c.16.73.3 1.46.42 2.21l24.46.86c0-1.11-.05-2.2-.11-3.28zm23.2 18.73c.24-1.11.46-2.22.64-3.32l-22.76-5.1c0 .8 0 1.61-.06 2.42zm-23.9-21.56l25.05-1.82c-.15-1.16-.33-2.3-.55-3.43l-25.19 3c.25.74.48 1.48.69 2.24m-46.54 4.86c-4-.29-8.4 3.11-9.79 7.57s.75 8.32 4.77 8.61a9 9 0 006.33-2.38l73.25 14.06 1.32-2.17-70.73-19c.34-3.62-1.71-6.48-5.15-6.72M67.5 16.75c15 1.06 26.12 9.54 31.42 22l25.21-4.67c-5.26-19.09-20.24-32.48-41.51-34C48.84-2.3 10.62 29.86 0 69.03l3-5.14c10.51-28.16 38.65-49 64.55-47.18"/></svg>