<svg data-name="Layer 1" viewBox="0 0 88.24 82.38"><defs><style>.cls-1{fill:#57c1e8}</style></defs><path d="M439.16 265h-86.08a1.08 1.08 0 00-1.08 1.08v62.61a1.08 1.08 0 001.08 1.08h31.3a1.08 1.08 0 000-2.16h-30.22v-60.45h83.92v60.45h-30.22a1.08 1.08 0 000 2.16h31.3a1.08 1.08 0 001.08-1.08v-62.61a1.08 1.08 0 00-1.08-1.08z" class="cls-1" transform="translate(-352 -265)"/><path d="M418.72 281.73a1.08 1.08 0 00-1.08-1.08h-43a1.08 1.08 0 000 2.16h43a1.08 1.08 0 001.08-1.08zM382.43 290.64h27.39a1.08 1.08 0 000-2.16h-27.39a1.08 1.08 0 000 2.16zM409.16 320.71a4.86 4.86 0 00.32-3.72 2.74 2.74 0 01.43-2.46c.07-.09.13-.19.2-.29a4.9 4.9 0 00-1.44-6.77 2.73 2.73 0 01-1.24-2.16v-.43a4.86 4.86 0 00-5.42-4.19 2.61 2.61 0 01-2.3-.84 3.64 3.64 0 00-.34-.34 4.79 4.79 0 00-6.77.35 2.68 2.68 0 01-2.31.84 3.15 3.15 0 00-.44 0 4.82 4.82 0 00-5 4.65 2.73 2.73 0 01-1.24 2.16l-.28.2a4.9 4.9 0 00-.94 6.86 2.74 2.74 0 01.43 2.46c0 .12-.07.24-.1.35a4.9 4.9 0 003.65 5.87 2.69 2.69 0 011.89 1.59 4.28 4.28 0 00.2.43 4.8 4.8 0 00.83 1.11 1 1 0 00-.08.39v19.53a1.09 1.09 0 00.57.95 1.17 1.17 0 00.51.13 1 1 0 00.6-.19l5.27-3.51 5.27 3.51a1.06 1.06 0 001.11.06 1.09 1.09 0 00.57-.95v-19.57a1 1 0 00-.07-.34 4.74 4.74 0 001.05-1.59 2.7 2.7 0 011.9-1.6l.35-.09a4.9 4.9 0 002.82-2.4zm-12.44 20.77a1.09 1.09 0 00-1.2 0l-4.19 2.8v-16.67a4.85 4.85 0 001.35.2 4.75 4.75 0 002.23-.55 2.65 2.65 0 012.45 0l.44.2a4.7 4.7 0 003.11.14v16.68zm10.52-21.77a2.71 2.71 0 01-1.59 1.34l-.19.05a4.85 4.85 0 00-3.41 2.89 2.64 2.64 0 01-3.44 1.47l-.25-.11a4.79 4.79 0 00-4.45 0 2.66 2.66 0 01-3.58-1.12 2.56 2.56 0 01-.11-.24 4.86 4.86 0 00-3.4-2.89 2.73 2.73 0 01-2-3.27l.06-.19a4.92 4.92 0 00-.77-4.42 2.73 2.73 0 01.52-3.82l.16-.12a4.87 4.87 0 002.21-3.89 2.69 2.69 0 012.68-2.58h.32a4.79 4.79 0 004.19-1.54 2.65 2.65 0 013.73-.18l.18.18a4.83 4.83 0 004.19 1.55 2.67 2.67 0 013 2.32 1.79 1.79 0 010 .24 4.89 4.89 0 002.23 3.88 2.74 2.74 0 01.8 3.78 1.77 1.77 0 01-.12.17 4.92 4.92 0 00-.76 4.41 2.67 2.67 0 01-.2 2.09z" class="cls-1" transform="translate(-352 -265)"/><path d="M396.14 306.09a6.95 6.95 0 106.95 7 7 7 0 00-6.95-7zm0 11.73a4.79 4.79 0 114.79-4.78 4.79 4.79 0 01-4.79 4.78z" class="cls-1" transform="translate(-352 -265)"/></svg>