<svg id="Layer_1" data-name="Layer 1" xmlns="http://www.w3.org/2000/svg" viewBox="0 0 88.24 82.38"><defs><style>.cls-1{fill:#57c1e8;}</style></defs><title>rank up</title><path class="cls-1" d="M439.16,265H353.08a1.08,1.08,0,0,0-1.08,1.08v62.61a1.08,1.08,0,0,0,1.08,1.08h31.3a1.08,1.08,0,0,0,0-2.16H354.16V267.16h83.92v60.45H407.86a1.08,1.08,0,0,0,0,2.16h31.3a1.08,1.08,0,0,0,1.08-1.08V266.08A1.08,1.08,0,0,0,439.16,265Z" transform="translate(-352 -265)"/><path class="cls-1" d="M418.72,281.73a1.08,1.08,0,0,0-1.08-1.08h-43a1.08,1.08,0,0,0,0,2.16h43A1.08,1.08,0,0,0,418.72,281.73Z" transform="translate(-352 -265)"/><path class="cls-1" d="M382.43,290.64h27.39a1.08,1.08,0,0,0,0-2.16H382.43a1.08,1.08,0,0,0,0,2.16Z" transform="translate(-352 -265)"/><path class="cls-1" d="M409.16,320.71a4.86,4.86,0,0,0,.32-3.72,2.74,2.74,0,0,1,.43-2.46c.07-.09.13-.19.2-.29a4.9,4.9,0,0,0-1.44-6.77,2.73,2.73,0,0,1-1.24-2.16c0-.14,0-.29,0-.43a4.86,4.86,0,0,0-5.42-4.19,2.61,2.61,0,0,1-2.3-.84h0a3.64,3.64,0,0,0-.34-.34,4.79,4.79,0,0,0-6.77.35,2.68,2.68,0,0,1-2.31.84,3.15,3.15,0,0,0-.44,0,4.82,4.82,0,0,0-5,4.65,2.73,2.73,0,0,1-1.24,2.16l-.28.2a4.9,4.9,0,0,0-.94,6.86,2.74,2.74,0,0,1,.43,2.46c0,.12-.07.24-.1.35a4.9,4.9,0,0,0,3.65,5.87,2.69,2.69,0,0,1,1.89,1.59,4.28,4.28,0,0,0,.2.43,4.8,4.8,0,0,0,.83,1.11,1,1,0,0,0-.08.39V346.3a1.09,1.09,0,0,0,.57.95,1.17,1.17,0,0,0,.51.13,1,1,0,0,0,.6-.19l5.27-3.51,5.27,3.51a1.06,1.06,0,0,0,1.11.06,1.09,1.09,0,0,0,.57-.95V326.73a1,1,0,0,0-.07-.34,4.74,4.74,0,0,0,1.05-1.59,2.7,2.7,0,0,1,1.9-1.6l.35-.09A4.9,4.9,0,0,0,409.16,320.71Zm-12.44,20.77a1.09,1.09,0,0,0-1.2,0l-4.19,2.8V327.61a4.85,4.85,0,0,0,1.35.2,4.75,4.75,0,0,0,2.23-.55,2.65,2.65,0,0,1,2.45,0l.44.2a4.7,4.7,0,0,0,3.11.14v16.68Zm10.52-21.77a2.71,2.71,0,0,1-1.59,1.34l-.19.05a4.85,4.85,0,0,0-3.41,2.89,2.64,2.64,0,0,1-3.44,1.47l-.25-.11a4.79,4.79,0,0,0-4.45,0,2.66,2.66,0,0,1-3.58-1.12,2.56,2.56,0,0,1-.11-.24,4.86,4.86,0,0,0-3.4-2.89,2.73,2.73,0,0,1-2-3.27l.06-.19a4.92,4.92,0,0,0-.77-4.42,2.73,2.73,0,0,1,.52-3.82l.16-.12a4.87,4.87,0,0,0,2.21-3.89,2.69,2.69,0,0,1,2.68-2.58H390a4.79,4.79,0,0,0,4.19-1.54,2.65,2.65,0,0,1,3.73-.18l.18.18a4.83,4.83,0,0,0,4.19,1.55,2.67,2.67,0,0,1,3,2.32,1.79,1.79,0,0,1,0,.24,4.89,4.89,0,0,0,2.23,3.88,2.74,2.74,0,0,1,.8,3.78,1.77,1.77,0,0,1-.12.17,4.92,4.92,0,0,0-.76,4.41A2.67,2.67,0,0,1,407.24,319.71Z" transform="translate(-352 -265)"/><path class="cls-1" d="M396.14,306.09a6.95,6.95,0,1,0,6.95,7A7,7,0,0,0,396.14,306.09Zm0,11.73a4.79,4.79,0,1,1,4.79-4.78A4.79,4.79,0,0,1,396.14,317.82Z" transform="translate(-352 -265)"/></svg>