<svg id="Layer_1" data-name="Layer 1" viewBox="0 0 97.17 93.04"><defs><style>.cls-1{fill:#58c1e8}</style></defs><path d="M444.09 350.88h-7.19v-50.56a1.08 1.08 0 00-1.08-1.08h-20.65a1.08 1.08 0 00-1.08 1.08v50.56H408v-32a1.08 1.08 0 00-1.08-1.08h-20.66a1.08 1.08 0 00-1.08 1.08v32h-6.11v-17.51a1.08 1.08 0 00-1.08-1.08h-20.65a1.08 1.08 0 00-1.08 1.08v17.51h-7.18a1.08 1.08 0 100 2.16h95a1.08 1.08 0 100-2.16zm-27.84-49.48h18.49v49.48h-18.49zM387.34 320h18.49v30.89h-18.49zm-28.92 30.89v-16.44h18.49v16.43zM356.58 319.67a1.06 1.06 0 001.52 0l19.95-19.94 13.7 11.74a1.08 1.08 0 001.46-.06l34.36-34.35 5.43 5.37a1.09 1.09 0 001.18.22 1.07 1.07 0 00.66-1v-20.57a1.08 1.08 0 00-1.08-1.08h-20.58a1.09 1.09 0 00-1 .66 1.11 1.11 0 00.23 1.18l5.34 5.41-27.33 25.38L378.76 281a1.11 1.11 0 00-1.53 0l-28.91 28.91a1.07 1.07 0 000 1.53zM378 283.26l11.62 11.63a1.09 1.09 0 001.5 0L420 268.07a1.06 1.06 0 00.34-.77 1 1 0 00-.31-.78l-4.31-4.36h16.92v16.91l-4.36-4.3a1.07 1.07 0 00-1.52 0l-34.41 34.41-13.65-11.74a1.08 1.08 0 00-1.47.05l-19.89 19.89-6.73-6.73z" class="cls-1" transform="translate(-348 -260)"/></svg>