<svg id="Layer_1" data-name="Layer 1" xmlns="http://www.w3.org/2000/svg" viewBox="0 0 97.17 93.04"><defs><style>.cls-1{fill:#58c1e8;}</style></defs><title>sales icon</title><path class="cls-1" d="M444.09,350.88H436.9V300.32a1.08,1.08,0,0,0-1.08-1.08H415.17a1.08,1.08,0,0,0-1.08,1.08v50.56H408v-32a1.08,1.08,0,0,0-1.08-1.08H386.26a1.08,1.08,0,0,0-1.08,1.08v32h-6.11V333.37a1.08,1.08,0,0,0-1.08-1.08H357.34a1.08,1.08,0,0,0-1.08,1.08v17.51h-7.18a1.08,1.08,0,1,0,0,2.16h95a1.08,1.08,0,1,0,0-2.16ZM416.25,301.4h18.49v49.48H416.25ZM387.34,320h18.49v30.89H387.34Zm-28.92,30.89V334.45h18.49v16.43Z" transform="translate(-348 -260)"/><path class="cls-1" d="M356.58,319.67a1.06,1.06,0,0,0,1.52,0l19.95-19.94,13.7,11.74a1.08,1.08,0,0,0,1.46-.06l34.36-34.35,5.43,5.37a1.09,1.09,0,0,0,1.18.22,1.07,1.07,0,0,0,.66-1V261.08a1.08,1.08,0,0,0-1.08-1.08H413.18a1.09,1.09,0,0,0-1,.66,1.11,1.11,0,0,0,.23,1.18l5.34,5.41-27.33,25.38L378.76,281a1.11,1.11,0,0,0-1.53,0l-28.91,28.91a1.07,1.07,0,0,0,0,1.53ZM378,283.26l11.62,11.63a1.09,1.09,0,0,0,1.5,0L420,268.07a1.06,1.06,0,0,0,.34-.77,1,1,0,0,0-.31-.78l-4.31-4.36h16.92v16.91l-4.36-4.3a1.07,1.07,0,0,0-1.52,0l-34.41,34.41L378.7,297.44a1.08,1.08,0,0,0-1.47.05l-19.89,19.89-6.73-6.73Z" transform="translate(-348 -260)"/></svg>