<svg data-name="Layer 1" viewBox="0 0 87.98 94.11"><defs><style>.cls-1{fill:#57c1e7}</style></defs><path d="M432.77 297.82a7.21 7.21 0 00-7.12 6.13h-6.13a23.72 23.72 0 00-5.15-13.64l8-8.09a7.2 7.2 0 0011.48-5.8 7.21 7.21 0 10-13 4.27l-7.9 8a23.37 23.37 0 00-15.87-7.16v-8.19a7.15 7.15 0 10-2.16 0v8.18a23.45 23.45 0 00-15.79 7.07l-8-7.89a7.21 7.21 0 10-13-4.28 7.21 7.21 0 007.21 7.21 7.07 7.07 0 004.26-1.41l8.08 8a23.86 23.86 0 00-3.45 5.81 23.39 23.39 0 00-1.77 7.93h-6.13A7.21 7.21 0 00352 305a7.21 7.21 0 0014.33 1.08h6.14a23.62 23.62 0 005.18 13.69l-8 8a7.19 7.19 0 00-4.27-1.41 7.22 7.22 0 00-7.21 7.2 7.21 7.21 0 1013-4.27l7.94-7.95a23.52 23.52 0 0015.83 7.15v10.21a7.21 7.21 0 102.16 0v-10.15a23.72 23.72 0 0015.87-7.16l7.91 8a7.13 7.13 0 00-1.42 4.27 7.21 7.21 0 0014.42 0 7.21 7.21 0 00-7.2-7.2 7.16 7.16 0 00-4.26 1.41l-8-8.08a23.27 23.27 0 005.16-13.65h6.13A7.21 7.21 0 00440 305a7.22 7.22 0 00-7.23-7.18zm-6.13-26.45a5.05 5.05 0 11-3.43 8.74 1 1 0 00-.11-.17s-.1-.06-.15-.1a5 5 0 013.69-8.47zm-66.35 5.05a5.05 5.05 0 118.79 3.37 1.25 1.25 0 00-.24.16.86.86 0 00-.15.22 5 5 0 01-3.35 1.3 5.06 5.06 0 01-5.05-5.05zm5 62.27a5.06 5.06 0 01-5-5.05 5.05 5.05 0 015-5 5 5 0 013.33 1.29 1.1 1.1 0 00.17.25.83.83 0 00.26.17 5 5 0 01-3.76 8.39zm61.3-10.1a5 5 0 015 5 5.05 5.05 0 11-5.05-5.05zm-35.7-62.38a5.05 5.05 0 115.07 5.05 5 5 0 01-5-5.05zm-31.73 43.87a5.05 5.05 0 115.05-5.05 5 5 0 01-5 5.05zM401 345.9a5.05 5.05 0 11-5.05-5 5 5 0 015.05 5zm14.72-32.68a21.46 21.46 0 01-3.5 5.71l-.15.09a1.12 1.12 0 00-.2.3 21.39 21.39 0 01-31.71.15 1 1 0 00-.16-.47 1.3 1.3 0 00-.31-.21 21.32 21.32 0 01.21-27.81l.1-.07a1.77 1.77 0 00.12-.17 21.36 21.36 0 0115.88-7.11 21.46 21.46 0 0115.84 7.08 1.27 1.27 0 00.23.34.65.65 0 00.15.1 21.41 21.41 0 013.54 22.07zm17-3.14a5.06 5.06 0 01-5-5 5 5 0 115 5.05z" class="cls-1" transform="translate(-352 -259)"/><path d="M400.24 306.81a6.75 6.75 0 003-5.45v-2.86a7.22 7.22 0 00-14.42 0v2.86a6.73 6.73 0 003 5.45c-3.75 1.33-7.05 4.11-7.05 6.49v4a1.08 1.08 0 102.16 0v-4c0-1.57 4.65-5.12 9.09-5.14H396c4.45 0 9.1 3.57 9.1 5.14v4a1.08 1.08 0 102.16 0v-4c.03-2.38-3.26-5.16-7.02-6.49zm-9.3-5.45v-2.86a5.07 5.07 0 0110.1 0v2.86a5 5 0 01-5 4.64 5 5 0 01-5.1-4.64z" class="cls-1" transform="translate(-352 -259)"/></svg>