<svg id="Layer_1" data-name="Layer 1" xmlns="http://www.w3.org/2000/svg" viewBox="0 0 87.98 94.11"><defs><style>.cls-1{fill:#57c1e7;}</style></defs><title>share with pride</title><path class="cls-1" d="M432.77,297.82a7.21,7.21,0,0,0-7.12,6.13h-6.13a23.72,23.72,0,0,0-5.15-13.64l8-8.09a7.2,7.2,0,0,0,11.48-5.8h0a7.21,7.21,0,1,0-13,4.27l-7.9,8a23.37,23.37,0,0,0-15.87-7.16v-8.19a7.15,7.15,0,1,0-2.16,0v8.18a23.45,23.45,0,0,0-15.79,7.07l-8-7.89a7.21,7.21,0,1,0-13-4.28h0a7.21,7.21,0,0,0,7.21,7.21,7.07,7.07,0,0,0,4.26-1.41l8.08,8a23.86,23.86,0,0,0-3.45,5.81,23.39,23.39,0,0,0-1.77,7.93h-6.13A7.21,7.21,0,0,0,352,305h0a7.21,7.21,0,0,0,14.33,1.08h6.14a23.62,23.62,0,0,0,5.18,13.69l-8,8a7.19,7.19,0,0,0-4.27-1.41h0a7.22,7.22,0,0,0-7.21,7.2h0a7.21,7.21,0,1,0,13-4.27l7.94-7.95a23.52,23.52,0,0,0,15.83,7.15v10.21a7.21,7.21,0,1,0,2.16,0V328.55a23.72,23.72,0,0,0,15.87-7.16l7.91,8a7.13,7.13,0,0,0-1.42,4.27,7.21,7.21,0,0,0,14.42,0h0a7.21,7.21,0,0,0-7.2-7.2h0a7.16,7.16,0,0,0-4.26,1.41l-8-8.08a23.27,23.27,0,0,0,5.16-13.65h6.13A7.21,7.21,0,0,0,440,305h0A7.22,7.22,0,0,0,432.77,297.82Zm-6.13-26.45a5.05,5.05,0,1,1-3.43,8.74,1,1,0,0,0-.11-.17s-.1-.06-.15-.1a5,5,0,0,1,3.69-8.47Zm-66.35,5.05a5.05,5.05,0,1,1,8.79,3.37,1.25,1.25,0,0,0-.24.16.86.86,0,0,0-.15.22,5,5,0,0,1-3.35,1.3A5.06,5.06,0,0,1,360.29,276.42Zm5,62.27a5.06,5.06,0,0,1-5-5.05h0a5.05,5.05,0,0,1,5-5h0a5,5,0,0,1,3.33,1.29,1.1,1.1,0,0,0,.17.25.83.83,0,0,0,.26.17,5,5,0,0,1-3.76,8.39Zm61.3-10.1h0a5,5,0,0,1,5,5h0a5.05,5.05,0,1,1-5.05-5.05Zm-35.7-62.38a5.05,5.05,0,1,1,5.07,5.05h0a5,5,0,0,1-5-5.05Zm-31.73,43.87a5.05,5.05,0,1,1,5.05-5.05A5,5,0,0,1,359.21,310.08ZM401,345.9a5.05,5.05,0,1,1-5.05-5A5,5,0,0,1,401,345.9Zm14.72-32.68a21.46,21.46,0,0,1-3.5,5.71l-.15.09a1.12,1.12,0,0,0-.2.3,21.39,21.39,0,0,1-31.71.15A1,1,0,0,0,380,319a1.3,1.3,0,0,0-.31-.21,21.32,21.32,0,0,1,.21-27.81l.1-.07a1.77,1.77,0,0,0,.12-.17A21.36,21.36,0,0,1,396,283.63H396a21.46,21.46,0,0,1,15.84,7.08,1.27,1.27,0,0,0,.23.34.65.65,0,0,0,.15.1A21.41,21.41,0,0,1,415.76,313.22Zm17-3.14a5.06,5.06,0,0,1-5-5h0a5,5,0,1,1,5,5.05Z" transform="translate(-352 -259)"/><path class="cls-1" d="M400.24,306.81a6.75,6.75,0,0,0,3-5.45V298.5a7.22,7.22,0,0,0-14.42,0v2.86a6.73,6.73,0,0,0,3,5.45c-3.75,1.33-7.05,4.11-7.05,6.49v4a1.08,1.08,0,1,0,2.16,0v-4c0-1.57,4.65-5.12,9.09-5.14H396c4.45,0,9.1,3.57,9.1,5.14v4a1.08,1.08,0,1,0,2.16,0v-4C407.29,310.92,404,308.14,400.24,306.81Zm-9.3-5.45V298.5a5.07,5.07,0,0,1,10.1,0v2.86a5,5,0,0,1-5,4.64h0A5,5,0,0,1,390.94,301.36Z" transform="translate(-352 -259)"/></svg>