<svg id="Layer_1" data-name="Layer 1" xmlns="http://www.w3.org/2000/svg" viewBox="0 0 92.53 94.59"><defs><style>.cls-1{fill:#57c1e7;}</style></defs><title>strength in numbers</title><path class="cls-1" d="M396.27,302.13c-7.76,0-21.62,3.8-21.62,11.35V332a9.69,9.69,0,0,0,8.21,9.13v11.36a1.08,1.08,0,0,0,2.16,0V317.59a1.08,1.08,0,0,0-2.16,0V339a7.52,7.52,0,0,1-6.05-7V313.48c0-3.37,4.33-5.63,6.92-6.67a32.44,32.44,0,0,1,25.07,0c2.59,1,6.92,3.3,6.92,6.67v18.43a7.53,7.53,0,0,1-6.05,7V317.59a1.08,1.08,0,0,0-2.16,0v34.92a1.08,1.08,0,0,0,2.16,0V341.15a9.7,9.7,0,0,0,8.21-9.18V313.48C417.88,305.93,404,302.13,396.27,302.13Z" transform="translate(-350 -258.99)"/><path class="cls-1" d="M423,308.29c-.65,0-1.37,0-2.15.11a1.08,1.08,0,0,0,.19,2.15c.71-.06,1.37-.09,2-.09,5.9,0,17.4,3.24,17.4,9.18v18.49c0,3-2.95,4.69-6.06,5v-19.4a1.08,1.08,0,0,0-2.16,0V352.5a1.08,1.08,0,1,0,2.16,0v-7.18c4.16-.37,8.22-2.86,8.22-7.19V319.64C442.53,312.09,430,308.29,423,308.29Z" transform="translate(-350 -258.99)"/><path class="cls-1" d="M387,289.66a8.11,8.11,0,0,0,2.67,6.14,9.9,9.9,0,0,0,6.63,2.33c5.38,0,9.29-3.56,9.29-8.47V286c0-4.92-3.91-8.48-9.29-8.48S387,281,387,286Zm2.16-3.7c0-3.72,2.93-6.32,7.14-6.32s7.13,2.6,7.13,6.32v3.7c0,3.72-2.93,6.31-7.13,6.31a7.74,7.74,0,0,1-5.19-1.78,5.88,5.88,0,0,1-1.95-4.53Z" transform="translate(-350 -258.99)"/><path class="cls-1" d="M434.32,295.82v-3.7c0-4.91-3.91-8.47-9.3-8.47s-9.3,3.56-9.3,8.47v3.7c0,4.91,3.91,8.47,9.3,8.47S434.32,300.73,434.32,295.82Zm-16.44,0v-3.7c0-3.72,2.94-6.31,7.14-6.31s7.14,2.59,7.14,6.31v3.7c0,3.72-2.94,6.31-7.14,6.31S417.88,299.54,417.88,295.82Z" transform="translate(-350 -258.99)"/><path class="cls-1" d="M371.72,308.4c-.78-.07-1.5-.11-2.15-.11-7,0-19.57,3.8-19.57,11.35v18.49c0,4.33,4.06,6.82,8.21,7.19v7.18a1.09,1.09,0,0,0,2.17,0v-8.21h0V323.75a1.09,1.09,0,0,0-2.17,0v19.4c-3.1-.33-6-2.06-6-5V319.64c0-5.94,11.5-9.18,17.41-9.18q.89,0,1.95.09a1.08,1.08,0,1,0,.2-2.15Z" transform="translate(-350 -258.99)"/><path class="cls-1" d="M376.81,292.12c0-4.91-3.91-8.47-9.3-8.47s-9.3,3.56-9.3,8.47v3.7c0,4.91,3.91,8.47,9.3,8.47s9.3-3.56,9.3-8.47Zm-2.16,3.7c0,3.72-2.94,6.31-7.14,6.31s-7.14-2.59-7.14-6.31v-3.7c0-3.72,2.94-6.31,7.14-6.31s7.14,2.59,7.14,6.31Z" transform="translate(-350 -258.99)"/><path class="cls-1" d="M377.78,279.65c5.39,0,9.3-3.57,9.3-8.48v-3.7c0-4.91-3.91-8.48-9.3-8.48s-9.3,3.57-9.3,8.48v3.7C368.48,276.08,372.39,279.65,377.78,279.65Zm-7.14-12.18c0-3.72,2.94-6.32,7.14-6.32s7.14,2.6,7.14,6.32v3.7c0,3.72-2.94,6.32-7.14,6.32s-7.14-2.6-7.14-6.32Z" transform="translate(-350 -258.99)"/><path class="cls-1" d="M414.75,279.65c5.38,0,9.29-3.57,9.29-8.48v-3.7c0-4.91-3.91-8.48-9.29-8.48s-9.3,3.57-9.3,8.48v3.7C405.45,276.08,409.36,279.65,414.75,279.65Zm-7.14-12.18c0-3.72,2.94-6.32,7.14-6.32s7.13,2.6,7.13,6.32v3.7c0,3.72-2.93,6.32-7.13,6.32s-7.14-2.6-7.14-6.32Z" transform="translate(-350 -258.99)"/></svg>