<svg data-name="Layer 1" viewBox="0 0 92.53 94.59"><defs><style>.cls-1{fill:#57c1e7}</style></defs><path d="M396.27 302.13c-7.76 0-21.62 3.8-21.62 11.35V332a9.69 9.69 0 008.21 9.13v11.36a1.08 1.08 0 002.16 0v-34.9a1.08 1.08 0 00-2.16 0V339a7.52 7.52 0 01-6.05-7v-18.52c0-3.37 4.33-5.63 6.92-6.67a32.44 32.44 0 0125.07 0c2.59 1 6.92 3.3 6.92 6.67v18.43a7.53 7.53 0 01-6.05 7v-21.32a1.08 1.08 0 00-2.16 0v34.92a1.08 1.08 0 002.16 0v-11.36a9.7 9.7 0 008.21-9.18v-18.49c0-7.55-13.88-11.35-21.61-11.35zM423 308.29c-.65 0-1.37 0-2.15.11a1.08 1.08 0 00.19 2.15 23.7 23.7 0 012-.09c5.9 0 17.4 3.24 17.4 9.18v18.49c0 3-2.95 4.69-6.06 5v-19.4a1.08 1.08 0 00-2.16 0v28.77a1.08 1.08 0 102.16 0v-7.18c4.16-.37 8.22-2.86 8.22-7.19v-18.49c-.07-7.55-12.6-11.35-19.6-11.35zM387 289.66a8.11 8.11 0 002.67 6.14 9.9 9.9 0 006.63 2.33c5.38 0 9.29-3.56 9.29-8.47V286c0-4.92-3.91-8.48-9.29-8.48S387 281 387 286zm2.16-3.7c0-3.72 2.93-6.32 7.14-6.32s7.13 2.6 7.13 6.32v3.7c0 3.72-2.93 6.31-7.13 6.31a7.74 7.74 0 01-5.19-1.78 5.88 5.88 0 01-1.95-4.53zM434.32 295.82v-3.7c0-4.91-3.91-8.47-9.3-8.47s-9.3 3.56-9.3 8.47v3.7c0 4.91 3.91 8.47 9.3 8.47s9.3-3.56 9.3-8.47zm-16.44 0v-3.7c0-3.72 2.94-6.31 7.14-6.31s7.14 2.59 7.14 6.31v3.7c0 3.72-2.94 6.31-7.14 6.31s-7.14-2.59-7.14-6.31zM371.72 308.4c-.78-.07-1.5-.11-2.15-.11-7 0-19.57 3.8-19.57 11.35v18.49c0 4.33 4.06 6.82 8.21 7.19v7.18a1.09 1.09 0 002.17 0v-28.75a1.09 1.09 0 00-2.17 0v19.4c-3.1-.33-6-2.06-6-5v-18.51c0-5.94 11.5-9.18 17.41-9.18q.89 0 1.95.09a1.08 1.08 0 10.2-2.15zM376.81 292.12c0-4.91-3.91-8.47-9.3-8.47s-9.3 3.56-9.3 8.47v3.7c0 4.91 3.91 8.47 9.3 8.47s9.3-3.56 9.3-8.47zm-2.16 3.7c0 3.72-2.94 6.31-7.14 6.31s-7.14-2.59-7.14-6.31v-3.7c0-3.72 2.94-6.31 7.14-6.31s7.14 2.59 7.14 6.31zM377.78 279.65c5.39 0 9.3-3.57 9.3-8.48v-3.7c0-4.91-3.91-8.48-9.3-8.48s-9.3 3.57-9.3 8.48v3.7c0 4.91 3.91 8.48 9.3 8.48zm-7.14-12.18c0-3.72 2.94-6.32 7.14-6.32s7.14 2.6 7.14 6.32v3.7c0 3.72-2.94 6.32-7.14 6.32s-7.14-2.6-7.14-6.32zM414.75 279.65c5.38 0 9.29-3.57 9.29-8.48v-3.7c0-4.91-3.91-8.48-9.29-8.48s-9.3 3.57-9.3 8.48v3.7c0 4.91 3.91 8.48 9.3 8.48zm-7.14-12.18c0-3.72 2.94-6.32 7.14-6.32s7.13 2.6 7.13 6.32v3.7c0 3.72-2.93 6.32-7.13 6.32s-7.14-2.6-7.14-6.32z" class="cls-1" transform="translate(-350 -258.99)"/></svg>