<svg viewBox="0 0 587.43 318.09"><defs><style>.cls-2{fill:#c4e9f7}.cls-14,.cls-3{fill:#0576bc}.cls-11,.cls-12,.cls-3{stroke:#0576bc}.cls-10,.cls-11,.cls-12,.cls-15,.cls-26,.cls-3,.cls-4{stroke-linecap:round;stroke-linejoin:round}.cls-11,.cls-12,.cls-15,.cls-3,.cls-4{stroke-width:2.16px}.cls-4,.cls-9{fill:#fff}.cls-10,.cls-15,.cls-26,.cls-4{stroke:#0074bc}.cls-10{stroke-width:1.98px}.cls-10,.cls-12,.cls-15,.cls-26{fill:none}.cls-11,.cls-19{fill:#bfd730}.cls-26{stroke-width:2.16px}.cls-16{fill:#0074bc}.cls-17{fill:#8c99a1;opacity:.5;mix-blend-mode:multiply}.cls-20{fill:#faa21b}</style></defs><g style="isolation:isolate"><g id="Layer_1" data-name="Layer 1"><path d="M158.2 190.09h481.53a26.52 26.52 0 0126.52 26.51 26.52 26.52 0 01-26.52 26.52h-19.55a28.76 28.76 0 00-28.76 28.76 28.77 28.77 0 0028.76 28.77h37.51a32.51 32.51 0 0132.52 32.51 32.52 32.52 0 01-32.52 32.51h-15a88 88 0 00-88 87.95H269.7a54.06 54.06 0 00-53.37-54.05l-77.85-1.23a36.16 36.16 0 01-35.7-36.16A36.16 36.16 0 01138.94 326h20.88a45.85 45.85 0 0145.24-45.85l39.85-.65a18.2 18.2 0 0018-18.2 18.2 18.2 0 00-18.2-18.2H158.2a26.52 26.52 0 01-26.52-26.52 26.51 26.51 0 0126.52-26.49z" class="cls-2" transform="translate(-102.78 -146.63)"/><path d="M441.94 10.75l-9.67-9.67" class="cls-3"/><rect width="81.37" height="57.06" x="191.74" y="333.4" class="cls-4" rx="5.54" transform="rotate(-12.44 -491.64 760.187)"/><path style="fill:#57c1e9;stroke:#0074bc;stroke-width:2.16px;stroke-linecap:round;stroke-linejoin:round" d="M236.05 359l28.74-31.73a5.5 5.5 0 00-4.19-.77L192 341.64a5.49 5.49 0 00-3.28 2.2l40.44 16.69a5.87 5.87 0 006.89-1.53z" transform="translate(-102.78 -146.63)"/><rect width="75.29" height="75.29" x="283.8" y="328.36" class="cls-4" rx="5.84" transform="rotate(17.52 745.844 -40.786)"/><path d="M294.8 338.98h53.25v49.8H294.8z" style="fill:#e9f1b7" transform="rotate(17.52 745.811 -42.94)"/><path d="M355.62 221.23h113.53v95.78H355.62z" style="stroke-width:1.98px;stroke:#0074bc;fill:#fff;stroke-linecap:round;stroke-linejoin:round"/><path style="stroke-width:1.98px;fill:#57c1e9;stroke:#0074bc;stroke-linecap:round;stroke-linejoin:round" d="M571.78 463V353H577a12.43 12.43 0 0112.41 12.41V463" transform="translate(-102.78 -146.63)"/><path d="M317.42 430.76h29.77a19.12 19.12 0 0019.09-19.1v-1.28a19.11 19.11 0 00-18.56-19.09 26.66 26.66 0 00-25.08-17.94 26.38 26.38 0 00-12.22 3 35.66 35.66 0 00-68.36-4.25 24.29 24.29 0 00-5-.52 24.86 24.86 0 00-24.43 19.7h-2.44a19.12 19.12 0 00-19.09 19.1v1.28a19.12 19.12 0 0019.09 19.1h107.23z" class="cls-9" transform="translate(-102.78 -146.63)"/><path d="M234.68 430.76h-24.47a19.12 19.12 0 01-19.09-19.1v-1.28a19.12 19.12 0 0119.09-19.1h2.44a24.86 24.86 0 0124.43-19.7 24.29 24.29 0 015 .52 35.66 35.66 0 0168.36 4.25 26.38 26.38 0 0112.22-3 26.66 26.66 0 0125.08 17.94 19.11 19.11 0 0118.56 19.09v1.28a19.12 19.12 0 01-19.09 19.1h-29.79M258.22 383.81c-4.76-8.56-11-11-17.66-12M269.46 359.79c9.44-.48 17.41 3.45 24 10" class="cls-10" transform="translate(-102.78 -146.63)"/><path d="M635.61 417.89l-1.49-1.43c-.55-.53-13.46-13-13.46-24.53s12.91-24 13.46-24.52l1.49-1.44 1.5 1.44c.55.52 13.45 13 13.45 24.52s-12.9 24-13.45 24.53z" class="cls-11" transform="translate(-102.78 -146.63)"/><path d="M523.12 232.64l9.69 10.09 9.29-10.09" class="cls-12"/><path d="M519.07 242.49l13.74 14.37 13.42-14.53" class="cls-12"/><path d="M611 364.86l-1.49-1.43c-.55-.52-13.46-13-13.46-24.53s12.91-24 13.46-24.52L611 313l1.5 1.43c.55.53 13.46 13 13.46 24.52s-12.91 24-13.46 24.53z" class="cls-11" transform="translate(-102.78 -146.63)"/><path d="M532.89 221.26v95.28M508.38 166.67v149.87M498.55 179.61l9.69 10.09 9.29-10.09" class="cls-12"/><path d="M494.5 189.46l13.74 14.38 13.42-14.54" class="cls-12"/><path d="M222.85 22.27h92.32" style="stroke-width:2.16px;fill:none;stroke-linecap:round;stroke-linejoin:round;stroke:#0576bc"/><path d="M273.33 6.4h146.36M322.38 22.27h15.97M42.85 115.19h47.31M100.26 115.19h10.31" class="cls-12"/><path d="M325.4 268.25a3.89 3.89 0 11-3.89-3.88 3.89 3.89 0 013.89 3.88zM629.47 183.4a3.89 3.89 0 11-3.89-3.89 3.89 3.89 0 013.89 3.89z" class="cls-14" transform="translate(-102.78 -146.63)"/><path d="M121.3 115.09h13.67M128.13 121.93v-13.67M542.86 114.99h13.68M549.7 121.82v-13.67M70.54 177.19l9.67-9.67M80.21 177.19l-9.67-9.67M432.06 11.28l9.67-9.67" class="cls-3"/><path d="M567.87 266.29h32.48a20.87 20.87 0 0020.84-20.84v-1.4a20.86 20.86 0 00-20.26-20.83 29.08 29.08 0 00-27.37-19.57 28.77 28.77 0 00-13.33 3.27 38.91 38.91 0 00-74.59-4.64 26.68 26.68 0 00-5.44-.57 27.13 27.13 0 00-26.65 21.5h-2.66a20.87 20.87 0 00-20.84 20.84v1.4a20.87 20.87 0 0020.84 20.84h117z" class="cls-2" transform="translate(-102.78 -146.63)"/><path d="M595.4 228.89h-.74a26.84 26.84 0 00-25.82-19 27.13 27.13 0 00-14.51 4.11 37 37 0 00-71.51-5.19 25.46 25.46 0 00-6.57-.88 25.15 25.15 0 00-25 20.92h-4.11a18.77 18.77 0 00-18.89 18.53v1.36a18.76 18.76 0 0018.89 18.53H595.4a18.75 18.75 0 0018.88-18.53v-1.36a18.76 18.76 0 00-18.88-18.49z" class="cls-9" transform="translate(-102.78 -146.63)"/><path d="M477.59 266.29h-26.7a20.87 20.87 0 01-20.84-20.84v-1.4a20.87 20.87 0 0120.84-20.84h2.66a27.13 27.13 0 0126.65-21.5 26.68 26.68 0 015.44.57 38.91 38.91 0 0174.59 4.64 28.77 28.77 0 0113.33-3.27 29.08 29.08 0 0127.37 19.57 20.86 20.86 0 0120.26 20.83v1.4a20.87 20.87 0 01-20.84 20.84h-32.48M503.28 215.05c-5.21-9.33-12-12-19.28-13M515.53 188.85c10.3-.52 19 3.77 26.15 10.92" class="cls-15" transform="translate(-102.78 -146.63)"/><path d="M457.36 119.65h-11.12" class="cls-15"/><path d="M521.66 384.18a31.25 31.25 0 00-30.91 35.71l9.63-9.63a5.31 5.31 0 017.49 0l8 8L526 408.13l-3.89-1.45a1.47 1.47 0 01-1-1.43 1.49 1.49 0 011.07-1.36l19.08-5.52a1.51 1.51 0 011.43.36 1.57 1.57 0 01.4 1.48l-5.54 19.2a1.55 1.55 0 01-1.35 1.18 1.59 1.59 0 01-1.43-1.08l-1.44-4-13.84 13.85a5.31 5.31 0 01-7.44 0l-8-8.05-9.58 9.6a31.23 31.23 0 1027.13-46.7z" class="cls-16" transform="translate(-102.78 -146.63)"/><path d="M362.46 338.32l-34.1-10.81v120.91a15.16 15.16 0 0015.15 15.14h120.43a15.15 15.15 0 0015.14-15.14v-81.67h-6.54z" class="cls-17" transform="translate(-102.78 -146.63)"/><rect style="fill:#9da8af;stroke-width:2.16px;stroke-linecap:round;stroke-linejoin:round;stroke:#0576bc" width="135.57" height="247.08" x="233.16" y="69.93" rx="13.34"/><path d="M242.21 95.9h115.8v190.61h-115.8z" class="cls-9"/><rect width="22.04" height="22.04" x="254.96" y="154.58" class="cls-16" rx="1.22"/><rect width="22.04" height="22.04" x="254.96" y="219.5" class="cls-16" rx="1.22"/><rect width="22.04" height="22.04" x="322.15" y="219.5" class="cls-16" rx="1.22"/><rect width="22.04" height="22.04" x="254.96" y="252.09" class="cls-19" rx="1.22"/><rect width="22.04" height="22.04" x="254.96" y="122.14" class="cls-19" rx="1.22"/><rect width="22.04" height="22.04" x="322.15" y="252.09" class="cls-20" rx="1.22"/><rect width="22.04" height="22.04" x="288.59" y="219.5" class="cls-20" rx="1.22"/><rect width="22.04" height="22.04" x="254.96" y="187.31" class="cls-20" rx="1.22"/><rect width="22.04" height="22.04" x="288.59" y="187.31" class="cls-19" rx="1.22"/><rect width="22.04" height="22.04" x="288.59" y="122.15" class="cls-20" rx="1.22"/><path d="M281.64 84.53h38.66" style="stroke:#69747a;fill:none;stroke-width:2.16px;stroke-linecap:round;stroke-linejoin:round"/><circle style="fill:#69747a" cx="301.15" cy="301.08" r="9.86"/><path d="M450.27 257.32a54.43 54.43 0 00-8 66.3l-14.45 29.85a2.73 2.73 0 003.68 3.63l29.68-14.86a54.23 54.23 0 0011.38 5V243.92a53.74 53.74 0 00-22.29 13.4z" class="cls-17" transform="translate(-102.78 -146.63)"/><path d="M347.98 119.65h14.76" class="cls-15"/><path d="M525.48 326.76a52.28 52.28 0 10-81.14-9l-14.88 30.74a.94.94 0 001.26 1.24l30.56-15.31a52.28 52.28 0 0064.2-7.67z" class="cls-9" transform="translate(-102.78 -146.63)"/><path d="M358.87 130.05h26.34M350.1 140.29h19.05M377.47 140.29h70.15M355.53 151.21h38.01M349.76 162.96h22.28M377.47 162.96h87.31M400.83 151.21h18.06M392.59 130.05h13.18M372.11 119.65h66.22" class="cls-15"/><path d="M530.72 259.05a52.24 52.24 0 00-86.38 58.69l-14.88 30.74a.94.94 0 001.26 1.24l30.56-15.31a52 52 0 0072.17-18" class="cls-12" transform="translate(-102.78 -146.63)"/><g style="opacity:.5;mix-blend-mode:multiply"><path style="fill:#8c99a1" d="M353.61 420.52h-18.55v42.88h18.55a6.57 6.57 0 006.55-6.55v-29.78a6.57 6.57 0 00-6.55-6.55z" transform="translate(-102.78 -146.63)"/></g><rect style="fill:#fef1dd;stroke:#0074bc;stroke-width:2.16px;stroke-linecap:round;stroke-linejoin:round" width="180.6" height="42.89" x="69.23" y="273.89" rx="6.55"/><path d="M86.15 300.2v-25.43M104.49 287.48v-12.71M122.84 293.25v-18.48M141.19 287.48v-12.71M159.53 300.2v-25.43M177.88 287.48v-12.71M196.23 293.25v-18.48M214.57 287.48v-12.71M232.92 300.2v-25.43" class="cls-3"/><path d="M45.88 317.01h500.83M559.13 317.01h19.03M18.55 317.01h13.46" class="cls-15"/><path d="M213.73 173.22a3.1 3.1 0 11-3.09-3.1 3.09 3.09 0 013.09 3.1z" class="cls-14" transform="translate(-102.78 -146.63)"/><path d="M284.64 222.26h19.52a12.53 12.53 0 0012.52-12.52v-.85a12.53 12.53 0 00-12.17-12.51 17.47 17.47 0 00-16.44-11.77 17.28 17.28 0 00-8 2 23.39 23.39 0 00-44.83-2.79 16.66 16.66 0 00-3.27-.34 16.32 16.32 0 00-16 12.92h-1.6a12.54 12.54 0 00-12.52 12.52v.85a12.54 12.54 0 0012.52 12.52h70.3z" class="cls-2" transform="translate(-102.78 -146.63)"/><path d="M302.71 199.79h-.44a16.13 16.13 0 00-15.52-11.45 16.38 16.38 0 00-8.72 2.52 22.21 22.21 0 00-43-3.12 15.56 15.56 0 00-3.95-.53 15.11 15.11 0 00-15 12.58h-2.47a11.28 11.28 0 00-11.35 11.13v.82a11.28 11.28 0 0011.35 11.13h89.07a11.27 11.27 0 0011.35-11.13v-.82a11.27 11.27 0 00-11.32-11.13z" class="cls-9" transform="translate(-102.78 -146.63)"/><path d="M241 222.26h-26.66a12.54 12.54 0 01-12.52-12.52v-.85a12.54 12.54 0 0112.52-12.52h1.6a16.32 16.32 0 0116-12.92 16.66 16.66 0 013.27.34 23.39 23.39 0 0144.83 2.79 17.28 17.28 0 018-2 17.47 17.47 0 0116.44 11.77 12.53 12.53 0 0112.17 12.51v.85a12.53 12.53 0 01-12.52 12.52h-15.89M245.83 191.47c-3.13-5.61-7.21-7.18-11.59-7.84M253.19 175.72c6.19-.31 11.42 2.27 15.71 6.56" class="cls-26" transform="translate(-102.78 -146.63)"/><path style="stroke-width:2.16px;fill:#bfd730;stroke:#0074bc;stroke-linecap:round;stroke-linejoin:round" d="M283.86 211.66h-3.48a16.06 16.06 0 00-2.08-5l2.46-2.46a2.23 2.23 0 000-3.17l-1.84-1.85a2.25 2.25 0 00-3.18 0l-2.46 2.46a16 16 0 00-5-2.08v-3.48a2.25 2.25 0 00-2.26-2.24h-2.6a2.24 2.24 0 00-2.25 2.24v3.48a16.09 16.09 0 00-4.93 2l-2.44-2.47a2.25 2.25 0 00-3.18 0l-1.85 1.83a2.24 2.24 0 000 3.17l2.44 2.48a15.77 15.77 0 00-2.09 5h-3.48a2.24 2.24 0 00-2.25 2.24v2.6a2.24 2.24 0 002.23 2.26h3.47a15.84 15.84 0 002.07 5l-2.47 2.46a2.25 2.25 0 000 3.18l1.83 1.84a2.24 2.24 0 003.18 0l2.47-2.45a15.84 15.84 0 005 2.1v3.47a2.24 2.24 0 002.24 2.25H266a2.24 2.24 0 002.25-2.23v-3.48a16.23 16.23 0 005-2.07l2.45 2.47a2.26 2.26 0 003.19 0l1.83-1.83a2.24 2.24 0 000-3.18l-2.44-2.46a16 16 0 002.09-5h3.47a2.25 2.25 0 002.25-2.25v-2.61a2.23 2.23 0 00-2.23-2.22zm-19.12 10.64a7.13 7.13 0 117.12-7.14 7.13 7.13 0 01-7.12 7.14z" transform="translate(-102.78 -146.63)"/><path d="M652.37 342.66a3.89 3.89 0 11-3.88-3.88 3.89 3.89 0 013.88 3.88z" class="cls-14" transform="translate(-102.78 -146.63)"/></g></g></svg>