<svg xmlns="http://www.w3.org/2000/svg" viewBox="0 0 587.43 318.09"><defs><style>.cls-1{isolation:isolate;}.cls-2{fill:#c4e9f7;}.cls-14,.cls-3{fill:#0576bc;}.cls-11,.cls-12,.cls-13,.cls-18,.cls-3{stroke:#0576bc;}.cls-10,.cls-11,.cls-12,.cls-13,.cls-15,.cls-18,.cls-21,.cls-25,.cls-26,.cls-27,.cls-3,.cls-4,.cls-5,.cls-7,.cls-8{stroke-linecap:round;stroke-linejoin:round;}.cls-11,.cls-12,.cls-15,.cls-18,.cls-21,.cls-25,.cls-3,.cls-4,.cls-5{stroke-width:2.16px;}.cls-4,.cls-7,.cls-9{fill:#fff;}.cls-10,.cls-15,.cls-25,.cls-26,.cls-27,.cls-4,.cls-5,.cls-7,.cls-8{stroke:#0074bc;}.cls-5,.cls-8{fill:#57c1e9;}.cls-6{fill:#e9f1b7;}.cls-10,.cls-7,.cls-8{stroke-width:1.98px;}.cls-10,.cls-12,.cls-13,.cls-15,.cls-21,.cls-26{fill:none;}.cls-11,.cls-19,.cls-27{fill:#bfd730;}.cls-13,.cls-26,.cls-27{stroke-width:2.16px;}.cls-16{fill:#0074bc;}.cls-17,.cls-24{fill:#8c99a1;}.cls-17,.cls-23{opacity:0.5;mix-blend-mode:multiply;}.cls-18{fill:#9da8af;}.cls-20{fill:#faa21b;}.cls-21{stroke:#69747a;}.cls-22{fill:#69747a;}.cls-25{fill:#fef1dd;}</style></defs><title>the solution graphic - desktop</title><g class="cls-1"><g id="Layer_1" data-name="Layer 1"><path class="cls-2" d="M158.2,190.09H639.73a26.52,26.52,0,0,1,26.52,26.51h0a26.52,26.52,0,0,1-26.52,26.52H620.18a28.76,28.76,0,0,0-28.76,28.76h0a28.77,28.77,0,0,0,28.76,28.77h37.51a32.51,32.51,0,0,1,32.52,32.51h0a32.52,32.52,0,0,1-32.52,32.51h-15a88,88,0,0,0-88,87.95H269.7a54.06,54.06,0,0,0-53.37-54.05l-77.85-1.23a36.16,36.16,0,0,1-35.7-36.16h0A36.16,36.16,0,0,1,138.94,326h20.88a45.85,45.85,0,0,1,45.24-45.85l39.85-.65a18.2,18.2,0,0,0,18-18.2h0a18.2,18.2,0,0,0-18.2-18.2H158.2a26.52,26.52,0,0,1-26.52-26.52h0A26.51,26.51,0,0,1,158.2,190.09Z" transform="translate(-102.78 -146.63)"/><line class="cls-3" x1="441.94" y1="10.75" x2="432.27" y2="1.08"/><rect class="cls-4" x="191.74" y="333.4" width="81.37" height="57.06" rx="5.54" transform="translate(-175.3 -88.06) rotate(-12.44)"/><path class="cls-5" d="M236.05,359l28.74-31.73a5.5,5.5,0,0,0-4.19-.77L192,341.64a5.49,5.49,0,0,0-3.28,2.2l40.44,16.69A5.87,5.87,0,0,0,236.05,359Z" transform="translate(-102.78 -146.63)"/><rect class="cls-4" x="283.8" y="328.36" width="75.29" height="75.29" rx="5.84" transform="translate(22.32 -226.42) rotate(17.52)"/><rect class="cls-6" x="294.8" y="338.98" width="53.25" height="49.8" transform="translate(21.67 -226.51) rotate(17.52)"/><rect class="cls-7" x="355.62" y="221.23" width="113.53" height="95.78"/><path class="cls-8" d="M571.78,463v-110H577a12.43,12.43,0,0,1,12.41,12.41V463" transform="translate(-102.78 -146.63)"/><path class="cls-9" d="M317.42,430.76h29.77a19.12,19.12,0,0,0,19.09-19.1v-1.28a19.11,19.11,0,0,0-18.56-19.09,26.66,26.66,0,0,0-25.08-17.94,26.38,26.38,0,0,0-12.22,3,35.66,35.66,0,0,0-68.36-4.25,24.29,24.29,0,0,0-5-.52,24.86,24.86,0,0,0-24.43,19.7h-2.44a19.12,19.12,0,0,0-19.09,19.1v1.28a19.12,19.12,0,0,0,19.09,19.1H317.42Z" transform="translate(-102.78 -146.63)"/><path class="cls-10" d="M234.68,430.76H210.21a19.12,19.12,0,0,1-19.09-19.1v-1.28a19.12,19.12,0,0,1,19.09-19.1h2.44a24.86,24.86,0,0,1,24.43-19.7,24.29,24.29,0,0,1,5,.52,35.66,35.66,0,0,1,68.36,4.25,26.38,26.38,0,0,1,12.22-3,26.66,26.66,0,0,1,25.08,17.94,19.11,19.11,0,0,1,18.56,19.09v1.28a19.12,19.12,0,0,1-19.09,19.1H317.42" transform="translate(-102.78 -146.63)"/><path class="cls-10" d="M258.22,383.81c-4.76-8.56-11-11-17.66-12" transform="translate(-102.78 -146.63)"/><path class="cls-10" d="M269.46,359.79c9.44-.48,17.41,3.45,24,10" transform="translate(-102.78 -146.63)"/><path class="cls-11" d="M635.61,417.89l-1.49-1.43c-.55-.53-13.46-13-13.46-24.53s12.91-24,13.46-24.52l1.49-1.44,1.5,1.44c.55.52,13.45,13,13.45,24.52s-12.9,24-13.45,24.53Z" transform="translate(-102.78 -146.63)"/><polyline class="cls-12" points="523.12 232.64 532.81 242.73 542.1 232.64"/><polyline class="cls-12" points="519.07 242.49 532.81 256.86 546.23 242.33"/><path class="cls-11" d="M611,364.86l-1.49-1.43c-.55-.52-13.46-13-13.46-24.53s12.91-24,13.46-24.52L611,313l1.5,1.43c.55.53,13.46,13,13.46,24.52s-12.91,24-13.46,24.53Z" transform="translate(-102.78 -146.63)"/><line class="cls-12" x1="532.89" y1="221.26" x2="532.89" y2="316.54"/><line class="cls-12" x1="508.38" y1="166.67" x2="508.38" y2="316.54"/><polyline class="cls-12" points="498.55 179.61 508.24 189.7 517.53 179.61"/><polyline class="cls-12" points="494.5 189.46 508.24 203.84 521.66 189.3"/><line class="cls-13" x1="222.85" y1="22.27" x2="315.17" y2="22.27"/><line class="cls-12" x1="273.33" y1="6.4" x2="419.69" y2="6.4"/><line class="cls-12" x1="322.38" y1="22.27" x2="338.35" y2="22.27"/><line class="cls-12" x1="42.85" y1="115.19" x2="90.16" y2="115.19"/><line class="cls-12" x1="100.26" y1="115.19" x2="110.57" y2="115.19"/><path class="cls-14" d="M325.4,268.25a3.89,3.89,0,1,1-3.89-3.88A3.89,3.89,0,0,1,325.4,268.25Z" transform="translate(-102.78 -146.63)"/><path class="cls-14" d="M629.47,183.4a3.89,3.89,0,1,1-3.89-3.89A3.89,3.89,0,0,1,629.47,183.4Z" transform="translate(-102.78 -146.63)"/><line class="cls-3" x1="121.3" y1="115.09" x2="134.97" y2="115.09"/><line class="cls-3" x1="128.13" y1="121.93" x2="128.13" y2="108.26"/><line class="cls-3" x1="542.86" y1="114.99" x2="556.54" y2="114.99"/><line class="cls-3" x1="549.7" y1="121.82" x2="549.7" y2="108.15"/><line class="cls-3" x1="70.54" y1="177.19" x2="80.21" y2="167.52"/><line class="cls-3" x1="80.21" y1="177.19" x2="70.54" y2="167.52"/><line class="cls-3" x1="432.06" y1="11.28" x2="441.73" y2="1.61"/><path class="cls-2" d="M567.87,266.29h32.48a20.87,20.87,0,0,0,20.84-20.84v-1.4a20.86,20.86,0,0,0-20.26-20.83,29.08,29.08,0,0,0-27.37-19.57,28.77,28.77,0,0,0-13.33,3.27,38.91,38.91,0,0,0-74.59-4.64,26.68,26.68,0,0,0-5.44-.57,27.13,27.13,0,0,0-26.65,21.5h-2.66a20.87,20.87,0,0,0-20.84,20.84v1.4a20.87,20.87,0,0,0,20.84,20.84h117Z" transform="translate(-102.78 -146.63)"/><path class="cls-9" d="M595.4,228.89h-.74a26.84,26.84,0,0,0-25.82-19A27.13,27.13,0,0,0,554.33,214a37,37,0,0,0-71.51-5.19,25.46,25.46,0,0,0-6.57-.88,25.15,25.15,0,0,0-25,20.92h-4.11a18.77,18.77,0,0,0-18.89,18.53v1.36a18.76,18.76,0,0,0,18.89,18.53H595.4a18.75,18.75,0,0,0,18.88-18.53v-1.36A18.76,18.76,0,0,0,595.4,228.89Z" transform="translate(-102.78 -146.63)"/><path class="cls-15" d="M477.59,266.29h-26.7a20.87,20.87,0,0,1-20.84-20.84v-1.4a20.87,20.87,0,0,1,20.84-20.84h2.66a27.13,27.13,0,0,1,26.65-21.5,26.68,26.68,0,0,1,5.44.57,38.91,38.91,0,0,1,74.59,4.64,28.77,28.77,0,0,1,13.33-3.27,29.08,29.08,0,0,1,27.37,19.57,20.86,20.86,0,0,1,20.26,20.83v1.4a20.87,20.87,0,0,1-20.84,20.84H567.87" transform="translate(-102.78 -146.63)"/><path class="cls-15" d="M503.28,215.05c-5.21-9.33-12-12-19.28-13" transform="translate(-102.78 -146.63)"/><path class="cls-15" d="M515.53,188.85c10.3-.52,19,3.77,26.15,10.92" transform="translate(-102.78 -146.63)"/><line class="cls-15" x1="457.36" y1="119.65" x2="446.24" y2="119.65"/><path class="cls-16" d="M521.66,384.18a31.25,31.25,0,0,0-30.91,35.71l9.63-9.63a5.31,5.31,0,0,1,7.49,0l8,8L526,408.13l-3.89-1.45a1.47,1.47,0,0,1-1-1.43,1.49,1.49,0,0,1,1.07-1.36l19.08-5.52a1.51,1.51,0,0,1,1.43.36,1.57,1.57,0,0,1,.4,1.48l-5.54,19.2a1.55,1.55,0,0,1-1.35,1.18h0a1.59,1.59,0,0,1-1.43-1.08l-1.44-4-13.84,13.85a5.31,5.31,0,0,1-7.44,0l-8-8.05-9.58,9.6a31.23,31.23,0,1,0,27.13-46.7Z" transform="translate(-102.78 -146.63)"/><path class="cls-17" d="M362.46,338.32l-34.1-10.81V448.42a15.16,15.16,0,0,0,15.15,15.14H463.94a15.15,15.15,0,0,0,15.14-15.14V366.75h-6.54Z" transform="translate(-102.78 -146.63)"/><rect class="cls-18" x="233.16" y="69.93" width="135.57" height="247.08" rx="13.34"/><rect class="cls-9" x="242.21" y="95.9" width="115.8" height="190.61"/><rect class="cls-16" x="254.96" y="154.58" width="22.04" height="22.04" rx="1.22"/><rect class="cls-16" x="254.96" y="219.5" width="22.04" height="22.04" rx="1.22"/><rect class="cls-16" x="322.15" y="219.5" width="22.04" height="22.04" rx="1.22"/><rect class="cls-19" x="254.96" y="252.09" width="22.04" height="22.04" rx="1.22"/><rect class="cls-19" x="254.96" y="122.14" width="22.04" height="22.04" rx="1.22"/><rect class="cls-20" x="322.15" y="252.09" width="22.04" height="22.04" rx="1.22"/><rect class="cls-20" x="288.59" y="219.5" width="22.04" height="22.04" rx="1.22"/><rect class="cls-20" x="254.96" y="187.31" width="22.04" height="22.04" rx="1.22"/><rect class="cls-19" x="288.59" y="187.31" width="22.04" height="22.04" rx="1.22"/><rect class="cls-20" x="288.59" y="122.15" width="22.04" height="22.04" rx="1.22"/><line class="cls-21" x1="281.64" y1="84.53" x2="320.3" y2="84.53"/><circle class="cls-22" cx="301.15" cy="301.08" r="9.86"/><path class="cls-17" d="M450.27,257.32a54.43,54.43,0,0,0-8,66.3l-14.45,29.85a2.73,2.73,0,0,0,3.68,3.63l29.68-14.86a54.23,54.23,0,0,0,11.38,5V243.92A53.74,53.74,0,0,0,450.27,257.32Z" transform="translate(-102.78 -146.63)"/><line class="cls-15" x1="347.98" y1="119.65" x2="362.74" y2="119.65"/><path class="cls-9" d="M525.48,326.76a52.28,52.28,0,1,0-81.14-9l-14.88,30.74a.94.94,0,0,0,1.26,1.24l30.56-15.31A52.28,52.28,0,0,0,525.48,326.76Z" transform="translate(-102.78 -146.63)"/><line class="cls-15" x1="358.87" y1="130.05" x2="385.21" y2="130.05"/><line class="cls-15" x1="350.1" y1="140.29" x2="369.15" y2="140.29"/><line class="cls-15" x1="377.47" y1="140.29" x2="447.62" y2="140.29"/><path class="cls-15" d="M471.93,258.2" transform="translate(-102.78 -146.63)"/><path class="cls-15" d="M452.89,258.2" transform="translate(-102.78 -146.63)"/><line class="cls-15" x1="355.53" y1="151.21" x2="393.54" y2="151.21"/><line class="cls-15" x1="349.76" y1="162.96" x2="372.04" y2="162.96"/><line class="cls-15" x1="377.47" y1="162.96" x2="464.78" y2="162.96"/><line class="cls-15" x1="400.83" y1="151.21" x2="418.89" y2="151.21"/><line class="cls-15" x1="392.59" y1="130.05" x2="405.77" y2="130.05"/><line class="cls-15" x1="372.11" y1="119.65" x2="438.33" y2="119.65"/><path class="cls-12" d="M530.72,259.05a52.24,52.24,0,0,0-86.38,58.69l-14.88,30.74a.94.94,0,0,0,1.26,1.24l30.56-15.31a52,52,0,0,0,72.17-18" transform="translate(-102.78 -146.63)"/><g class="cls-23"><path class="cls-24" d="M353.61,420.52H335.06V463.4h18.55a6.57,6.57,0,0,0,6.55-6.55V427.07A6.57,6.57,0,0,0,353.61,420.52Z" transform="translate(-102.78 -146.63)"/></g><rect class="cls-25" x="69.23" y="273.89" width="180.6" height="42.89" rx="6.55"/><line class="cls-3" x1="86.15" y1="300.2" x2="86.15" y2="274.77"/><line class="cls-3" x1="104.49" y1="287.48" x2="104.49" y2="274.77"/><line class="cls-3" x1="122.84" y1="293.25" x2="122.84" y2="274.77"/><line class="cls-3" x1="141.19" y1="287.48" x2="141.19" y2="274.77"/><line class="cls-3" x1="159.53" y1="300.2" x2="159.53" y2="274.77"/><line class="cls-3" x1="177.88" y1="287.48" x2="177.88" y2="274.77"/><line class="cls-3" x1="196.23" y1="293.25" x2="196.23" y2="274.77"/><line class="cls-3" x1="214.57" y1="287.48" x2="214.57" y2="274.77"/><line class="cls-3" x1="232.92" y1="300.2" x2="232.92" y2="274.77"/><line class="cls-15" x1="45.88" y1="317.01" x2="546.71" y2="317.01"/><line class="cls-15" x1="559.13" y1="317.01" x2="578.16" y2="317.01"/><line class="cls-15" x1="18.55" y1="317.01" x2="32.01" y2="317.01"/><path class="cls-14" d="M213.73,173.22a3.1,3.1,0,1,1-3.09-3.1A3.09,3.09,0,0,1,213.73,173.22Z" transform="translate(-102.78 -146.63)"/><path class="cls-2" d="M284.64,222.26h19.52a12.53,12.53,0,0,0,12.52-12.52v-.85a12.53,12.53,0,0,0-12.17-12.51,17.47,17.47,0,0,0-16.44-11.77,17.28,17.28,0,0,0-8,2,23.39,23.39,0,0,0-44.83-2.79,16.66,16.66,0,0,0-3.27-.34,16.32,16.32,0,0,0-16,12.92h-1.6a12.54,12.54,0,0,0-12.52,12.52v.85a12.54,12.54,0,0,0,12.52,12.52h70.3Z" transform="translate(-102.78 -146.63)"/><path class="cls-9" d="M302.71,199.79h-.44a16.13,16.13,0,0,0-15.52-11.45,16.38,16.38,0,0,0-8.72,2.52,22.21,22.21,0,0,0-43-3.12,15.56,15.56,0,0,0-3.95-.53,15.11,15.11,0,0,0-15,12.58h-2.47a11.28,11.28,0,0,0-11.35,11.13v.82a11.28,11.28,0,0,0,11.35,11.13h89.07a11.27,11.27,0,0,0,11.35-11.13v-.82A11.27,11.27,0,0,0,302.71,199.79Z" transform="translate(-102.78 -146.63)"/><path class="cls-26" d="M241,222.26H214.34a12.54,12.54,0,0,1-12.52-12.52v-.85a12.54,12.54,0,0,1,12.52-12.52h1.6a16.32,16.32,0,0,1,16-12.92,16.66,16.66,0,0,1,3.27.34,23.39,23.39,0,0,1,44.83,2.79,17.28,17.28,0,0,1,8-2,17.47,17.47,0,0,1,16.44,11.77,12.53,12.53,0,0,1,12.17,12.51v.85a12.53,12.53,0,0,1-12.52,12.52H288.24" transform="translate(-102.78 -146.63)"/><path class="cls-26" d="M245.83,191.47c-3.13-5.61-7.21-7.18-11.59-7.84" transform="translate(-102.78 -146.63)"/><path class="cls-26" d="M253.19,175.72c6.19-.31,11.42,2.27,15.71,6.56" transform="translate(-102.78 -146.63)"/><path class="cls-27" d="M283.86,211.66l-3.48,0a16.06,16.06,0,0,0-2.08-5l2.46-2.46a2.23,2.23,0,0,0,0-3.17l-1.84-1.85a2.25,2.25,0,0,0-3.18,0l-2.46,2.46a16,16,0,0,0-5-2.08v-3.48a2.25,2.25,0,0,0-2.26-2.24h-2.6a2.24,2.24,0,0,0-2.25,2.24v3.48a16.09,16.09,0,0,0-4.93,2l-2.44-2.47a2.25,2.25,0,0,0-3.18,0l-1.85,1.83a2.24,2.24,0,0,0,0,3.17l2.44,2.48a15.77,15.77,0,0,0-2.09,5h-3.48a2.24,2.24,0,0,0-2.25,2.24v2.6a2.24,2.24,0,0,0,2.23,2.26h3.47a15.84,15.84,0,0,0,2.07,5l-2.47,2.46a2.25,2.25,0,0,0,0,3.18l1.83,1.84a2.24,2.24,0,0,0,3.18,0l2.47-2.45a15.84,15.84,0,0,0,5,2.1v3.47a2.24,2.24,0,0,0,2.24,2.25H266a2.24,2.24,0,0,0,2.25-2.23v-3.48a16.23,16.23,0,0,0,5-2.07l2.45,2.47a2.26,2.26,0,0,0,3.19,0l1.83-1.83a2.24,2.24,0,0,0,0-3.18l-2.44-2.46a16,16,0,0,0,2.09-5h3.47a2.25,2.25,0,0,0,2.25-2.25v-2.61A2.23,2.23,0,0,0,283.86,211.66ZM264.74,222.3a7.13,7.13,0,1,1,7.12-7.14A7.13,7.13,0,0,1,264.74,222.3Z" transform="translate(-102.78 -146.63)"/><path class="cls-14" d="M652.37,342.66a3.89,3.89,0,1,1-3.88-3.88A3.89,3.89,0,0,1,652.37,342.66Z" transform="translate(-102.78 -146.63)"/></g></g></svg>