<?xml version="1.0" encoding="UTF-8" standalone="no"?><!DOCTYPE svg PUBLIC "-//W3C//DTD SVG 1.1//EN" "http://www.w3.org/Graphics/SVG/1.1/DTD/svg11.dtd"><svg width="100%" height="100%" viewBox="0 0 64 64" version="1.1" xmlns="http://www.w3.org/2000/svg" xmlns:xlink="http://www.w3.org/1999/xlink" xml:space="preserve" xmlns:serif="http://www.serif.com/" style="fill-rule:evenodd;clip-rule:evenodd;stroke-linejoin:round;stroke-miterlimit:2;"><g transform="matrix(1,0,0,1,-342,0)"><rect id="twitter" x="342" y="0" width="64" height="64" style="fill:none;"/><clipPath id="_clip1"><rect id="twitter1" serif:id="twitter" x="342" y="0" width="64" height="64"/></clipPath><g clip-path="url(#_clip1)"><g id="Path_51" transform="matrix(3.33333,0,0,3.33333,-948.133,-986.667)"><path d="M396.64,296C391.374,296 387.04,300.334 387.04,305.6C387.04,310.866 391.374,315.2 396.64,315.2C401.906,315.2 406.24,310.866 406.24,305.6C406.24,300.334 401.906,296 396.64,296ZM401.42,303.45L401.42,303.75C401.418,307.441 398.381,310.477 394.69,310.477C393.407,310.477 392.151,310.11 391.07,309.42L391.63,309.42C392.695,309.431 393.733,309.078 394.57,308.42C393.561,308.401 392.671,307.74 392.36,306.78C392.712,306.86 393.078,306.86 393.43,306.78C392.33,306.557 391.531,305.582 391.53,304.46C391.858,304.643 392.225,304.745 392.6,304.76C391.567,304.068 391.245,302.675 391.87,301.6C393.069,303.081 394.846,303.981 396.75,304.07C396.716,303.909 396.699,303.745 396.699,303.581C396.699,302.28 397.769,301.211 399.069,301.211C399.7,301.211 400.305,301.462 400.75,301.91C401.279,301.808 401.787,301.615 402.25,301.34C402.08,301.88 401.726,302.344 401.25,302.65C401.719,302.593 402.177,302.468 402.61,302.28C402.291,302.752 401.891,303.165 401.43,303.5L401.42,303.45Z" style="fill-rule:nonzero;"/></g></g></g></svg>