<svg style="fill-rule:evenodd;clip-rule:evenodd;stroke-linejoin:round;stroke-miterlimit:2" viewBox="0 0 64 64"><g transform="translate(-342)"><path d="M342 0h64v64h-64z" style="fill:none"/><clipPath><path d="M342 0h64v64h-64z"/></clipPath><g clip-path="url(#a)"><path style="fill-rule:nonzero" d="M373.999-.001c-17.553 0-32 14.446-32 32 0 17.553 14.447 32 32 32s32-14.447 32-32c0-17.554-14.447-32-32-32zm15.933 24.833v1c-.006 12.303-10.13 22.423-22.433 22.423a22.428 22.428 0 01-12.067-3.523h1.867c3.55.037 7.01-1.14 9.8-3.333a7.915 7.915 0 01-7.367-5.467 8.05 8.05 0 003.567 0c-3.667-.743-6.33-3.993-6.333-7.733 1.093.61 2.316.95 3.566 1-3.443-2.307-4.516-6.95-2.433-10.534a22.278 22.278 0 0016.267 8.234 7.891 7.891 0 01-.17-1.63c0-4.337 3.566-7.9 7.9-7.9 2.103 0 4.12.836 5.603 2.33a15.567 15.567 0 005-1.9 8.075 8.075 0 01-3.333 4.366c1.563-.19 3.09-.606 4.533-1.233a16.346 16.346 0 01-3.933 4.067l-.034-.167z"/></g></g></svg>