<svg xmlns="http://www.w3.org/2000/svg" viewBox="0 0 587.43 307.91"><defs><style>.cls-1{isolation:isolate;}.cls-2{fill:#c4e9f7;}.cls-3,.cls-6{fill:#fff;}.cls-15,.cls-23,.cls-4,.cls-5,.cls-9{fill:none;}.cls-13,.cls-15,.cls-17,.cls-23,.cls-4,.cls-5,.cls-6,.cls-7{stroke:#0074bc;}.cls-10,.cls-12,.cls-13,.cls-15,.cls-16,.cls-17,.cls-4,.cls-5,.cls-6,.cls-7,.cls-9{stroke-linecap:round;stroke-linejoin:round;}.cls-4{stroke-width:1.78px;}.cls-10,.cls-12,.cls-13,.cls-16,.cls-17,.cls-23,.cls-5,.cls-6,.cls-7,.cls-9{stroke-width:2.16px;}.cls-7{fill:#4097cd;}.cls-8{fill:#abe0f4;}.cls-10,.cls-12,.cls-16,.cls-9{stroke:#0576bc;}.cls-10,.cls-26{fill:#0576bc;}.cls-11{fill:#0074bc;}.cls-12{fill:#8f979c;}.cls-13,.cls-20{fill:#bfd730;}.cls-14,.cls-21{fill:#8c99a1;}.cls-14,.cls-25{opacity:0.5;mix-blend-mode:multiply;}.cls-15{stroke-width:2.38px;}.cls-16,.cls-17{fill:#e2e5e7;}.cls-18{fill:#81d1ef;}.cls-19{fill:#faa21b;}.cls-22,.cls-25{fill:#57c1e9;}.cls-23{stroke-miterlimit:10;}.cls-24{fill:#d5effa;}</style></defs><title>what they need graphic - desktop</title><g class="cls-1"><g id="Layer_1" data-name="Layer 1"><path class="cls-2" d="M158.15,195.17H639.68a26.52,26.52,0,0,1,26.52,26.51h0a26.52,26.52,0,0,1-26.52,26.52H620.13A28.76,28.76,0,0,0,591.37,277h0a28.77,28.77,0,0,0,28.76,28.77h37.51a32.5,32.5,0,0,1,32.51,32.51h0a32.5,32.5,0,0,1-32.51,32.51H642.69a88,88,0,0,0-88,87.95H269.65a54.06,54.06,0,0,0-53.37-54.05l-77.85-1.23a36.16,36.16,0,0,1-35.7-36.16h0a36.16,36.16,0,0,1,36.16-36.16h20.88A45.85,45.85,0,0,1,205,285.25l39.86-.65a18.19,18.19,0,0,0,17.95-18.19h0a18.2,18.2,0,0,0-18.2-18.2H158.15a26.52,26.52,0,0,1-26.52-26.52h0A26.51,26.51,0,0,1,158.15,195.17Z" transform="translate(-102.73 -151.71)"/><path class="cls-2" d="M255.58,284.32H228.82a17.18,17.18,0,0,1-17.16-17.16V266a17.19,17.19,0,0,1,16.69-17.16,24,24,0,0,1,22.54-16.12,23.67,23.67,0,0,1,11,2.7,32,32,0,0,1,61.44-3.82,22.36,22.36,0,0,1,26.43,17.24h2.2A17.18,17.18,0,0,1,369.09,266v1.16a17.18,17.18,0,0,1-17.16,17.16H255.58Z" transform="translate(-102.73 -151.71)"/><path class="cls-3" d="M232.9,253.52h.61a22.31,22.31,0,0,1,33.22-12.23,30.44,30.44,0,0,1,58.9-4.28,21,21,0,0,1,5.41-.72,20.7,20.7,0,0,1,20.55,17.23H355a15.45,15.45,0,0,1,15.56,15.26v1.12A15.45,15.45,0,0,1,355,285.16H232.9a15.44,15.44,0,0,1-15.55-15.26v-1.12A15.44,15.44,0,0,1,232.9,253.52Z" transform="translate(-102.73 -151.71)"/><path class="cls-4" d="M329.93,284.32h22a17.18,17.18,0,0,0,17.16-17.16V266a17.18,17.18,0,0,0-17.16-17.16h-2.2A22.36,22.36,0,0,0,323.3,231.6a32,32,0,0,0-61.44,3.82,23.67,23.67,0,0,0-11-2.7,24,24,0,0,0-22.54,16.12A17.19,17.19,0,0,0,211.66,266v1.16a17.18,17.18,0,0,0,17.16,17.16h26.76" transform="translate(-102.73 -151.71)"/><path class="cls-5" d="M308.78,242.12c4.28-7.69,9.87-9.84,15.88-10.74" transform="translate(-102.73 -151.71)"/><path class="cls-5" d="M298.68,220.53c-8.48-.42-15.64,3.11-21.53,9" transform="translate(-102.73 -151.71)"/><path class="cls-6" d="M621.26,458.32V251.77a10.86,10.86,0,0,0-10.86-10.86H449.93a10.86,10.86,0,0,0-10.86,10.86V458.32Z" transform="translate(-102.73 -151.71)"/><rect class="cls-6" x="336.34" y="115.79" width="182.18" height="190.83"/><path class="cls-7" d="M610.4,240.91H449.93a10.86,10.86,0,0,0-10.86,10.86V267.5H621.26V251.77A10.86,10.86,0,0,0,610.4,240.91Z" transform="translate(-102.73 -151.71)"/><rect class="cls-8" x="344.84" y="124.58" width="165.2" height="46.02"/><rect class="cls-2" x="345.79" y="182.69" width="32.12" height="32.12"/><rect class="cls-8" x="389.86" y="182.69" width="32.12" height="32.12"/><rect class="cls-8" x="433.97" y="182.69" width="32.12" height="32.12"/><rect class="cls-8" x="477.92" y="182.69" width="32.12" height="32.12"/><circle class="cls-2" cx="354.29" cy="103.71" r="4.45"/><circle class="cls-2" cx="371.61" cy="103.71" r="4.45"/><circle class="cls-2" cx="388.92" cy="103.71" r="4.45"/><line class="cls-9" x1="366.45" y1="64.29" x2="413.76" y2="64.29"/><line class="cls-9" x1="423.86" y1="64.29" x2="434.17" y2="64.29"/><line class="cls-10" x1="444.9" y1="64.19" x2="458.57" y2="64.19"/><line class="cls-10" x1="451.73" y1="71.03" x2="451.73" y2="57.35"/><line class="cls-10" x1="12.29" y1="130.66" x2="25.97" y2="130.66"/><line class="cls-10" x1="19.13" y1="137.5" x2="19.13" y2="123.83"/><path class="cls-11" d="M642.44,395.66a5,5,0,1,1-5-5A5,5,0,0,1,642.44,395.66Z" transform="translate(-102.73 -151.71)"/><path class="cls-11" d="M212.83,227.8a5,5,0,1,1-5-5A5,5,0,0,1,212.83,227.8Z" transform="translate(-102.73 -151.71)"/><path class="cls-11" d="M156.54,405.87a5,5,0,1,1-5-5A5,5,0,0,1,156.54,405.87Z" transform="translate(-102.73 -151.71)"/><path class="cls-11" d="M655.43,276.86a2.72,2.72,0,1,1-2.72-2.71A2.71,2.71,0,0,1,655.43,276.86Z" transform="translate(-102.73 -151.71)"/><path class="cls-11" d="M387.38,209.86a2.71,2.71,0,1,1-2.71-2.71A2.71,2.71,0,0,1,387.38,209.86Z" transform="translate(-102.73 -151.71)"/><path class="cls-11" d="M134.37,312.32a2.71,2.71,0,1,1-2.71-2.71A2.71,2.71,0,0,1,134.37,312.32Z" transform="translate(-102.73 -151.71)"/><rect class="cls-3" x="144.22" y="270.92" width="77.36" height="35.57"/><rect class="cls-5" x="66.55" y="110.31" width="232.54" height="160.59" rx="12.05"/><path class="cls-5" d="M401.83,274.07A12.09,12.09,0,0,0,389.78,262H181.33a12.08,12.08,0,0,0-12.05,12.05V391H401.83Z" transform="translate(-102.73 -151.71)"/><path class="cls-12" d="M401.83,274.07A12.09,12.09,0,0,0,389.78,262H181.33a12.08,12.08,0,0,0-12.05,12.05V391H401.83Z" transform="translate(-102.73 -151.71)"/><path class="cls-6" d="M181.33,422.61H389.78a12.1,12.1,0,0,0,12.05-12.05V391H169.28v19.56A12.09,12.09,0,0,0,181.33,422.61Z" transform="translate(-102.73 -151.71)"/><rect class="cls-3" x="78.27" y="123.04" width="209.04" height="105.01"/><path class="cls-13" d="M320.37,320.84l-6.32,0a29.35,29.35,0,0,0-3.79-9.13l4.48-4.48a4.09,4.09,0,0,0,0-5.79l-3.35-3.35a4.1,4.1,0,0,0-5.79,0l-4.48,4.48a29.2,29.2,0,0,0-9.11-3.79v-6.32a4.11,4.11,0,0,0-4.11-4.1h-4.73a4.11,4.11,0,0,0-4.1,4.1v6.32a29.37,29.37,0,0,0-9,3.7L265.65,298a4.08,4.08,0,0,0-5.79,0l-3.37,3.33a4.09,4.09,0,0,0,0,5.78l4.45,4.51a28.78,28.78,0,0,0-3.82,9.1l-6.33,0a4.07,4.07,0,0,0-4.1,4.08l0,4.74a4.1,4.1,0,0,0,4.08,4.11l6.31,0a28.6,28.6,0,0,0,3.77,9.12l-4.51,4.49a4.1,4.1,0,0,0,0,5.78l3.33,3.35a4.08,4.08,0,0,0,5.79,0l4.5-4.46a29.26,29.26,0,0,0,9.12,3.82l0,6.31a4.1,4.1,0,0,0,4.08,4.11l4.74,0a4.09,4.09,0,0,0,4.1-4.07l0-6.34a29.23,29.23,0,0,0,9.14-3.77l4.46,4.5a4.12,4.12,0,0,0,5.81,0l3.34-3.34a4.07,4.07,0,0,0,0-5.78l-4.44-4.49a29.35,29.35,0,0,0,3.79-9.13l6.32,0a4.09,4.09,0,0,0,4.1-4.09v-4.74A4.08,4.08,0,0,0,320.37,320.84Zm-34.82,19.39a13,13,0,1,1,13-13A13,13,0,0,1,285.55,340.23Z" transform="translate(-102.73 -151.71)"/><rect class="cls-14" x="144.22" y="270.9" width="77.36" height="14.82"/><rect class="cls-15" x="144.22" y="270.9" width="77.36" height="35.73"/><rect class="cls-6" x="127.93" y="299.14" width="109.95" height="7.62"/><line class="cls-5" x1="63.24" y1="306.74" x2="530.5" y2="306.74"/><line class="cls-5" x1="539.77" y1="306.74" x2="557.21" y2="306.74"/><line class="cls-5" x1="20.59" y1="306.7" x2="55.35" y2="306.7"/><path class="cls-14" d="M541,441.07a1.1,1.1,0,0,0-.83-.38H517.73V306.17a4,4,0,0,0-4-4h-209a4,4,0,0,0-4,4V440.69H278.18a1.09,1.09,0,0,0-1.07,1.25l1.41,8.62a10.78,10.78,0,0,0,10.67,9.06H528a12.11,12.11,0,0,0,12-10.18l1.23-7.5A1.09,1.09,0,0,0,541,441.07Z" transform="translate(-102.73 -151.71)"/><rect class="cls-16" x="204.87" y="151.51" width="203.27" height="146.11" rx="2.89"/><path class="cls-17" d="M522.22,458.48H295a9.73,9.73,0,0,1-9.6-8.15L284,441.71H393.22l3.52,5.05h25.41l3.8-5.05H534.37l-1.23,7.49A11.07,11.07,0,0,1,522.22,458.48Z" transform="translate(-102.73 -151.71)"/><rect class="cls-3" x="212.41" y="161.18" width="188.2" height="121.45"/><rect class="cls-18" x="224.92" y="194.28" width="165.2" height="40.03"/><rect class="cls-19" x="225.87" y="244.82" width="32.12" height="27.94"/><rect class="cls-20" x="269.94" y="244.82" width="32.12" height="27.94"/><rect class="cls-21" x="314.04" y="244.82" width="32.12" height="27.94"/><rect class="cls-22" x="357.99" y="244.82" width="32.12" height="27.94"/><rect class="cls-14" x="370.38" y="222.43" width="117.81" height="85.39" rx="6.6"/><rect class="cls-14" x="381.93" y="222.43" width="117.81" height="85.39" rx="6.6"/><rect class="cls-6" x="377.24" y="223.51" width="115.65" height="83.23" rx="5.52"/><path class="cls-23" d="M591.71,416.88a4,4,0,1,1-4.05-4,4,4,0,0,1,4.05,4" transform="translate(-102.73 -151.71)"/><rect class="cls-24" x="392.77" y="230.63" width="84.58" height="68.99"/><line class="cls-5" x1="385.49" y1="272.97" x2="385.49" y2="257.37"/><path class="cls-13" d="M560.63,412.6l-4.15,0a19.26,19.26,0,0,0-2.48-6l2.93-2.93a2.68,2.68,0,0,0,0-3.8l-2.19-2.19a2.67,2.67,0,0,0-3.79,0L548,400.6a19.3,19.3,0,0,0-6-2.48V394a2.7,2.7,0,0,0-2.69-2.69h-3.1a2.69,2.69,0,0,0-2.69,2.69v4.14a19.24,19.24,0,0,0-5.89,2.43l-2.91-2.95a2.69,2.69,0,0,0-3.8,0l-2.21,2.19a2.68,2.68,0,0,0,0,3.79l2.92,2.95a19,19,0,0,0-2.5,6H515a2.67,2.67,0,0,0-2.69,2.68l0,3.1a2.7,2.7,0,0,0,2.67,2.7h4.14a19,19,0,0,0,2.47,6l-3,2.94a2.68,2.68,0,0,0,0,3.79l2.18,2.2a2.69,2.69,0,0,0,3.8,0l2.94-2.92a19.44,19.44,0,0,0,6,2.5v4.14a2.67,2.67,0,0,0,2.67,2.69h3.1a2.67,2.67,0,0,0,2.69-2.67v-4.15a19,19,0,0,0,6-2.47L550.9,436a2.7,2.7,0,0,0,3.8,0l2.19-2.19a2.66,2.66,0,0,0,0-3.79L554,427a19.18,19.18,0,0,0,2.49-6h4.14a2.7,2.7,0,0,0,2.69-2.68v-3.11A2.68,2.68,0,0,0,560.63,412.6Zm-22.82,12.7a8.51,8.51,0,1,1,8.51-8.52A8.51,8.51,0,0,1,537.81,425.3Z" transform="translate(-102.73 -151.71)"/><path class="cls-25" d="M469.07,336.51H507.7a24.81,24.81,0,0,0,24.77-24.79v-1.66a24.8,24.8,0,0,0-24.09-24.77A34.58,34.58,0,0,0,475.84,262a34.18,34.18,0,0,0-15.85,3.9,46.26,46.26,0,0,0-88.7-5.52,31.9,31.9,0,0,0-6.47-.68,32.27,32.27,0,0,0-31.69,25.57H330a24.81,24.81,0,0,0-24.78,24.78v1.66A24.81,24.81,0,0,0,330,336.51h139.1Z" transform="translate(-102.73 -151.71)"/><path class="cls-25" d="M451.76,336.51h38.62a24.81,24.81,0,0,0,24.78-24.79v-1.66a24.8,24.8,0,0,0-24.09-24.77A34.59,34.59,0,0,0,458.53,262a34.18,34.18,0,0,0-15.85,3.9,46.26,46.26,0,0,0-88.7-5.52,31.9,31.9,0,0,0-6.47-.68,32.27,32.27,0,0,0-31.69,25.57h-3.17a24.81,24.81,0,0,0-24.78,24.78v1.66a24.81,24.81,0,0,0,24.78,24.79H451.76Z" transform="translate(-102.73 -151.71)"/><path class="cls-3" d="M460.41,336.51H499a24.81,24.81,0,0,0,24.78-24.79v-1.66a24.81,24.81,0,0,0-24.1-24.77A34.58,34.58,0,0,0,467.19,262a34.12,34.12,0,0,0-15.85,3.9,46.27,46.27,0,0,0-88.71-5.52,31.73,31.73,0,0,0-6.46-.68,32.28,32.28,0,0,0-31.7,25.57h-3.16a24.81,24.81,0,0,0-24.78,24.78v1.66a24.81,24.81,0,0,0,24.78,24.79h139.1Z" transform="translate(-102.73 -151.71)"/><path class="cls-5" d="M361.72,336.51H321.31a24.81,24.81,0,0,1-24.78-24.79v-1.66a24.81,24.81,0,0,1,24.78-24.78h3.16a32.28,32.28,0,0,1,31.7-25.57,31.73,31.73,0,0,1,6.46.68,46.27,46.27,0,0,1,88.71,5.52,34.12,34.12,0,0,1,15.85-3.9,34.58,34.58,0,0,1,32.53,23.28,24.81,24.81,0,0,1,24.1,24.77v1.66A24.81,24.81,0,0,1,499,336.51H457.53" transform="translate(-102.73 -151.71)"/><path class="cls-5" d="M383.61,275.58c-6.19-11.1-14.26-14.21-22.93-15.51" transform="translate(-102.73 -151.71)"/><path class="cls-5" d="M398.18,244.41c12.25-.61,22.59,4.49,31.09,13" transform="translate(-102.73 -151.71)"/><path class="cls-11" d="M409.61,278.23a39.5,39.5,0,0,0-39.5,39.49,40.65,40.65,0,0,0,.41,5.66L382.7,311.2a6.61,6.61,0,0,1,4.74-1.95,6.51,6.51,0,0,1,4.72,1.94l10.13,10.17,12.85-12.85-4.91-1.83a1.86,1.86,0,0,1,.13-3.53l24.13-7a1.87,1.87,0,0,1,1.81.45,2,2,0,0,1,.51,1.87l-7,24.27a2,2,0,0,1-1.72,1.5h0a2,2,0,0,1-1.81-1.37l-1.83-5.06L407,335.34a6.71,6.71,0,0,1-9.41,0l-10.13-10.17L375.3,337.28a39.49,39.49,0,1,0,34.31-59Z" transform="translate(-102.73 -151.71)"/><line class="cls-9" x1="223.06" y1="21.74" x2="315.38" y2="21.74"/><line class="cls-9" x1="273.53" y1="5.87" x2="419.9" y2="5.87"/><line class="cls-9" x1="322.59" y1="21.74" x2="338.56" y2="21.74"/><path class="cls-26" d="M629.63,188a3.89,3.89,0,1,1-3.89-3.88A3.89,3.89,0,0,1,629.63,188Z" transform="translate(-102.73 -151.71)"/><line class="cls-10" x1="432.27" y1="10.75" x2="441.94" y2="1.08"/><line class="cls-10" x1="441.94" y1="10.75" x2="432.27" y2="1.08"/></g></g></svg>