<svg viewBox="0 0 587.43 307.91"><defs><style>.cls-2{fill:#c4e9f7}.cls-3,.cls-6{fill:#fff}.cls-5,.cls-9{fill:none}.cls-13,.cls-5,.cls-6{stroke:#0074bc}.cls-10,.cls-13,.cls-5,.cls-6,.cls-9{stroke-linecap:round;stroke-linejoin:round;stroke-width:2.16px}.cls-8{fill:#abe0f4}.cls-10,.cls-9{stroke:#0576bc}.cls-10{fill:#0576bc}.cls-11{fill:#0074bc}.cls-13{fill:#bfd730}.cls-14,.cls-25{fill:#8c99a1;opacity:.5;mix-blend-mode:multiply}.cls-25{fill:#57c1e9}</style></defs><g style="isolation:isolate"><g id="Layer_1" data-name="Layer 1"><path d="M158.15 195.17h481.53a26.52 26.52 0 0126.52 26.51 26.52 26.52 0 01-26.52 26.52h-19.55a28.76 28.76 0 00-28.76 28.8 28.77 28.77 0 0028.76 28.77h37.51a32.5 32.5 0 0132.51 32.51 32.5 32.5 0 01-32.51 32.51h-14.95a88 88 0 00-88 87.95H269.65a54.06 54.06 0 00-53.37-54.05l-77.85-1.23a36.16 36.16 0 01-35.7-36.16 36.16 36.16 0 0136.16-36.16h20.88A45.85 45.85 0 01205 285.25l39.86-.65a18.19 18.19 0 0017.95-18.19 18.2 18.2 0 00-18.2-18.2h-86.46a26.52 26.52 0 01-26.52-26.52 26.51 26.51 0 0126.52-26.52z" class="cls-2" transform="translate(-102.73 -151.71)"/><path d="M255.58 284.32h-26.76a17.18 17.18 0 01-17.16-17.16V266a17.19 17.19 0 0116.69-17.16 24 24 0 0122.54-16.12 23.67 23.67 0 0111 2.7 32 32 0 0161.44-3.82 22.36 22.36 0 0126.43 17.24h2.2A17.18 17.18 0 01369.09 266v1.16a17.18 17.18 0 01-17.16 17.16h-96.35z" class="cls-2" transform="translate(-102.73 -151.71)"/><path d="M232.9 253.52h.61a22.31 22.31 0 0133.22-12.23 30.44 30.44 0 0158.9-4.28 21 21 0 015.41-.72 20.7 20.7 0 0120.55 17.23H355a15.45 15.45 0 0115.56 15.26v1.12A15.45 15.45 0 01355 285.16H232.9a15.44 15.44 0 01-15.55-15.26v-1.12a15.44 15.44 0 0115.55-15.26z" class="cls-3" transform="translate(-102.73 -151.71)"/><path style="stroke-width:1.78px;stroke-linecap:round;stroke-linejoin:round;stroke:#0074bc;fill:none" d="M329.93 284.32h22a17.18 17.18 0 0017.16-17.16V266a17.18 17.18 0 00-17.16-17.16h-2.2a22.36 22.36 0 00-26.43-17.24 32 32 0 00-61.44 3.82 23.67 23.67 0 00-11-2.7 24 24 0 00-22.54 16.12A17.19 17.19 0 00211.66 266v1.16a17.18 17.18 0 0017.16 17.16h26.76" transform="translate(-102.73 -151.71)"/><path d="M308.78 242.12c4.28-7.69 9.87-9.84 15.88-10.74M298.68 220.53c-8.48-.42-15.64 3.11-21.53 9" class="cls-5" transform="translate(-102.73 -151.71)"/><path d="M621.26 458.32V251.77a10.86 10.86 0 00-10.86-10.86H449.93a10.86 10.86 0 00-10.86 10.86v206.55z" class="cls-6" transform="translate(-102.73 -151.71)"/><path d="M336.34 115.79h182.18v190.83H336.34z" class="cls-6"/><path style="fill:#4097cd;stroke-width:2.16px;stroke-linecap:round;stroke-linejoin:round;stroke:#0074bc" d="M610.4 240.91H449.93a10.86 10.86 0 00-10.86 10.86v15.73h182.19v-15.73a10.86 10.86 0 00-10.86-10.86z" transform="translate(-102.73 -151.71)"/><path d="M344.84 124.58h165.2v46.02h-165.2z" class="cls-8"/><path d="M345.79 182.69h32.12v32.12h-32.12z" class="cls-2"/><path d="M389.86 182.69h32.12v32.12h-32.12zM433.97 182.69h32.12v32.12h-32.12zM477.92 182.69h32.12v32.12h-32.12z" class="cls-8"/><circle cx="354.29" cy="103.71" r="4.45" class="cls-2"/><circle cx="371.61" cy="103.71" r="4.45" class="cls-2"/><circle cx="388.92" cy="103.71" r="4.45" class="cls-2"/><path d="M366.45 64.29h47.31M423.86 64.29h10.31" class="cls-9"/><path d="M444.9 64.19h13.67M451.73 71.03V57.35M12.29 130.66h13.68M19.13 137.5v-13.67" class="cls-10"/><path d="M642.44 395.66a5 5 0 11-5-5 5 5 0 015 5zM212.83 227.8a5 5 0 11-5-5 5 5 0 015 5zM156.54 405.87a5 5 0 11-5-5 5 5 0 015 5zM655.43 276.86a2.72 2.72 0 11-2.72-2.71 2.71 2.71 0 012.72 2.71zM387.38 209.86a2.71 2.71 0 11-2.71-2.71 2.71 2.71 0 012.71 2.71zM134.37 312.32a2.71 2.71 0 11-2.71-2.71 2.71 2.71 0 012.71 2.71z" class="cls-11" transform="translate(-102.73 -151.71)"/><path d="M144.22 270.92h77.36v35.57h-77.36z" class="cls-3"/><rect width="232.54" height="160.59" x="66.55" y="110.31" class="cls-5" rx="12.05"/><path d="M401.83 274.07A12.09 12.09 0 00389.78 262H181.33a12.08 12.08 0 00-12.05 12.05V391h232.55z" class="cls-5" transform="translate(-102.73 -151.71)"/><path style="fill:#8f979c;stroke:#0576bc;stroke-width:2.16px;stroke-linecap:round;stroke-linejoin:round" d="M401.83 274.07A12.09 12.09 0 00389.78 262H181.33a12.08 12.08 0 00-12.05 12.05V391h232.55z" transform="translate(-102.73 -151.71)"/><path d="M181.33 422.61h208.45a12.1 12.1 0 0012.05-12.05V391H169.28v19.56a12.09 12.09 0 0012.05 12.05z" class="cls-6" transform="translate(-102.73 -151.71)"/><path d="M78.27 123.04h209.04v105.01H78.27z" class="cls-3"/><path d="M320.37 320.84h-6.32a29.35 29.35 0 00-3.79-9.13l4.48-4.48a4.09 4.09 0 000-5.79l-3.35-3.35a4.1 4.1 0 00-5.79 0l-4.48 4.48a29.2 29.2 0 00-9.11-3.79v-6.32a4.11 4.11 0 00-4.11-4.1h-4.73a4.11 4.11 0 00-4.1 4.1v6.32a29.37 29.37 0 00-9 3.7l-4.42-4.48a4.08 4.08 0 00-5.79 0l-3.37 3.33a4.09 4.09 0 000 5.78l4.45 4.51a28.78 28.78 0 00-3.82 9.1h-6.33a4.07 4.07 0 00-4.1 4.08v4.74a4.1 4.1 0 004.08 4.11h6.31a28.6 28.6 0 003.77 9.12l-4.51 4.49a4.1 4.1 0 000 5.78l3.33 3.35a4.08 4.08 0 005.79 0l4.5-4.46a29.26 29.26 0 009.12 3.82v6.31a4.1 4.1 0 004.08 4.11h4.74a4.09 4.09 0 004.1-4.07v-6.34a29.23 29.23 0 009.14-3.77l4.46 4.5a4.12 4.12 0 005.81 0l3.34-3.34a4.07 4.07 0 000-5.78l-4.44-4.49a29.35 29.35 0 003.79-9.13h6.32a4.09 4.09 0 004.1-4.09v-4.74a4.08 4.08 0 00-4.15-4.08zm-34.82 19.39a13 13 0 1113-13 13 13 0 01-13 13z" class="cls-13" transform="translate(-102.73 -151.71)"/><path d="M144.22 270.9h77.36v14.82h-77.36z" class="cls-14"/><path d="M144.22 270.9h77.36v35.73h-77.36z" style="stroke-width:2.38px;stroke-linecap:round;stroke-linejoin:round;stroke:#0074bc;fill:none"/><path d="M127.93 299.14h109.95v7.62H127.93z" class="cls-6"/><path d="M63.24 306.74H530.5M539.77 306.74h17.44M20.59 306.7h34.76" class="cls-5"/><path d="M541 441.07a1.1 1.1 0 00-.83-.38h-22.44V306.17a4 4 0 00-4-4h-209a4 4 0 00-4 4v134.52h-22.55a1.09 1.09 0 00-1.07 1.25l1.41 8.62a10.78 10.78 0 0010.67 9.06H528a12.11 12.11 0 0012-10.18l1.23-7.5a1.09 1.09 0 00-.23-.87z" class="cls-14" transform="translate(-102.73 -151.71)"/><rect style="fill:#e2e5e7;stroke:#0576bc;stroke-width:2.16px;stroke-linecap:round;stroke-linejoin:round" width="203.27" height="146.11" x="204.87" y="151.51" rx="2.89"/><path style="fill:#e2e5e7;stroke-width:2.16px;stroke-linecap:round;stroke-linejoin:round;stroke:#0074bc" d="M522.22 458.48H295a9.73 9.73 0 01-9.6-8.15l-1.4-8.62h109.22l3.52 5.05h25.41l3.8-5.05h108.42l-1.23 7.49a11.07 11.07 0 01-10.92 9.28z" transform="translate(-102.73 -151.71)"/><path d="M212.41 161.18h188.2v121.45h-188.2z" class="cls-3"/><path d="M224.92 194.28h165.2v40.03h-165.2z" style="fill:#81d1ef"/><path d="M225.87 244.82h32.12v27.94h-32.12z" style="fill:#faa21b"/><path d="M269.94 244.82h32.12v27.94h-32.12z" style="fill:#bfd730"/><path d="M314.04 244.82h32.12v27.94h-32.12z" style="fill:#8c99a1"/><path d="M357.99 244.82h32.12v27.94h-32.12z" style="fill:#57c1e9"/><rect width="117.81" height="85.39" x="370.38" y="222.43" class="cls-14" rx="6.6"/><rect width="117.81" height="85.39" x="381.93" y="222.43" class="cls-14" rx="6.6"/><rect width="115.65" height="83.23" x="377.24" y="223.51" class="cls-6" rx="5.52"/><path style="stroke-miterlimit:10;stroke-width:2.16px;stroke:#0074bc;fill:none" d="M591.71 416.88a4 4 0 11-4.05-4 4 4 0 014.05 4" transform="translate(-102.73 -151.71)"/><path d="M392.77 230.63h84.58v68.99h-84.58z" style="fill:#d5effa"/><path d="M385.49 272.97v-15.6" class="cls-5"/><path d="M560.63 412.6h-4.15a19.26 19.26 0 00-2.48-6l2.93-2.93a2.68 2.68 0 000-3.8l-2.19-2.19a2.67 2.67 0 00-3.79 0L548 400.6a19.3 19.3 0 00-6-2.48V394a2.7 2.7 0 00-2.69-2.69h-3.1a2.69 2.69 0 00-2.69 2.69v4.14a19.24 19.24 0 00-5.89 2.43l-2.91-2.95a2.69 2.69 0 00-3.8 0l-2.21 2.19a2.68 2.68 0 000 3.79l2.92 2.95a19 19 0 00-2.5 6H515a2.67 2.67 0 00-2.69 2.68v3.1a2.7 2.7 0 002.67 2.7h4.14a19 19 0 002.47 6l-3 2.94a2.68 2.68 0 000 3.79l2.18 2.2a2.69 2.69 0 003.8 0l2.94-2.92a19.44 19.44 0 006 2.5v4.14a2.67 2.67 0 002.67 2.69h3.1a2.67 2.67 0 002.69-2.67v-4.15a19 19 0 006-2.47l2.93 2.92a2.7 2.7 0 003.8 0l2.19-2.19a2.66 2.66 0 000-3.79L554 427a19.18 19.18 0 002.49-6h4.14a2.7 2.7 0 002.69-2.68v-3.11a2.68 2.68 0 00-2.69-2.61zm-22.82 12.7a8.51 8.51 0 118.51-8.52 8.51 8.51 0 01-8.51 8.52z" class="cls-13" transform="translate(-102.73 -151.71)"/><path d="M469.07 336.51h38.63a24.81 24.81 0 0024.77-24.79v-1.66a24.8 24.8 0 00-24.09-24.77A34.58 34.58 0 00475.84 262a34.18 34.18 0 00-15.85 3.9 46.26 46.26 0 00-88.7-5.52 31.9 31.9 0 00-6.47-.68 32.27 32.27 0 00-31.69 25.57H330a24.81 24.81 0 00-24.78 24.78v1.66a24.81 24.81 0 0024.78 24.8h139.1z" class="cls-25" transform="translate(-102.73 -151.71)"/><path d="M451.76 336.51h38.62a24.81 24.81 0 0024.78-24.79v-1.66a24.8 24.8 0 00-24.09-24.77A34.59 34.59 0 00458.53 262a34.18 34.18 0 00-15.85 3.9 46.26 46.26 0 00-88.7-5.52 31.9 31.9 0 00-6.47-.68 32.27 32.27 0 00-31.69 25.57h-3.17a24.81 24.81 0 00-24.78 24.78v1.66a24.81 24.81 0 0024.78 24.79h139.11z" class="cls-25" transform="translate(-102.73 -151.71)"/><path d="M460.41 336.51H499a24.81 24.81 0 0024.78-24.79v-1.66a24.81 24.81 0 00-24.1-24.77A34.58 34.58 0 00467.19 262a34.12 34.12 0 00-15.85 3.9 46.27 46.27 0 00-88.71-5.52 31.73 31.73 0 00-6.46-.68 32.28 32.28 0 00-31.7 25.57h-3.16a24.81 24.81 0 00-24.78 24.78v1.66a24.81 24.81 0 0024.78 24.79h139.1z" class="cls-3" transform="translate(-102.73 -151.71)"/><path d="M361.72 336.51h-40.41a24.81 24.81 0 01-24.78-24.79v-1.66a24.81 24.81 0 0124.78-24.78h3.16a32.28 32.28 0 0131.7-25.57 31.73 31.73 0 016.46.68 46.27 46.27 0 0188.71 5.52 34.12 34.12 0 0115.85-3.9 34.58 34.58 0 0132.53 23.28 24.81 24.81 0 0124.1 24.77v1.66A24.81 24.81 0 01499 336.51h-41.47M383.61 275.58c-6.19-11.1-14.26-14.21-22.93-15.51M398.18 244.41c12.25-.61 22.59 4.49 31.09 13" class="cls-5" transform="translate(-102.73 -151.71)"/><path d="M409.61 278.23a39.5 39.5 0 00-39.5 39.49 40.65 40.65 0 00.41 5.66l12.18-12.18a6.61 6.61 0 014.74-1.95 6.51 6.51 0 014.72 1.94l10.13 10.17 12.85-12.85-4.91-1.83a1.86 1.86 0 01.13-3.53l24.13-7a1.87 1.87 0 011.81.45 2 2 0 01.51 1.87l-7 24.27a2 2 0 01-1.72 1.5 2 2 0 01-1.81-1.37l-1.83-5.06L407 335.34a6.71 6.71 0 01-9.41 0l-10.13-10.17-12.16 12.11a39.49 39.49 0 1034.31-59z" class="cls-11" transform="translate(-102.73 -151.71)"/><path d="M223.06 21.74h92.32M273.53 5.87H419.9M322.59 21.74h15.97" class="cls-9"/><path style="fill:#0576bc" d="M629.63 188a3.89 3.89 0 11-3.89-3.88 3.89 3.89 0 013.89 3.88z" transform="translate(-102.73 -151.71)"/><path d="M432.27 10.75l9.67-9.67M441.94 10.75l-9.67-9.67" class="cls-10"/></g></g></svg>